<svg xmlns="http://www.w3.org/2000/svg" width="32" height="33" viewBox="0 0 32 33">
    <g fill="none" fill-rule="evenodd" transform="translate(0 .243)">
        <circle cx="16" cy="16" r="16" fill="#F6F8FA"/>
        <path fill="#A0AAB4" stroke="#A0AAB4" stroke-width=".3" d="M9.015 19.5L9 22.38c0 .162.06.325.178.443s.266.177.429.177l2.87-.015c.164 0 .312-.059.43-.177l9.915-9.894c.237-.237.237-.62 0-.872l-2.841-2.865c-.237-.236-.622-.236-.873 0l-1.983 1.994-7.933 7.9c-.103.119-.177.267-.177.429zm10.537-9.023l1.998 1.993-1.125 1.123-1.998-1.994 1.125-1.122zm-9.309 9.289l7.31-7.296 1.999 1.994-7.311 7.28-2.013.015.015-1.993h0z"/>
    </g>
</svg>
