<svg xmlns="http://www.w3.org/2000/svg" width="32" height="14" viewBox="0 0 32 14">
    <g fill="none" fill-rule="evenodd">
        <path fill="#FFF" d="M4.267 0h17.066C23.69 0 25.6 1.91 25.6 4.267v4.977c0 2.357-1.91 4.267-4.267 4.267H4.267C1.91 13.511 0 11.601 0 9.244V4.267C0 1.91 1.91 0 4.267 0z"/>
        <path fill="#000" fill-rule="nonzero" d="M12.926 8.215c-.878 0-1.586-.726-1.586-1.619 0-.892.708-1.618 1.586-1.618.877 0 1.586.726 1.586 1.618 0 .893-.709 1.62-1.586 1.62zm5.65 0c-.877 0-1.585-.726-1.585-1.619 0-.892.708-1.618 1.586-1.618.877 0 1.586.726 1.586 1.618 0 .893-.709 1.62-1.586 1.62zm-11.301 0c-.877 0-1.586-.726-1.586-1.619 0-.892.709-1.618 1.586-1.618.877 0 1.586.726 1.586 1.618 0 .893-.709 1.62-1.586 1.62z"/>
        <g fill-rule="nonzero" transform="translate(19.2)">
            <circle cx="6.4" cy="6.4" r="6.4" fill="#9ACF60"/>
            <path fill="#FFF" d="M9.204 4.127c.317.218.396.652.178.968l-.006.008L6.53 9.106c-.043.061-.094.113-.15.156-.025.035-.055.068-.088.098l-.008.007c-.293.26-.74.236-1.003-.052l-1.9-2.077c-.258-.283-.238-.722.045-.981l.008-.007c.292-.26.74-.236 1.003.052L5.76 7.75l2.453-3.449c.227-.319.668-.397.99-.174z"/>
        </g>
    </g>
</svg>
