<svg xmlns="http://www.w3.org/2000/svg" width="30" height="32" viewBox="0 0 30 32">
    <g fill="none" fill-rule="evenodd">
        <g fill-rule="nonzero">
            <path fill="#FFDF08" d="M28.5 4.952h-3V2.251C25.5 1.013 24.375 0 23 0H7C5.625 0 4.5 1.013 4.5 2.25v2.702h-3c-.825 0-1.5.608-1.5 1.35v2.701c0 .878.6 1.89 1.5 2.701l3.325 2.318c.575 2.008 1.853 4.667 3.586 5.936 1.433 1.05 3.177 1.765 5.09 2.01v2.34H12.5c-.825 0-1.5.607-1.5 1.35v.45h-.5c-.825 0-1.5.608-1.5 1.35v.45h12v-.45c0-.742-.675-1.35-1.5-1.35H19v-.45c0-.743-.675-1.35-1.5-1.35h-1v-2.34c4.225-.541 7.625-4.277 8.675-7.946l3.325-2.318c.9-.81 1.5-1.823 1.5-2.7V6.302c0-.743-.675-1.35-1.5-1.35zm-26 5.74c-.7-.654-1-1.306-1-1.689v-2.7h3v5.784l-2-1.396zm26-1.689c0 .383-.3 1.036-1 1.688l-2.025 1.396V6.303h3v2.7h.025z" transform="translate(0 .282)"/>
            <path fill="#FFF" d="M17.384 3.007l-1.078 1.136s-1.094-1.262-1.11-1.262c-.015 0-1.094 1.262-1.094 1.262l-1.078-1.12c-.156-.205-.312-.19-.312-.016l.312 2.699c0 .173.141.315.313.315h3.75c.172 0 .312-.142.312-.315l.313-2.683c-.016-.269-.219-.127-.328-.016zm-.458 3.465h-3.428c-.158 0-.286.101-.286.225s.128.225.286.225h3.428c.157 0 .286-.101.286-.225s-.129-.225-.286-.225z" transform="translate(0 .282)"/>
            <path fill="#D8DDDD" d="M5.952 27.909h18.096c.829 0 1.508.631 1.508 1.404v.935c0 .773-.679 1.404-1.508 1.404H5.952c-.829 0-1.508-.631-1.508-1.404v-.935c0-.773.679-1.404 1.508-1.404z" transform="translate(0 .282)"/>
            <path fill="#E9C000" d="M11.232 25.163c-.05.138-.075.298-.075.458v.458h7.963v-.458c0-.16-.024-.32-.074-.458h-7.814zm-1.99 1.83c-.05.138-.075.298-.075.458v.458H21.11v-.458c0-.16-.025-.32-.075-.457H9.241z" transform="translate(0 .282)"/>
            <path fill="#C7CFCF" d="M4.444 30.342c0 .72.679 1.31 1.508 1.31h18.096c.829 0 1.508-.59 1.508-1.31v-.437H4.444v.437z" transform="translate(0 .282)"/>
            <path fill="#E9C000" d="M6.986 12.594V2.264C6.986 1.019 8.13 0 9.527 0H6.986C5.588 0 4.444 1.019 4.444 2.264v10.33c0 5.296 4.778 9.575 10.674 9.575.432 0 .864-.023 1.27-.068-5.31-.566-9.402-4.595-9.402-9.507z" transform="translate(0 .282)"/>
        </g>
        <path fill="#FFF" d="M17.469 15.856L17.508 11.065 17.479 11.065 15.678 15.856 14.504 15.856 12.752 11.065 12.723 11.065 12.762 15.856 11.186 15.856 11.186 9.085 13.564 9.085 15.14 13.427 15.179 13.427 16.686 9.085 19.103 9.085 19.103 15.856z"/>
    </g>
</svg>
