<svg xmlns="http://www.w3.org/2000/svg" width="24" height="26" viewBox="0 0 24 26">
    <g fill="none" fill-rule="evenodd">
        <g fill-rule="nonzero">
            <path fill="#9ACF60" d="M22.8 2.775h-2.4v-.793C20.4.892 19.5 0 18.4 0H5.6c-1.1 0-2 .892-2 1.982v.793H1.2c-.66 0-1.2.536-1.2 1.19v2.379c0 .773.48 1.665 1.2 2.378l2.66 2.042c.46 1.769 1.483 3.318 2.869 4.436 1.146.924 2.541 1.554 4.071 1.77v2.06H10c-.66 0-1.2.536-1.2 1.19v.397h-.4c-.66 0-1.2.535-1.2 1.19v.396h9.6v-.397c0-.654-.54-1.19-1.2-1.19h-.4v-.396c0-.654-.54-1.19-1.2-1.19h-.8v-2.06c3.38-.477 6.1-2.974 6.94-6.206l2.66-2.042c.72-.713 1.2-1.605 1.2-2.378v-2.38c0-.653-.54-1.189-1.2-1.189zM2 7.83c-.56-.575-.8-1.15-.8-1.486v-2.38h2.4V9.06L2 7.83zm20.8-1.486c0 .337-.24.911-.8 1.486l-1.62 1.23V3.964h2.4v2.379h.02z"/>
            <path fill="#D8DDDD" d="M4.762 22.203h14.476c.664 0 1.206.556 1.206 1.236v.824c0 .68-.542 1.237-1.206 1.237H4.762c-.664 0-1.206-.556-1.206-1.237v-.824c0-.68.542-1.236 1.206-1.236z"/>
            <path fill="#76A83F" d="M8.986 19.784c-.04.121-.06.262-.06.404v.403h6.37v-.404c0-.14-.02-.282-.06-.403h-6.25zm-1.593 1.613c-.04.12-.06.262-.06.403v.403h9.556V21.8c0-.141-.02-.283-.06-.403H7.393z"/>
            <path fill="#C7CFCF" d="M3.556 24.346c0 .635.542 1.154 1.206 1.154h14.476c.664 0 1.206-.52 1.206-1.154v-.385H3.556v.385z"/>
            <path fill="#76A83F" d="M5.589 8.713v-6.72C5.589.898 6.504 0 7.622 0H5.589C4.47 0 3.556.897 3.556 1.994v6.719c0 4.665 3.822 8.434 8.539 8.434.345 0 .69-.02 1.016-.06-4.249-.499-7.522-4.048-7.522-8.374z"/>
        </g>
        <path fill="#76A83F" d="M14.357 11.25L14.39 7.004 14.365 7.004 12.83 11.25 11.828 11.25 10.335 7.004 10.31 7.004 10.343 11.25 9 11.25 9 5.25 11.028 5.25 12.371 9.097 12.404 9.097 13.689 5.25 15.75 5.25 15.75 11.25z"/>
    </g>
</svg>
