<?xml version="1.0" encoding="UTF-8"?>
<svg width="88px" height="101px" viewBox="0 0 88 101" version="1.1" xmlns="http://www.w3.org/2000/svg" xmlns:xlink="http://www.w3.org/1999/xlink">
    <!-- Generator: Sketch 64 (93537) - https://sketch.com -->
    <title>Монетка</title>
    <desc>Created with Sketch.</desc>
    <defs>
        <linearGradient x1="50%" y1="2.90197724%" x2="79.6011449%" y2="80.5891392%" id="linearGradient-1">
            <stop stop-color="#FFEED2" offset="0%"></stop>
            <stop stop-color="#FFEABC" offset="32.1193503%"></stop>
            <stop stop-color="#E2BB64" offset="64.3357117%"></stop>
            <stop stop-color="#ECB12E" offset="100%"></stop>
        </linearGradient>
        <path d="M6.12476995,65.9263143 C18.2129081,86.8635837 45.0110073,94.0223744 65.9799999,81.915921 C86.9489924,69.8094675 94.1483474,43.0222374 82.0602092,22.084968 C69.9720711,1.14769856 43.1739719,-6.01109219 22.2049793,6.0953613 C1.23598678,18.2018148 -5.96336818,44.9890449 6.12476995,65.9263143 Z" id="path-2"></path>
        <path d="M5.88637207,65.3672429 C17.7400719,85.8984534 44.0184468,92.918406 64.5807652,81.046746 C85.1430835,69.175086 92.2028137,42.9073694 80.3491138,22.376159 C68.4954139,1.84494851 42.217039,-5.17500412 21.6547207,6.69665591 C1.09240233,18.5683159 -5.96732781,44.8360325 5.88637207,65.3672429 Z" id="path-4"></path>
        <linearGradient x1="71.6551504%" y1="91.844042%" x2="36.0710548%" y2="11.8640581%" id="linearGradient-6">
            <stop stop-color="#FFEFC1" stop-opacity="0.574784873" offset="0%"></stop>
            <stop stop-color="#F4C96E" offset="100%"></stop>
        </linearGradient>
        <path d="M34.8476947,10.421019 L1.51537347,10.421019 C0.678636739,10.421019 0,9.75821958 0,8.94041057 L0,1.53577163 C0,0.717962624 0.678636739,0.0541219019 1.51537347,0.0541219019 L34.8477657,0.0541219019 C35.6845025,0.0541219019 36.3636364,0.717893207 36.3636364,1.53577163 L36.3636364,8.94047999 C36.3636364,9.758289 35.6844314,10.421019 34.8476947,10.421019 Z" id="path-7"></path>
    </defs>
    <g id="Онбординг" stroke="none" stroke-width="1" fill="none" fill-rule="evenodd">
        <g id="Кэшбэк-/-Расширение-2.0-/-Онбординг-/-Знакомство,-переход-на-лэндинг" transform="translate(-337.000000, -441.000000)">
            <g id="Group-6" transform="translate(317.000000, 421.000000)">
                <g id="Монетка" transform="translate(20.000000, 20.000000)">
                    <ellipse id="Oval" fill-opacity="0.0531577797" fill="#000000" cx="44.0432903" cy="97.4545455" rx="22.0432903" ry="3.4545455"></ellipse>
                    <mask id="mask-3" fill="white">
                        <use xlink:href="#path-2"></use>
                    </mask>
                    <use id="Mask" fill="url(#linearGradient-1)" xlink:href="#path-2"></use>
                    <polygon id="Rectangle-18-Copy" fill="#F4DB9F" mask="url(#mask-3)" points="81.0136969 17.0840103 81.6490978 18.184557 75.9805679 21.4572842 75.345167 20.3567376"></polygon>
                    <polygon id="Rectangle-18-Copy-5" fill="#F4DB9F" mask="url(#mask-3)" points="86.3486547 25.9190695 86.9840557 27.0196162 81.3155257 30.2923434 80.6801248 29.1917968"></polygon>
                    <polygon id="Rectangle-18" fill="#F4DB9F" mask="url(#mask-3)" points="77.2627083 8.32090719 77.8981092 9.42145384 72.2295793 12.6941811 71.5941784 11.5936345"></polygon>
                    <polygon id="Rectangle-18" fill="#F4DB9F" mask="url(#mask-3)" points="72.9022707 5.96281127 73.5376717 7.06335793 67.8691417 10.3360852 67.2337408 9.23553854"></polygon>
                    <polygon id="Rectangle-18" fill="#F4DB9F" mask="url(#mask-3)" points="69.8145555 2.87743408 70.4499564 3.97798073 64.7814265 7.25070801 64.1460256 6.15016135"></polygon>
                    <polygon id="Rectangle-18" fill="#F4DB9F" mask="url(#mask-3)" points="63.9991697 1.97318608 64.6345706 3.07373274 58.9660407 6.34646001 58.3306398 5.24591335"></polygon>
                    <polygon id="Rectangle-18" fill="#F4DB9F" mask="url(#mask-3)" points="60.5474792 -0.385505366 61.1828801 0.71504129 55.5143502 3.98776856 54.8789493 2.88722191"></polygon>
                    <polygon id="Rectangle-18" fill="#F4DB9F" mask="url(#mask-3)" points="55.0953541 -0.926767811 55.730755 0.173778845 50.0622251 3.44650612 49.4268242 2.34595946"></polygon>
                    <polygon id="Rectangle-18" fill="#F4DB9F" mask="url(#mask-3)" points="51.4614377 -2.55889262 52.0968386 -1.45834597 46.4283087 1.81438131 45.7929078 0.713834652"></polygon>
                    <polygon id="Rectangle-18" fill="#F4DB9F" mask="url(#mask-3)" points="45.463707 -2.5549621 46.0991079 -1.45441544 40.430578 1.81831183 39.7951771 0.717765176"></polygon>
                    <polygon id="Rectangle-18" fill="#F4DB9F" mask="url(#mask-3)" points="39.2838696 -2.00607682 39.9192705 -0.905530162 34.2507406 2.36719711 33.6153397 1.26665045"></polygon>
                    <polygon id="Rectangle-18-Copy-6" fill="#F4DB9F" mask="url(#mask-3)" points="89.1013157 30.0439275 89.7367166 31.1444741 84.0681867 34.4172014 83.4327857 33.3166547"></polygon>
                    <polygon id="Rectangle-18-Copy-3" fill="#F4DB9F" mask="url(#mask-3)" points="84.4645007 20.7947775 85.0999016 21.8953241 79.4313717 25.1680514 78.7959708 24.0675048"></polygon>
                    <polygon id="Rectangle-18" fill="#F4DB9F" mask="url(#mask-3)" points="78.4785232 12.8260608 79.1139241 13.9266074 73.4453942 17.1993347 72.8099933 16.098788"></polygon>
                    <polygon id="Rectangle-18-Copy-8" fill="#F4DB9F" mask="url(#mask-3)" points="88.4965674 36.5640689 89.1319683 37.6646155 83.4634384 40.9373428 82.8280375 39.8367961"></polygon>
                    <polygon id="Rectangle-18-Copy-8" fill="#F4DB9F" mask="url(#mask-3)" points="90.3108457 41.4663986 90.9462466 42.5669453 85.2777167 45.8396726 84.6423158 44.7391259"></polygon>
                    <polygon id="Rectangle-18-Copy-8" fill="#F4DB9F" mask="url(#mask-3)" points="88.4895401 47.2791699 89.124941 48.3797166 83.4564111 51.6524439 82.8210102 50.5518972"></polygon>
                    <polygon id="Rectangle-18-Copy-8" fill="#F4DB9F" mask="url(#mask-3)" points="85.5740458 58.7226243 86.2094467 59.8231709 80.5409168 63.0958982 79.9055159 61.9953515"></polygon>
                    <polygon id="Rectangle-18-Copy-8" fill="#F4DB9F" mask="url(#mask-3)" points="83.0258616 64.3542601 83.6612625 65.4548068 77.9927326 68.7275341 77.3573317 67.6269874"></polygon>
                    <polygon id="Rectangle-18-Copy-8" fill="#F4DB9F" mask="url(#mask-3)" points="79.3652745 70.2754537 79.7999144 71.4696168 73.649199 73.7082941 73.2145592 72.514131"></polygon>
                    <polygon id="Rectangle-18-Copy-8" fill="#F4DB9F" mask="url(#mask-3)" points="87.3953513 52.909853 88.0307522 54.0103996 82.3622223 57.2831269 81.7268214 56.1825802"></polygon>
                    <mask id="mask-5" fill="white">
                        <use xlink:href="#path-4"></use>
                    </mask>
                    <use id="Mask" fill="#FDD36A" xlink:href="#path-4"></use>
                    <polygon id="Rectangle" fill="#F8BE4D" mask="url(#mask-5)" points="45.4491968 65.8708938 59.3259398 88 39.4789727 89.7142857"></polygon>
                    <path d="M14.1727546,59.6713679 C25.7632027,79.7466128 51.4579766,86.6106634 71.5636385,75.0026541 C91.6693004,63.3946448 98.5722452,37.7102925 86.9817972,17.6350476 C75.3913491,-2.44019728 49.6965752,-9.30424792 29.5909133,2.30376141 C9.48525134,13.9117707 2.58230659,39.596123 14.1727546,59.6713679 Z" id="Oval-21" fill="#FFFFFF" opacity="0.119999997" mask="url(#mask-5)"></path>
                    <path d="M18.5741214,34.1442161 L109.488278,34.1442161 C110.499988,34.1442161 111.320141,34.9643693 111.320141,35.9760796 C111.320141,36.9877899 110.499988,37.8079431 109.488278,37.8079431 L18.5741214,37.8079431 C17.5624111,37.8079431 16.7422578,36.9877899 16.7422578,35.9760796 C16.7422578,34.9643693 17.5624111,34.1442161 18.5741214,34.1442161 Z" id="Rectangle-14" fill="#FFFFFF" opacity="0.200000003" mask="url(#mask-5)" transform="translate(64.031200, 35.976080) rotate(-300.000000) translate(-64.031200, -35.976080) "></path>
                    <path d="M55.2986875,-7.90371096 L98.3921293,66.7363197 C99.5506846,68.7429963 98.8631464,71.3089238 96.8564698,72.4674791 C94.8497931,73.6260344 92.2838657,72.9384962 91.1253104,70.9318196 L48.0318686,-3.70821109 C46.8733133,-5.71488773 47.5608515,-8.2808152 49.5675281,-9.4393705 C51.5742048,-10.5979258 54.1401322,-9.9103876 55.2986875,-7.90371096 Z" id="Rectangle-14-Copy-2" fill="#FFFFFF" opacity="0.200000003" mask="url(#mask-5)"></path>
                    <path d="M55.6414218,50.1240825 C55.3856798,49.2568077 55.0753946,48.5019978 54.7109803,47.8610002 C54.346773,47.2193807 53.8251461,46.5935166 53.1450648,45.9813348 C52.4658114,45.3694641 51.8547628,44.876692 51.312954,44.5020857 C50.7714556,44.1271684 50.0276199,43.7079908 49.0818607,43.2440346 C48.1369295,42.780182 47.3882294,42.4350135 46.8371058,42.2080108 C46.2852577,41.9813191 45.4869823,41.6705638 44.4427972,41.2759522 C43.517013,40.9210402 42.8277204,40.6496735 42.3741948,40.4623703 C41.9211867,40.2748599 41.3254557,40.0086759 40.5866914,39.6631964 C39.8482375,39.3182352 39.2965964,39.012248 38.9320786,38.746064 C38.5676643,38.47988 38.1787211,38.1544058 37.7649385,37.7697451 C37.3511559,37.3850843 37.0606388,36.9756502 36.8930765,36.54165 C36.7259282,36.1075462 36.6420953,35.6339502 36.6420953,35.1209655 C36.6420953,33.7796801 37.2328584,32.6843661 38.4147986,31.8362674 C39.5968423,30.9881687 41.1237393,30.563912 42.9952826,30.563912 C43.8222268,30.563912 44.6653165,30.6772061 45.521654,30.9043124 C46.3779914,31.1314188 47.1118914,31.3872374 47.7226295,31.6735303 C48.3338851,31.9598232 48.909848,32.2755539 49.4517604,32.6206188 C49.9935692,32.9659946 50.3775445,33.2272032 50.6043073,33.4047628 C50.8308631,33.5824261 50.974414,33.7006956 51.03289,33.7599858 C51.2893565,33.9572397 51.5546204,34.0261698 51.8304409,33.9671906 C52.1258225,33.9474963 52.3525852,33.7894236 52.5105223,33.4938018 L54.9044169,29.1730799 C55.1407015,28.7786757 55.0918507,28.4037584 54.7567261,28.0484318 C54.6383251,27.9300587 54.4911518,27.7920949 54.3126188,27.6341259 C54.1358453,27.4761569 53.7515595,27.190175 53.1600719,26.7756618 C52.5692053,26.3614596 51.9437705,25.9915177 51.2842852,25.6659399 C50.6240753,25.340673 49.7669099,25.0100161 48.7128925,24.6747984 C47.6594961,24.3390624 46.570807,24.1123707 45.4476533,23.9941012 L45.4476533,18.7853738 C45.4476533,18.5093426 45.359163,18.2823399 45.1823895,18.1046766 C45.005202,17.9274279 44.7785427,17.8383889 44.5023082,17.8383889 L40.5128977,17.8383889 C40.2568452,17.8383889 40.0352573,17.9319887 39.848134,18.1194991 C39.6610107,18.3070096 39.5674491,18.5288296 39.5674491,18.7853738 L39.5674491,24.112267 C36.474533,24.7039252 33.9628584,26.0258273 32.0323215,28.0776623 C30.1019917,30.1296009 29.1364645,32.5164463 29.1364645,35.2393386 C29.1364645,36.0481524 29.2205044,36.8175775 29.3879632,37.5471995 C29.555215,38.2774434 29.7622098,38.9334708 30.0085335,39.5153855 C30.2546503,40.0977149 30.6044715,40.6696788 31.0574796,41.2321065 C31.5104877,41.7943269 31.9390704,42.2777701 32.3428137,42.6820215 C32.746764,43.0861692 33.2737727,43.5055542 33.9236328,43.9394507 C34.5739069,44.3737618 35.1304124,44.7242166 35.5934597,44.9904006 C36.0566106,45.2557554 36.6721096,45.5625719 37.4401637,45.9070148 C38.2084248,46.2524942 38.814402,46.5135992 39.2576814,46.6915735 C39.7009607,46.8689258 40.3066274,47.1158301 41.075199,47.4308352 C42.1388417,47.8451411 42.9269744,48.1658472 43.4390795,48.3928499 C43.9515985,48.6198526 44.6014587,48.9354797 45.3899018,49.3399384 C46.1776204,49.7439825 46.7535834,50.114028 47.1183082,50.4495567 C47.4827225,50.7850853 47.8125687,51.1993912 48.1082607,51.6924742 C48.4039528,52.1855573 48.5520576,52.7083891 48.5520576,53.2610733 C48.5520576,54.8197216 47.9462873,56.0229396 46.7344364,56.8706237 C45.5231029,57.7192407 44.1190573,58.1433937 42.523645,58.1433937 C41.7954374,58.1433937 41.0659878,58.0649274 40.3373661,57.9071657 C37.7764267,57.3935592 35.3830495,56.1604887 33.1570277,54.2074362 L33.0979307,54.1482497 C32.9205361,53.9318197 32.6840446,53.8428844 32.38887,53.8825839 C32.073617,53.9219725 31.8469577,54.0404493 31.7092027,54.2381179 L28.6655514,58.2329509 C28.3699629,58.6274588 28.3899378,59.0318139 28.7247519,59.4461197 C28.8233849,59.5645965 28.9957081,59.7425708 29.2418249,59.9789023 C29.4885627,60.2161668 29.9466421,60.5854868 30.6160632,61.0895571 C31.2856913,61.592902 32.0146235,62.0657725 32.8027561,62.5102417 C33.5907852,62.9539853 34.590363,63.3927536 35.8021105,63.8269611 C37.0138579,64.2604429 38.2693848,64.5661192 39.5696225,64.7435752 L39.5696225,69.9224502 C39.5696225,70.1793054 39.6632876,70.4010217 39.8503074,70.5886358 C40.0375342,70.7763536 40.2590186,70.8696424 40.5150712,70.8696424 L44.5044816,70.8696424 C44.7807161,70.8696424 45.0073754,70.781018 45.1844595,70.6036657 C45.3615435,70.4263133 45.4497233,70.1993106 45.4497233,69.9225539 L45.4497233,64.7436788 C48.5824858,64.2307978 51.1286251,62.8842261 53.0884517,60.7040672 C55.0484853,58.5239083 56.0288126,55.9245718 56.0288126,52.906265 C56.0277776,51.9199952 55.8999583,50.9927047 55.6414218,50.1240825 Z" id="Shape" fill="#FBC85F" fill-rule="nonzero" mask="url(#mask-5)" transform="translate(42.243316, 44.354016) rotate(-360.000000) translate(-42.243316, -44.354016) "></path>
                    <path d="M10.2918393,63.0155681 C-0.0603664962,45.0850216 6.10511603,22.1446055 24.06283,11.7767145 C42.0205439,1.40882351 64.9702684,7.5395671 75.3224742,25.4701136 C85.67468,43.40066 79.5091975,66.3410762 61.5514835,76.7089672 C43.5937696,87.0768581 20.6440452,80.9461146 10.2918393,63.0155681 Z M12.1813493,61.924659 C21.9319742,78.8132367 43.5480584,84.5877143 60.4622248,74.8223158 C77.3763913,65.0569172 83.1835891,43.4496003 73.4329642,26.5610226 C63.6823394,9.67244499 42.0662551,3.89796738 25.1520887,13.6633659 C8.23792227,23.4287644 2.43072444,45.0360814 12.1813493,61.924659 Z" id="Shape" fill="url(#linearGradient-6)" fill-rule="nonzero" mask="url(#mask-5)"></path>
                    <path d="M43.2258065,75.3548387 L43.2258065,73.904904 C43.9364682,73.904904 44.6440866,73.8801281 45.3478324,73.8308089 L45.4491968,75.2771961 C44.7117219,75.3288791 43.9702948,75.3548387 43.2258065,75.3548387 Z M47.6663734,75.042727 L47.4628149,73.6071523 C48.1656508,73.507493 48.8630809,73.3830504 49.5541437,73.2341816 L49.8594842,74.651601 C49.1347466,74.807724 48.4033681,74.9382242 47.6663734,75.042727 Z M52.019611,74.1047284 L51.6136782,72.7127767 C52.2941322,72.514337 52.9665486,72.2917786 53.6298655,72.0456116 L54.1343389,73.404956 C53.4386083,73.6631522 52.7333249,73.8965891 52.019611,74.1047284 Z M56.190798,72.5570517 L55.5906286,71.2371626 C56.2354599,70.94395 56.8694544,70.6278674 57.4914958,70.2895935 L58.1841876,71.563363 C57.5318932,71.9180889 56.8670394,72.2495567 56.190798,72.5570517 Z M60.107633,70.4266564 L59.3259398,69.2054821 C59.9223381,68.823718 60.5050575,68.4208759 61.0729868,67.9978005 L61.9391803,69.1605643 C61.3438009,69.6040884 60.732898,70.0264142 60.107633,70.4266564 Z M63.6686807,67.7749461 L62.7228768,66.6759622 C63.2597371,66.2139313 63.7801657,65.7330296 64.2831164,65.2342431 L65.3041044,66.2637548 C64.7769216,66.7865728 64.2314162,67.2906466 63.6686807,67.7749461 Z M66.8312073,64.6382517 L65.7400206,63.6834626 C66.206275,63.1506008 66.6535744,62.601437 67.0809919,62.0370524 L68.236868,62.9124158 C67.7888217,63.5040399 67.3199449,64.0796949 66.8312073,64.6382517 Z M69.5212111,61.0851397 L68.3060997,60.294055 C68.6924305,59.7006484 69.0576038,59.0937063 69.4008474,58.4743493 L70.6690511,59.1771793 C70.3091471,59.826599 69.9262634,60.4629768 69.5212111,61.0851397 Z M71.6822236,57.1840562 L70.3670113,56.5737061 C70.6648838,55.9318359 70.9398772,55.2792992 71.1913892,54.6171936 L72.5468242,55.1320786 C72.2830332,55.8265086 71.9946214,56.5108862 71.6822236,57.1840562 Z M73.2568403,53.0426387 L71.868323,52.6251097 C72.0719193,51.9480383 72.2514843,51.2631023 72.4065788,50.5713231 L73.8213923,50.8885194 C73.6587245,51.6140781 73.4703863,52.332479 73.2568403,53.0426387 Z M74.2306994,48.699595 L72.7968764,48.4840438 C72.9018672,47.7856561 72.9823036,47.0820405 73.0378872,46.3741023 L74.4833733,46.4875943 C74.4251072,47.2296984 74.3407794,47.9673548 74.2306994,48.699595 Z M74.5796049,44.2580528 L73.1297173,44.2463595 C73.1303793,44.1642798 73.1307104,44.0821595 73.1307104,44 C73.1307104,43.3724179 73.1113888,42.7471987 73.0729035,42.1249115 L74.5200734,42.0354116 C74.5604011,42.6874913 74.5806452,43.3425579 74.5806452,44 C74.5806452,44.0860574 74.5802983,44.1720754 74.5796049,44.2580528 Z M74.303843,39.8160777 L72.8666349,40.0077634 C72.7728386,39.3045041 72.6542712,38.6064984 72.5112813,37.9146989 L73.9312024,37.6212116 C74.0811564,38.3467039 74.2054915,39.0786646 74.303843,39.8160777 Z M73.4022218,35.455885 L72.0069296,35.8501824 C71.8142717,35.1684276 71.5974663,34.4945425 71.3570133,33.8295826 L72.7205397,33.3365243 C72.972744,34.0339817 73.2001471,34.7408073 73.4022218,35.455885 Z M71.8891237,31.2713067 L70.5642944,31.8604911 C70.2764594,31.2132705 69.9656689,30.5767202 69.6325918,29.9519548 L70.9120575,29.2698417 C71.2613398,29.925004 71.5872633,30.5925489 71.8891237,31.2713067 Z M69.7916178,27.3375586 L68.5640135,28.1091144 C68.1871563,27.5095058 67.7890993,26.9234148 67.3706784,26.3519548 L68.540547,25.4953812 C68.979198,26.0944706 69.3965137,26.7089177 69.7916178,27.3375586 Z M67.1687088,23.7539112 L66.0619995,24.6906637 C65.6045721,24.1502444 65.1281495,23.6260886 64.6337095,23.1192468 L65.6715874,22.1067645 C66.1898507,22.6380272 66.6892317,23.1874417 67.1687088,23.7539112 Z M64.0580178,20.5657237 L63.0943097,21.6490415 C62.5652758,21.1784186 62.0197837,20.7266127 61.4589107,20.2945589 L62.34374,19.1459128 C62.9316768,19.5988144 63.5034776,20.0724106 64.0580178,20.5657237 Z M60.5279313,17.8471419 L59.7268267,19.0556708 C59.1368238,18.6645722 58.5331293,18.2945006 57.9168622,17.9462374 L58.6302174,16.683924 C59.2763857,17.0490849 59.9093473,17.4370976 60.5279313,17.8471419 Z M56.6468256,15.6547603 L56.0254662,16.9648073 C55.3860257,16.6615187 54.7357483,16.3810274 54.075735,16.1239459 L54.6019868,14.7728835 C55.2942145,15.0425128 55.9762135,15.3366869 56.6468256,15.6547603 Z M52.5164144,14.0446589 L52.0873291,15.4296486 C51.4120054,15.2204258 50.7286586,15.035179 50.0383153,14.8743565 L50.3672837,13.4622338 C51.091345,13.6309113 51.8080847,13.8252104 52.5164144,14.0446589 Z M48.1807089,13.0345664 L47.9533286,14.4665611 C47.2558485,14.3558113 46.5529956,14.2695988 45.8456825,14.2082294 L45.9710141,12.7637216 C46.7125008,12.8280561 47.4493911,12.9184436 48.1807089,13.0345664 Z M43.7430066,12.6493427 L43.71955,14.0990877 C43.5551342,14.0964275 43.3905497,14.095096 43.2258065,14.095096 C42.6803768,14.095096 42.136724,14.1096903 41.5952204,14.1387763 L41.5174517,12.6909286 C42.0848513,12.6604517 42.6544362,12.6451613 43.2258065,12.6451613 C43.3983691,12.6451613 43.5707728,12.646556 43.7430066,12.6493427 Z M39.2991798,12.8887294 L39.4789727,14.3274737 C38.7744854,14.4155101 38.0751132,14.528363 37.3818029,14.6656912 L37.1000789,13.2433894 C37.8271359,13.0993768 38.5605064,12.9810379 39.2991798,12.8887294 Z M34.9322268,13.7539147 L35.3148506,15.1524531 C34.6311251,15.3395124 33.9551185,15.5507964 33.2878828,15.7858141 L32.8061854,14.4182329 C33.5060323,14.1717287 34.2150838,13.9501166 34.9322268,13.7539147 Z M30.7344441,15.2323154 L31.3125923,16.5619979 C30.6630858,16.8444044 30.0240812,17.1498455 29.3966907,17.4776626 L28.7252228,16.1925783 C29.383149,15.8488061 30.0532788,15.5284873 30.7344441,15.2323154 Z M26.7839779,17.2968038 L27.545336,18.5307587 C26.9426316,18.9026312 26.3532796,19.2958185 25.778395,19.709494 L24.9315167,18.532588 C25.5342051,18.0989054 26.1520808,17.6866884 26.7839779,17.2968038 Z M23.1779012,19.8907406 L24.1055365,21.0051029 C23.5612955,21.4581487 23.0331674,21.9303337 22.5222083,22.4206869 L21.5182608,21.3745511 C22.0538409,20.8605697 22.607422,20.365628 23.1779012,19.8907406 Z M19.9642238,22.9752569 L21.0396016,23.9478171 C20.5644716,24.4731772 20.1080331,25.0151627 19.67123,25.5726995 L18.5298662,24.6784963 C18.9877417,24.0940626 19.4661899,23.5259423 19.9642238,22.9752569 Z M17.2172358,26.4821471 L18.4191042,27.29321 C18.0230402,27.8801148 17.647896,28.4808826 17.2944632,29.0943943 L16.0380933,28.3706226 C16.4086682,27.7273546 16.8019926,27.0974725 17.2172358,26.4821471 Z M14.9923611,30.3457782 L16.2972159,30.9779686 C15.9886484,31.6148588 15.702788,32.2627508 15.4402568,32.920541 L14.0936137,32.3830812 C14.3689553,31.6931935 14.6687563,31.0137057 14.9923611,30.3457782 Z M13.3481469,34.4622972 L14.7295163,34.9028982 C14.5146268,35.5766183 14.3236697,36.2585251 14.1571023,36.9475859 L12.7477597,36.606904 C12.9224643,35.8841807 13.1227542,35.1689469 13.3481469,34.4622972 Z M12.3018817,38.7904683 L13.7319519,39.0296544 C13.6154351,39.7262968 13.5234448,40.4284593 13.4562939,41.135222 L12.0128597,40.9980785 C12.0832583,40.2571331 12.1797076,39.5209352 12.3018817,38.7904683 Z M11.8803833,43.2241512 L13.3298903,43.2593681 C13.3239014,43.5058634 13.3209025,43.7527521 13.3209025,44 C13.3209025,44.4621997 13.3313826,44.9231292 13.3522811,45.3825627 L11.9038441,45.4484486 C11.8819473,44.9670696 11.8709677,44.4841725 11.8709677,44 C11.8709677,43.7410114 11.8741093,43.4823828 11.8803833,43.2241512 Z M12.0833862,47.6686891 L13.523569,47.5008079 C13.60572,48.2055471 13.7126653,48.9053228 13.8440726,49.5991973 L12.41946,49.868993 C12.2816606,49.1413657 12.1695202,48.4075973 12.0833862,47.6686891 Z M12.9128524,52.0451357 L14.3145061,51.6740866 C14.4957772,52.3588458 14.7012859,53.0360546 14.9305515,53.7046682 L13.5590084,54.1749662 C13.3185368,53.4736723 13.1029825,52.7633603 12.9128524,52.0451357 Z M14.3556624,56.2530083 L15.6901107,55.685947 C15.9670394,56.3376352 16.2670757,56.9789917 16.5895714,57.6089073 L15.2989469,58.2696638 C14.9607494,57.6090786 14.6460937,56.9364717 14.3556624,56.2530083 Z M16.3870058,60.2199979 L17.6272311,59.4688974 C17.9940434,60.0745818 18.3822785,60.6670828 18.7911195,61.245284 L17.607244,62.0823919 C17.1786231,61.4762171 16.7715915,60.85503 16.3870058,60.2199979 Z M18.9517989,63.8483336 L20.0737417,62.9298809 C20.5222955,63.4778152 20.9901248,64.0097936 21.4762663,64.5247549 L20.4219291,65.520086 C19.9123603,64.9803085 19.4219813,64.4226884 18.9517989,63.8483336 Z M22.0078062,67.0853406 L22.989251,66.0180651 C23.5104691,66.4973667 24.0484564,66.9581328 24.6021445,67.3994126 L23.6984652,68.5332885 C23.1180713,68.0707247 22.5541465,67.587744 22.0078062,67.0853406 Z M25.4934922,69.8625523 L26.3144519,68.6674222 C26.8979938,69.0682693 27.4955591,69.4483214 28.1060303,69.8067779 L27.3718646,71.0571025 C26.7317958,70.6812668 26.105282,70.2828034 25.4934922,69.8625523 Z M29.3394531,72.1197912 L29.9824211,70.8202132 C30.6167783,71.1340623 31.2623041,71.425292 31.9178926,71.6932704 L31.36928,73.0354086 C30.6817104,72.7543576 30.0047139,72.4489298 29.3394531,72.1197912 Z M33.439035,73.7970607 L33.8912433,72.4194474 C34.5630612,72.639975 35.2432261,72.8366332 35.9307001,73.0089556 L35.5781655,74.4153801 C34.8571003,74.2346378 34.1436904,74.0283673 33.439035,73.7970607 Z M37.7593138,74.8798443 L38.0104215,73.4518192 C38.7061325,73.5741549 39.407513,73.6719799 40.1136356,73.7449737 L39.9645465,75.187223 C39.2242378,75.1106954 38.4888299,75.0081244 37.7593138,74.8798443 Z M42.1886711,75.3380019 L42.2357876,73.8888329 C42.5643384,73.899515 42.8936136,73.9048793 43.2235315,73.9049039 L43.2234236,75.3548386 C42.8778321,75.3548129 42.5328854,75.3491933 42.1886711,75.3380019 Z" id="Oval-17-Copy-14" fill="#F8C96F" fill-rule="nonzero" mask="url(#mask-5)"></path>
                    <path d="M28.1354107,33.9220779 C29.2717303,33.9220779 30.1928994,34.4713746 30.1928994,33.3333333 C30.1928994,32.195292 29.2717303,31.2727273 28.1354107,31.2727273 C26.9990911,31.2727273 26.0779221,32.195292 26.0779221,33.3333333 C26.0779221,34.4713746 26.9990911,33.9220779 28.1354107,33.9220779 Z" id="Oval-10-Copy-8" fill="#372929" mask="url(#mask-5)"></path>
                    <path d="M51.3556398,33.9220779 C52.4919594,33.9220779 53.4131285,34.4713746 53.4131285,33.3333333 C53.4131285,32.195292 52.4919594,31.2727273 51.3556398,31.2727273 C50.2193202,31.2727273 49.2981512,32.195292 49.2981512,33.3333333 C49.2981512,34.4713746 50.2193202,33.9220779 51.3556398,33.9220779 Z" id="Oval-10-Copy-9" fill="#372929" mask="url(#mask-5)"></path>
                    <path d="M37.8538617,37.3073593 L43.0486669,37.3073593 L43.0486669,40.9437229 C43.0486669,42.3782288 41.8857702,43.5411255 40.4512643,43.5411255 C39.0167585,43.5411255 37.8538617,42.3782288 37.8538617,40.9437229 L37.8538617,37.3073593 L37.8538617,37.3073593 Z" id="Rectangle-9" fill="#372929" mask="url(#mask-5)"></path>
                    <g id="gift" transform="translate(10.233766, 58.610390)">
                        <path d="M28.2847805,3.04360637 C27.1876851,1.02369669 25.8736166,0 24.3786173,0 C22.6577243,0 20.870502,1.38452639 19.064719,4.11709954 C18.8337175,4.4668791 18.6173199,4.81658783 18.4178284,5.1541839 C18.2183369,4.81658783 18.0019393,4.4668791 17.7704342,4.11709954 C15.9657303,1.38452639 14.1779325,0 12.4570395,0 C10.9621121,0 9.64746814,1.02369669 8.55094829,3.04360637 C7.73104036,4.55542192 8.02664461,5.64116942 8.41893714,6.28533616 C9.1258982,7.44630964 10.706363,8.22881568 13.2506171,8.67592151 C15.2041663,9.02010517 17.2713817,9.071035 18.3296291,9.071035 L18.3302047,9.071035 C18.3599881,9.071035 18.389196,9.071035 18.4179003,9.071035 C18.4471083,9.071035 18.4763162,9.071035 18.5061716,9.071035 C19.5644909,9.071035 21.6316344,9.02010517 23.5852555,8.67592151 C26.1289341,8.22881568 27.7093989,7.44630964 28.4175829,6.28533616 C28.8085805,5.64116942 29.1053358,4.55542192 28.2847805,3.04360637 Z" id="Shape" fill="#336584" fill-rule="nonzero"></path>
                        <path d="M26.8392602,4.20306341 C25.8948701,2.48444612 24.7637076,1.61344538 23.4767981,1.61344538 C21.9954371,1.61344538 20.4569793,2.79145399 18.9025442,5.11643292 C18.7036959,5.4140389 18.5174188,5.71158461 18.3456947,5.99882441 C18.1739705,5.71158461 17.9876934,5.4140389 17.7884116,5.11643292 C16.2349055,2.79145399 14.6959522,1.61344538 13.2145912,1.61344538 C11.9277437,1.61344538 10.7960857,2.48444612 9.85219105,4.20306341 C9.14640655,5.48937456 9.40086549,6.41317053 9.7385546,6.9612525 C10.3471134,7.94905364 11.7075924,8.61484005 13.8977104,8.99525499 C15.5793439,9.28809976 17.3588225,9.33143283 18.2697719,9.33143283 L18.2702673,9.33143283 C18.2959052,9.33143283 18.3210476,9.33143283 18.3457566,9.33143283 C18.370899,9.33143283 18.3960415,9.33143283 18.4217413,9.33143283 C19.3327526,9.33143283 21.1121692,9.28809976 22.7938647,8.99525499 C24.9834873,8.61484005 26.3439663,7.94905364 26.9535778,6.9612525 C27.2901523,6.41317053 27.545602,5.48937456 26.8392602,4.20306341 Z" id="Shape-Copy" fill="#FFFFFF" fill-rule="nonzero" opacity="0.196274909"></path>
                        <path d="M25.9514807,4.73910625 C25.1058031,3.20012745 24.0928753,2.42016807 22.94048,2.42016807 C21.6139583,2.42016807 20.2363078,3.47504532 18.84435,5.55700581 C18.6662864,5.82350453 18.4994799,6.08994927 18.3457052,6.34716533 C18.1919305,6.08994927 18.025124,5.82350453 17.8466722,5.55700581 C16.4555463,3.47504532 15.0774521,2.42016807 13.7509304,2.42016807 C12.5985906,2.42016807 11.5852192,3.20012745 10.7399851,4.73910625 C10.1079728,5.89096572 10.3358344,6.71820191 10.6382265,7.20899562 C11.1831757,8.09354684 12.4014506,8.68974192 14.3626465,9.03039398 C15.8685073,9.29262915 17.4619859,9.33143283 18.2777183,9.33143283 L18.2781619,9.33143283 C18.30112,9.33143283 18.3236344,9.33143283 18.3457607,9.33143283 C18.3682751,9.33143283 18.3907895,9.33143283 18.4138031,9.33143283 C19.2295909,9.33143283 20.823014,9.29262915 22.3289303,9.03039398 C24.2896825,8.68974192 25.5079575,8.09354684 26.0538493,7.20899562 C26.3552433,6.71820191 26.5839922,5.89096572 25.9514807,4.73910625 Z" id="Shape-Copy-11" fill="#0C3B5E" fill-rule="nonzero"></path>
                        <path d="M34.0023613,14.4876925 C34.0023613,13.6430758 33.3277777,12.9586214 32.4966637,12.9586214 L3.90562184,12.9586214 C3.07457835,12.9586214 2.40062967,13.6430758 2.40062967,14.4876925 L2.40062967,32.5953703 C2.40062967,33.4399871 3.07457835,34.1243697 3.90562184,34.1243697 L32.4967342,34.1243697 C33.3277777,34.1243697 34.0023613,33.4399871 34.0023613,32.5953703 L34.0023613,14.4876925 L34.0023613,14.4876925 Z" id="Shape" fill="#FFDF08" fill-rule="nonzero"></path>
                        <g id="Rectangle-path-Copy-3" transform="translate(0.000000, 6.857143)">
                            <mask id="mask-8" fill="white">
                                <use xlink:href="#path-7"></use>
                            </mask>
                            <use id="Mask" fill="#FCDD00" fill-rule="nonzero" xlink:href="#path-7"></use>
                            <polygon fill="#FFFFFF" fill-rule="nonzero" opacity="0.306951993" mask="url(#mask-8)" points="0.236127509 -6.1807537 39.1971665 -1.21234298 39.0549729 6.73711418 0.236127509 0.77502131"></polygon>
                        </g>
                        <polygon id="Rectangle-path" fill="#336584" fill-rule="nonzero" points="14.7815821 6.85714286 22.5737898 6.85714286 22.5737898 17.22404 14.7815821 17.22404"></polygon>
                        <polygon id="Rectangle-path-Copy" fill="#FFFFFF" fill-rule="nonzero" opacity="0.306951993" points="14.7815821 7.2605042 22.5737898 7.2605042 22.5737898 9.56323795 14.7815821 9.56323795"></polygon>
                        <polygon id="Shape" fill="#E9C000" fill-rule="nonzero" points="2.40062967 18.5546218 34.0023613 22.0296564 34.0023613 17.7101159 2.40062967 17.7101159"></polygon>
                        <polygon id="Rectangle-path" fill="#336584" fill-rule="nonzero" points="14.9547422 17.7101159 22.74695 17.7101159 22.74695 34.1243697 14.9547422 34.1243697"></polygon>
                        <polygon id="Shape" fill="#0C3B5E" fill-rule="nonzero" points="14.9547422 20.0909504 22.74695 20.7337943 22.74695 17.7101159 14.9547422 17.7101159"></polygon>
                        <polygon id="Rectangle-path-Copy-2" fill="#FFFFFF" fill-rule="nonzero" opacity="0.306951993" points="2.36127509 21.7536946 33.9918667 25.787308 33.8764266 32.2410895 2.36127509 27.4007534"></polygon>
                    </g>
                </g>
            </g>
        </g>
    </g>
</svg>