<?xml version="1.0" encoding="UTF-8"?>
<svg width="10px" height="10px" viewBox="0 0 10 10" version="1.1" xmlns="http://www.w3.org/2000/svg" xmlns:xlink="http://www.w3.org/1999/xlink">
    <!-- Generator: Sketch 64 (93537) - https://sketch.com -->
    <title>cancel</title>
    <desc>Created with Sketch.</desc>
    <g id="Онбординг" stroke="none" stroke-width="1" fill="none" fill-rule="evenodd">
        <g id="Кэшбэк-/-Расширение-2.0-/-Онбординг-/-Знакомство,-переход-на-лэндинг" transform="translate(-792.000000, -431.000000)" fill="#FFFFFF" fill-rule="nonzero">
            <g id="Group-6" transform="translate(317.000000, 421.000000)">
                <path d="M484.751443,11.4486457 C485.082852,11.1172417 485.082852,10.5799544 484.751443,10.2485503 C484.420037,9.91714989 483.882753,9.91714989 483.551347,10.2485503 L479.999978,13.7998625 L476.448631,10.2491153 C476.117247,9.91773694 475.579963,9.91773694 475.248557,10.2491374 C474.917148,10.5805414 474.917148,11.1178287 475.248557,11.4492327 L478.799895,15.0005137 L475.249144,18.5512075 C474.917735,18.8826116 474.917735,19.4198989 475.249144,19.7513029 C475.411345,19.9124016 475.626173,20 475.848899,20 C476.072626,20 476.288763,19.9122892 476.449636,19.7503162 L480,16.2000126 L483.551347,19.7513029 C483.713548,19.9124016 483.928376,20 484.151101,20 C484.374828,20 484.590966,19.9122892 484.751839,19.7503162 C485.082265,19.4198989 485.082265,18.8826116 484.750856,18.5512075 L481.200083,14.9999487 L484.751443,11.4486457 Z" id="cancel"></path>
            </g>
        </g>
    </g>
</svg>