<svg xmlns="http://www.w3.org/2000/svg" width="14" height="15" viewBox="0 0 14 15">
    <path fill="#A0AAB4" fill-rule="evenodd" stroke="#A0AAB4" stroke-width=".3" d="M7 1c.69 0 1.252.593 1.252 1.322v.12c1.725.564 2.98 2.265 2.98 4.27v3.227c1.017.245 1.76 1.206 1.767 2.328l.001.277H9.087c-.267.973-1.113 1.656-2.09 1.656-.97 0-1.824-.686-2.091-1.655H1l.001-.278c.006-1.122.75-2.083 1.767-2.328V6.71c0-2.004 1.255-3.704 2.98-4.27v-.119C5.748 1.593 6.309 1 7 1zm1.536 11.545H5.457c.247.654.854 1.103 1.54 1.103.69 0 1.294-.448 1.539-1.103zM7 1.552c-.398 0-.723.339-.73.757.238-.044.481-.067.73-.067.248 0 .492.023.729.066v.014c0-.424-.327-.77-.729-.77zm-5.455 10.44h10.91c-.12-.802-.733-1.446-1.516-1.548l-.23-.03V6.712c0-2.16-1.663-3.917-3.71-3.917-2.045 0-3.709 1.757-3.709 3.917v3.703l-.23.03c-.782.102-1.395.746-1.515 1.548z"/>
</svg>
