<svg xmlns="http://www.w3.org/2000/svg" xmlns:xlink="http://www.w3.org/1999/xlink" width="32" height="26" viewBox="0 0 32 26">
    <defs>
        <path id="prefix__a" d="M0 0h5.238v6.995c0 1.447-1.172 2.62-2.619 2.62C1.173 9.614 0 8.441 0 6.994V0z"/>
        <path id="prefix__c" d="M2.357 0v5.976C1.055 5.976 0 4.921 0 3.62V2.357C0 1.055 1.055 0 2.357 0z"/>
        <path id="prefix__e" d="M7.483 5.84h2.88l6.532-4.48c.894-.614 1.93-.988 3.01-1.086.83-.076 1.563.536 1.639 1.366.004.045.006.091.006.137v18.77c0 .797-.646 1.443-1.442 1.443-.068 0-.136-.005-.204-.014-1.084-.155-2.12-.55-3.031-1.156l-6.51-4.326h-2.88C2.494 16.101 0 14.32 0 11.15c0-3.17 2.494-4.94 7.483-5.31z"/>
        <path id="prefix__g" d="M0 0H2.095V11.173H0z"/>
    </defs>
    <g fill="none" fill-rule="evenodd">
        <path fill="#E7F0F4" fill-rule="nonzero" d="M28.506 4.903C30.686 6.513 32 9.053 32 11.81s-1.313 5.299-3.494 6.909c-.33.243-.795.174-1.04-.155-.243-.328-.174-.792.156-1.036 1.806-1.333 2.892-3.435 2.892-5.718s-1.086-4.384-2.892-5.718c-.33-.243-.4-.707-.155-1.036.244-.328.71-.398 1.04-.154zM26.13 7.69c1.3.96 2.084 2.476 2.084 4.12 0 1.645-.784 3.16-2.084 4.12-.33.244-.795.175-1.04-.154-.244-.328-.174-.792.155-1.036.926-.683 1.483-1.76 1.483-2.93 0-1.17-.557-2.246-1.483-2.93-.33-.243-.399-.707-.154-1.036.244-.329.709-.398 1.039-.154z"/>
        <g>
            <g transform="translate(3.143 15.495)">
                <mask id="prefix__b" fill="#fff">
                    <use xlink:href="#prefix__a"/>
                </mask>
                <use fill="#E9C000" xlink:href="#prefix__a"/>
                <path fill="#FFDF08" d="M-1.209-.6L4.03 2.958v3.437c0 1.447-1.172 2.62-2.619 2.62-1.446 0-2.619-1.173-2.619-2.62V-.6z" mask="url(#prefix__b)"/>
            </g>
            <g transform="translate(21.155 8.859)">
                <mask id="prefix__d" fill="#fff">
                    <use xlink:href="#prefix__c"/>
                </mask>
                <use fill="#40596B" transform="rotate(-180 1.179 2.988)" xlink:href="#prefix__c"/>
                <path fill="#6C8698" d="M2.357-1.2v5.977C1.055 4.777 0 3.722 0 2.42V1.158C0-.144 1.055-1.199 2.357-1.199z" mask="url(#prefix__d)" transform="rotate(-180 1.179 1.789)"/>
                <path fill="#FFF" d="M0 .524c.329.808 1.115 1.336 1.987 1.336h.37v.88h-.14C.993 2.74 0 1.749 0 .525z" mask="url(#prefix__d)" opacity=".425" transform="rotate(-180 1.179 1.632)"/>
            </g>
            <mask id="prefix__f" fill="#fff">
                <use xlink:href="#prefix__e"/>
            </mask>
            <use fill="#E9C000" xlink:href="#prefix__e"/>
            <path fill="#FFDF08" d="M7.782 4.64h4.19L17.91-.82l1.811-.118c1.103-.071 2.054.765 2.125 1.867.003.043.005.086.005.13v16.419c0 1.022-.83 1.85-1.851 1.85-.04 0-.08 0-.12-.003-1.298-.084-2.563-.447-3.708-1.064l-5.432-2.926-2.957-.04c-5.39.118-8.084-2.218-8.084-7.006 0-4.789 2.695-6.005 8.084-3.648z" mask="url(#prefix__f)"/>
            <path fill="#FFF" d="M10.88 7.926l4.748-3.616c1.582-1.205 3.475-1.933 5.456-2.1v2.739c-1.987 0-3.938.529-5.652 1.532L10.88 9.146v-1.22z" mask="url(#prefix__f)" opacity=".688"/>
            <path fill="#FFF" d="M17.207 3.107c.55-.42 1.21-.673 1.899-.73l.954-.081 1.024-.086v2.739h-2.135c-.595 0-1.184.105-1.742.312V3.107zM.604 9.758C1.6 8.08 3.368 7.011 5.317 6.91L8.16 6.76v1.5l-2.444.142C3.938 8.506 2.2 8.967.604 9.758z" mask="url(#prefix__f)"/>
            <g transform="translate(8.462 5.56)">
                <mask id="prefix__h" fill="#fff">
                    <use xlink:href="#prefix__g"/>
                </mask>
                <use fill="#40596B" xlink:href="#prefix__g"/>
                <path fill="#6C8698" d="M0 0.6L2.095 0.6 2.095 8.475 0 8.475z" mask="url(#prefix__h)"/>
                <path fill="#FFF" d="M0 2.099H2.095V3.5980000000000003H0z" mask="url(#prefix__h)"/>
            </g>
        </g>
    </g>
</svg>
