<?xml version="1.0" encoding="UTF-8"?>
<svg width="8px" height="13px" viewBox="0 0 8 13" version="1.1" xmlns="http://www.w3.org/2000/svg" xmlns:xlink="http://www.w3.org/1999/xlink">
    <!-- Generator: Sketch 64 (93537) - https://sketch.com -->
    <title>Combined Shape Copy 4</title>
    <desc>Created with Sketch.</desc>
    <g id="Макеты" stroke="none" stroke-width="1" fill="none" fill-rule="evenodd">
        <g id="Кэшбэк-/-Расширение-2.0-/-Экран-о-товаре-/-Плохой-рейтинг-и-нет-отзывов-о-продавце" transform="translate(-820.000000, -568.000000)" fill="#FF7877" fill-rule="nonzero">
            <g id="Rectangle-Copy-11-+-Group-15-+-Rectangle-+-Group-12-+-Group-13-+-Rectangle-Copy-2-+-Group-17-+-Кэшбэк-в-Joom-не-акт-Mask" transform="translate(316.000000, 57.000000)">
                <g id="Group-9" transform="translate(247.000000, 344.000000)">
                    <g id="Group-10" transform="translate(119.017265, 52.500000)">
                        <path d="M142.522239,114.72347 L145.759265,117.960496 C146.057225,118.258456 146.057225,118.741544 145.759265,119.039504 C145.461305,119.337464 144.978217,119.337464 144.680257,119.039504 L142.744735,117.103 L142.745709,126.129743 C142.745709,126.551122 142.404114,126.892717 141.982735,126.892717 C141.561356,126.892717 141.219761,126.551122 141.219761,126.129743 L141.219735,117.105 L139.285214,119.039504 C138.987254,119.337464 138.504165,119.337464 138.206205,119.039504 C137.908245,118.741544 137.908245,118.258456 138.206205,117.960496 L141.443231,114.72347 C141.741191,114.42551 142.224279,114.42551 142.522239,114.72347 Z" id="Combined-Shape-Copy-4"></path>
                    </g>
                </g>
            </g>
        </g>
    </g>
</svg>