<svg xmlns="http://www.w3.org/2000/svg" width="13" height="15" viewBox="0 0 13 15">
    <path fill="#000" fill-rule="evenodd" d="M11.59 0C12.37 0 13 .617 13 1.377v13.01c0 .462-.504.758-.921.54L9.437 13.55l-2.642 1.377c-.184.096-.406.096-.59 0L3.563 13.55.921 14.927c-.417.218-.921-.078-.921-.54V1.377C0 .617.631 0 1.41 0h10.18zm0 1.224H1.41c-.087 0-.157.069-.157.153v11.99l2.015-1.05c.185-.097.406-.097.59 0L6.5 13.692l2.642-1.377c.184-.096.405-.096.59 0l2.015 1.05V1.378c0-.084-.07-.153-.157-.153zm-4.698 7.82V10.2H2.976V9.045h3.916zM9.669 6.36v1.155H2.976V6.359h6.693zm0-2.686v1.155H2.976V3.673h6.693z"/>
</svg>
