<svg xmlns="http://www.w3.org/2000/svg" width="15" height="15" viewBox="0 0 15 15">
    <path fill="#000" fill-rule="evenodd" d="M3.157 8.684c.425 0 .77.345.77.77v1.618h1.62c.424 0 .769.345.769.77 0 .425-.345.77-.77.77H3.927v1.618c0 .425-.345.77-.768.77-.207 0-.402-.082-.546-.225-.143-.143-.224-.337-.225-.544v-1.62H.77c-.207.001-.401-.081-.545-.224-.143-.143-.224-.337-.225-.545 0-.425.345-.77.77-.77h1.618V9.455c0-.425.344-.77.77-.77zm8.29-.79c1.875 0 3.395 1.52 3.395 3.395s-1.52 3.395-3.395 3.395c-1.874 0-3.394-1.52-3.394-3.395 0-1.874 1.52-3.394 3.394-3.394zm0 1.264c-1.177 0-2.131.954-2.131 2.131 0 1.178.954 2.132 2.131 2.132 1.178 0 2.132-.954 2.132-2.132 0-1.177-.954-2.131-2.132-2.131zM3.553 0c1.874 0 3.394 1.52 3.394 3.395s-1.52 3.394-3.394 3.394C1.678 6.79.158 5.27.158 3.395.158 1.52 1.678 0 3.553 0zm7.894 0c1.875 0 3.395 1.52 3.395 3.395s-1.52 3.394-3.395 3.394c-1.874 0-3.394-1.52-3.394-3.394C8.053 1.52 9.573 0 11.447 0zM3.553 1.263c-1.178 0-2.132.954-2.132 2.132 0 1.177.954 2.131 2.132 2.131 1.177 0 2.131-.954 2.131-2.131 0-1.178-.954-2.132-2.131-2.132zm7.894 0c-1.177 0-2.131.954-2.131 2.132 0 1.177.954 2.131 2.131 2.131 1.178 0 2.132-.954 2.132-2.131 0-1.178-.954-2.132-2.132-2.132z"/>
</svg>
