<svg xmlns="http://www.w3.org/2000/svg" width="16" height="16" viewBox="0 0 16 16">
    <path fill="#000" fill-rule="evenodd" stroke="#000" stroke-width=".3" d="M8 14.391c3.53 0 6.391-2.861 6.391-6.391S11.53 1.609 8 1.609 1.609 4.47 1.609 8 4.47 14.391 8 14.391zM8 1c3.866 0 7 3.134 7 7s-3.134 7-7 7-7-3.134-7-7 3.134-7 7-7zm.497 8.736h-1.03v1.08h1.03v-1.08zm-.53-4.749c-.541 0-.99.154-1.348.463-.358.309-.55.704-.578 1.185h0l.94.123c.129-.632.467-.949 1.017-.949.255 0 .467.072.635.215.168.144.252.327.252.55 0 .136-.033.255-.098.357-.066.103-.26.292-.584.569-.291.246-.487.471-.588.676-.101.205-.152.473-.152.803h0l.005.246h.931c-.006-.297.017-.503.07-.618.051-.116.186-.268.402-.458.422-.366.697-.655.825-.866.128-.211.192-.435.192-.67 0-.464-.183-.851-.549-1.161-.365-.31-.823-.465-1.372-.465z"/>
</svg>
