<svg xmlns="http://www.w3.org/2000/svg" width="14" height="12" viewBox="0 0 14 12">
    <path fill-rule="evenodd" d="M10.267 3.733C12.329 3.733 14 5.405 14 7.467c0 2.062-1.671 3.733-3.733 3.733-2.062 0-3.734-1.671-3.734-3.733 0-2.062 1.672-3.734 3.734-3.734zm0 1.39c-1.295 0-2.345 1.049-2.345 2.344 0 1.294 1.05 2.344 2.345 2.344 1.294 0 2.344-1.05 2.344-2.344 0-1.295-1.05-2.345-2.344-2.345zM3.182 7.777c.4 0 .726.348.726.778 0 .43-.325.777-.726.777H.726C.325 9.333 0 8.985 0 8.556c0-.43.325-.778.726-.778zm1.291-3.89c.401 0 .726.35.726.779 0 .43-.325.777-.726.777H.726C.325 5.444 0 5.096 0 4.667c0-.43.325-.778.726-.778zM12.341 0c.4 0 .726.348.726.778 0 .43-.325.778-.726.778H.726C.325 1.556 0 1.207 0 .778 0 .348.325 0 .726 0z"/>
</svg>
