<svg xmlns="http://www.w3.org/2000/svg" width="18" height="19" viewBox="0 0 18 19">
    <path fill="#000" fill-rule="evenodd" stroke="#000" stroke-width=".3" d="M12.034 2.944l.458-.76c.103-.184.332-.246.519-.144.187.103.25.329.146.513l-.458.76c-.061.122-.207.183-.333.183-.061 0-.125-.02-.186-.042-.189-.1-.25-.324-.146-.51zm-6.733.37c.061.123.207.184.333.184.061 0 .125-.02.186-.042.187-.102.25-.328.146-.512l-.458-.76C5.405 2 5.176 1.939 4.99 2.04c-.187.103-.25.329-.146.513l.458.761zm3.698-.697c.208 0 .373-.163.373-.368v-.88C9.372 1.162 9.207 1 9 1s-.373.163-.373.368v.881c-.021.203.144.368.373.368zM2.266 8.5h-.893c-.208 0-.373.163-.373.368s.165.369.373.369h.893c.208 0 .373-.164.373-.369S2.474 8.5 2.266 8.5zm14.36 0h-.892c-.208 0-.373.163-.373.368s.165.369.373.369h.893c.208 0 .373-.164.373-.369s-.165-.368-.373-.368zm-.686-3.567c-.104-.184-.333-.247-.52-.144l-.77.452c-.186.102-.25.328-.146.512.062.124.208.184.333.184.062 0 .125-.02.187-.041l.77-.452c.188-.1.25-.327.146-.51zm-2.036 3.895c0 .841-.23 1.661-.645 2.4-.02.06-.042.102-.082.144l-.043.06c-.165.248-.333.493-.54.698-.728 1.004-1.101 1.866-1.082 2.418v.02c0 .043.021.103.021.164v1.764c0 .778-.644 1.393-1.412 1.393H7.816c-.79 0-1.413-.636-1.413-1.393v-1.764-.102-.082c.021-.533-.354-1.374-1.039-2.358-.229-.246-.458-.512-.623-.82-.021-.041-.043-.06-.062-.102-.437-.739-.666-1.58-.666-2.419 0-2.686 2.225-4.878 4.946-4.878 2.72-.021 4.945 2.171 4.945 4.857zM7.17 14.937v1.196c0 .552.448 1 1 1h1.562c.552 0 1-.448 1-1v-1.196h0H7.17zm5.963-6.109c0-2.276-1.87-4.12-4.177-4.12-2.308 0-4.178 1.844-4.178 4.12 0 .739.208 1.456.581 2.092h0v.021c.166.266.354.513.562.739l.042.041c.686.965 1.082 1.785 1.186 2.46h3.637c.125-.84.706-1.803 1.225-2.52 0-.021.022-.021.043-.042.186-.184.354-.41.477-.636 0-.02.021-.02.021-.042 0-.02.021-.02.021-.042.374-.615.56-1.332.56-2.07zM3.348 5.241l-.77-.452c-.187-.103-.416-.042-.52.144-.104.184-.042.41.147.513l.77.452c.06.041.124.041.186.041.125 0 .27-.06.333-.184.102-.186.04-.412-.146-.514z"/>
</svg>
