<svg xmlns="http://www.w3.org/2000/svg" width="14" height="15" viewBox="0 0 14 15">
    <path fill="#000" fill-rule="evenodd" stroke="#000" stroke-width=".5" d="M12.601 1c.22 0 .399.18.399.4h0v12.515c0 .221-.179.4-.399.4h0-3.453c-.22 0-.399-.179-.399-.4 0-.22.179-.4.399-.4h3.055V1.8H9.148c-.22 0-.399-.18-.399-.4 0-.22.179-.4.399-.4h0zM6.088 4.673c.154-.157.406-.158.56 0h0l2.739 2.796c.154.155.152.415 0 .57h0l-2.738 2.796c-.155.158-.406.158-.561 0-.155-.157-.155-.413 0-.57h0L8.15 8.157H1.397c-.22 0-.397-.18-.397-.403 0-.223.178-.404.397-.404H8.15L6.088 5.243c-.155-.157-.155-.413 0-.57z"/>
</svg>
