<?xml version="1.0" encoding="UTF-8"?>
<svg width="14px" height="12px" viewBox="0 0 14 12" version="1.1" xmlns="http://www.w3.org/2000/svg" xmlns:xlink="http://www.w3.org/1999/xlink">
    <!-- Generator: Sketch 64 (93537) - https://sketch.com -->
    <title>Combined Shape</title>
    <desc>Created with Sketch.</desc>
    <g id="Онбординг" stroke="none" stroke-width="1" fill="none" fill-rule="evenodd">
        <g id="Кэшбэк-/-Расширение-2.0-/-Онбординг-/-Знакомство,-переход-на-лэндинг" transform="translate(-335.000000, -214.000000)" fill="#000000">
            <g id="Rectangle-Copy-11-+-Group-15-+-Rectangle-+-Group-12-+-Group-13-+-Rectangle-Copy-2-+-Group-17-+-Кэшбэк-в-Joom-не-акт-Mask" transform="translate(316.000000, 58.242641)">
                <g id="Group-13" transform="translate(0.000000, 7.757359)">
                    <path d="M29.2666667,151.733333 C31.3285297,151.733333 33,153.404804 33,155.466667 C33,157.52853 31.3285297,159.2 29.2666667,159.2 C27.2048036,159.2 25.5333333,157.52853 25.5333333,155.466667 C25.5333333,153.404804 27.2048036,151.733333 29.2666667,151.733333 Z M29.2666667,153.122481 C27.9720085,153.122481 26.9224806,154.172008 26.9224806,155.466667 C26.9224806,156.761325 27.9720085,157.810853 29.2666667,157.810853 C30.5613249,157.810853 31.6108527,156.761325 31.6108527,155.466667 C31.6108527,154.172008 30.5613249,153.122481 29.2666667,153.122481 Z M22.1818417,155.777778 C22.5827595,155.777778 22.9077676,156.126001 22.9077676,156.555556 C22.9077676,156.98511 22.5827595,157.333333 22.1818417,157.333333 L22.1818417,157.333333 L19.7259259,157.333333 C19.3250081,157.333333 19,156.98511 19,156.555556 C19,156.126001 19.3250081,155.777778 19.7259259,155.777778 L19.7259259,155.777778 Z M23.47339,151.888889 C23.8743078,151.888889 24.1993159,152.237112 24.1993159,152.666667 C24.1993159,153.096221 23.8743078,153.444444 23.47339,153.444444 L23.47339,153.444444 L19.7259259,153.444444 C19.3250081,153.444444 19,153.096221 19,152.666667 C19,152.237112 19.3250081,151.888889 19.7259259,151.888889 L19.7259259,151.888889 Z M31.3407407,148 C31.7416586,148 32.0666667,148.348223 32.0666667,148.777778 C32.0666667,149.207333 31.7416586,149.555556 31.3407407,149.555556 L31.3407407,149.555556 L19.7259259,149.555556 C19.3250081,149.555556 19,149.207333 19,148.777778 C19,148.348223 19.3250081,148 19.7259259,148 L19.7259259,148 Z" id="Combined-Shape"></path>
                </g>
            </g>
        </g>
    </g>
</svg>