<svg xmlns="http://www.w3.org/2000/svg" width="12" height="20" viewBox="0 0 12 20">
    <path fill-rule="evenodd" d="M6.051.928c-.28.005-.51.235-.515.515l-.039.627L.069 7.498l-.062 9.77c-.01.476.167.92.497 1.25.33.33.774.506 1.25.497l8.358.001c.491-.01.94-.217 1.268-.546.33-.33.54-.782.55-1.278l.062-9.656L6.507 2.05l.039-.627c.006-.28-.216-.5-.495-.495zM10.98 7.98l-.06 9.24c-.009.425-.362.778-.788.786l-8.554.055c-.426.008-.765-.331-.757-.76l.252-9.406 4.396-4.397-.064 2.858c-.47.105-.923.34-1.293.711-1.004 1.004-1.036 2.606-.07 3.57.964.966 2.566.934 3.57-.07s1.035-2.605.07-3.57c-.356-.356-.8-.575-1.267-.66l.064-2.859 4.5 4.502zm-4.026-.255c.579.579.56 1.54-.042 2.142-.602.602-1.564.621-2.143.042-.579-.579-.56-1.54.043-2.142.168-.168.365-.286.573-.362l-.028 1.422c-.006.28.216.5.495.495.139-.003.267-.062.36-.155.093-.093.152-.22.155-.36l.028-1.422c.205.068.397.178.559.34z"/>
</svg>
