<svg xmlns="http://www.w3.org/2000/svg" width="18" height="14" viewBox="0 0 18 14">
    <path fill="#282828" d="M17.23 1.657c-.64.281-1.323.468-2.035.558.733-.437 1.292-1.124 1.554-1.952-.682.407-1.436.694-2.24.855C13.861.428 12.937 0 11.93 0 9.973 0 8.4 1.587 8.4 3.533c0 .28.024.55.082.806C5.544 4.196 2.945 2.789 1.2.644.895 1.173.716 1.778.716 2.43c0 1.223.63 2.307 1.57 2.935-.568-.01-1.125-.175-1.597-.435v.039c0 1.717 1.225 3.142 2.83 3.47-.287.08-.6.117-.926.117-.226 0-.454-.013-.669-.06.458 1.399 1.757 2.427 3.301 2.46-1.202.94-2.728 1.507-4.38 1.507-.29 0-.567-.013-.845-.048C1.565 13.424 3.42 14 5.42 14c6.5 0 10.053-5.385 10.053-10.052 0-.156-.005-.307-.013-.457.701-.497 1.29-1.119 1.77-1.834z"/>
</svg>
