<svg xmlns="http://www.w3.org/2000/svg" width="20" height="11" viewBox="0 0 20 11">
    <path fill="#282828" d="M18.203 8.58c-.415-.498-.886-.944-1.341-1.375-.162-.153-.33-.311-.49-.47-.464-.452-.48-.622-.114-1.137.254-.354.523-.71.783-1.053.236-.312.48-.634.714-.957l.048-.067c.447-.618.91-1.258 1.156-2.03.064-.203.13-.503-.023-.754-.153-.25-.45-.326-.66-.362-.105-.018-.208-.02-.304-.02L15.044.353h-.024c-.443 0-.742.208-.913.638-.163.41-.342.847-.547 1.262-.407.827-.924 1.78-1.672 2.573l-.032.034c-.088.095-.188.203-.261.203-.012 0-.024-.002-.038-.007-.155-.06-.259-.435-.254-.61V4.44l-.002-3.384c0-.012 0-.024-.002-.035-.075-.55-.24-.893-.863-1.015-.017-.003-.034-.005-.05-.005H7.34c-.496 0-.77.202-1.026.503-.07.081-.214.249-.143.453.073.206.309.25.385.265.381.072.596.305.657.713.106.706.119 1.461.04 2.374-.02.254-.064.45-.135.617-.017.04-.075.167-.135.167-.019 0-.074-.007-.173-.076-.237-.162-.41-.393-.61-.678-.686-.969-1.261-2.036-1.76-3.263-.184-.451-.53-.704-.972-.712-.485-.007-.926-.01-1.346-.01-.46 0-.885.004-1.3.012C.467.371.22.478.09.682c-.13.205-.12.473.025.798C1.288 4.085 2.35 5.98 3.561 7.62c.848 1.15 1.699 1.945 2.677 2.504 1.03.59 2.185.876 3.53.876.153 0 .31-.004.47-.011.781-.038 1.071-.321 1.108-1.082.017-.39.06-.797.25-1.145.122-.219.234-.219.271-.219.071 0 .16.033.255.094.17.111.316.26.435.39.113.123.224.248.335.373.24.27.49.548.75.812.568.578 1.194.832 1.913.777h2.702c.267-.018.499-.166.635-.408.17-.298.166-.68-.009-1.019-.198-.384-.455-.712-.68-.982z"/>
</svg>
