<svg xmlns="http://www.w3.org/2000/svg" width="11" height="17" viewBox="0 0 11 17">
    <path fill="#282828" d="M.156 9.106c.255-.483.954-.891 1.88-.189 0 0 1.25.958 3.267.958s3.267-.958 3.267-.958c.926-.699 1.622-.294 1.88.19.427.851-.065 1.258-1.188 1.957-.942.577-2.24.806-3.098.892l3.348 3.21c.96.948-.602 2.429-1.574 1.514-.657-.643-1.621-1.57-2.627-2.538l-2.628 2.534c-.97.912-2.535-.582-1.563-1.513l3.302-3.177.004-.005.002-.002.018-.016.008-.008-.002.001.005-.004-.22-.024c-.844-.1-2.025-.327-2.9-.867C.216 10.365-.276 9.958.158 9.106zM5.301 0c2.46 0 4.467 1.921 4.467 4.297 0 2.365-2.008 4.287-4.467 4.287-2.46 0-4.467-1.922-4.467-4.287C.834 1.92 2.842 0 5.301 0zm0 2.177c-1.208 0-2.194.947-2.193 2.12 0 1.162.985 2.11 2.193 2.11 1.209 0 2.194-.948 2.194-2.11 0-1.172-.985-2.12-2.194-2.12z"/>
</svg>
