<?xml version="1.0" encoding="UTF-8"?>
<svg width="20px" height="20px" viewBox="0 0 20 20" version="1.1" xmlns="http://www.w3.org/2000/svg" xmlns:xlink="http://www.w3.org/1999/xlink">
    <!-- Generator: Sketch 64 (93537) - https://sketch.com -->
    <title>f_mini</title>
    <desc>Created with Sketch.</desc>
    <defs>
        <path d="M16,0 C18.209139,-4.05812251e-16 20,1.790861 20,4 L20,16 C20,18.209139 18.209139,20 16,20 L11.716,20 L11.7268931,14.282091 L13.9484864,14.282091 C14.1482638,14.282091 14.3165136,14.1326003 14.3400272,13.9341894 L14.3400272,13.9341894 L14.5857749,11.8608262 C14.6136037,11.6263086 14.4303827,11.4201039 14.1942341,11.4201039 L14.1942341,11.4201039 L11.7158408,11.4201039 L11.7158408,9.68570366 C11.7158408,8.89914926 11.9342442,8.36318441 13.0621476,8.36318441 L13.0621476,8.36318441 L14.1065646,8.36270005 C14.3242193,8.36256795 14.5006593,8.18608528 14.5006593,7.96838809 L14.5006593,7.96838809 L14.5006593,6.22011759 C14.5006593,6.00233233 14.3240872,5.82580562 14.1063444,5.82580562 L14.1063444,5.82580562 L12.4044718,5.82580562 C10.3304769,5.82580562 8.91054711,7.09174298 8.91054711,9.41666445 L8.91054711,9.41666445 L8.91054711,11.4200599 L7.24249177,11.4200599 C7.02413249,11.4200599 6.84734029,11.5975112 6.84817396,11.8158689 L6.84817396,11.8158689 L6.85619091,13.8892321 C6.85702753,14.1064009 7.03329134,14.282003 7.25046173,14.282003 L7.25046173,14.282003 L8.92155534,14.282003 L8.911,20 L4,20 C1.790861,20 2.705415e-16,18.209139 0,16 L0,4 C-2.705415e-16,1.790861 1.790861,4.05812251e-16 4,0 L16,0 Z" id="path-1"></path>
    </defs>
    <g id="Макеты" stroke="none" stroke-width="1" fill="none" fill-rule="evenodd">
        <g id="f_mini">
            <rect id="Rectangle" fill="#FFFFFF" x="0" y="0" width="20" height="20" rx="4"></rect>
            <mask id="mask-2" fill="white">
                <use xlink:href="#path-1"></use>
            </mask>
            <use id="Combined-Shape" fill="#475993" xlink:href="#path-1"></use>
        </g>
    </g>
</svg>