<?xml version="1.0" encoding="UTF-8"?>
<svg width="20px" height="20px" viewBox="0 0 20 20" version="1.1" xmlns="http://www.w3.org/2000/svg" xmlns:xlink="http://www.w3.org/1999/xlink">
    <!-- Generator: Sketch 64 (93537) - https://sketch.com -->
    <title>od_mini</title>
    <desc>Created with Sketch.</desc>
    <defs>
        <rect id="path-1" x="0" y="0" width="20" height="20" rx="4"></rect>
    </defs>
    <g id="Макеты" stroke="none" stroke-width="1" fill="none" fill-rule="evenodd">
        <g id="od_mini">
            <g id="Group-6-Copy-6">
                <rect id="Rectangle" fill="#FFFFFF" x="0" y="0" width="20" height="20" rx="4"></rect>
                <mask id="mask-2" fill="white">
                    <use xlink:href="#path-1"></use>
                </mask>
                <use id="Combined-Shape" fill="#E88504" xlink:href="#path-1"></use>
            </g>
            <path d="M7.22827121,9.92018631 C7.30823203,9.95824911 7.38418611,10.0062259 7.45700446,10.0573894 C8.94263823,11.0948219 10.9838168,11.1236788 12.4751994,10.1044811 C12.6227524,9.9899386 12.7807578,9.89504716 12.9640231,9.84795551 C13.3202756,9.75501147 13.6516165,9.88761164 13.8428953,10.2041525 C14.061873,10.5647754 14.0589115,10.9174316 13.7899365,11.197857 C13.3777637,11.6282322 12.8816234,11.9391079 12.3304337,12.1566855 C11.8093818,12.3613394 11.2385068,12.4650826 10.6733807,12.5337727 C10.7587419,12.6283101 10.7989836,12.6741625 10.8519424,12.7288667 C11.6191482,13.5122521 12.3894898,14.292451 13.1540825,15.0781379 C13.4143471,15.3456397 13.4693964,15.6775827 13.325676,15.9889895 C13.1687158,16.3297843 12.8176895,16.5533811 12.4731089,16.5293042 C12.2550023,16.513725 12.0849766,16.4034314 11.9341137,16.2492328 C11.355051,15.6570465 10.7650133,15.0760135 10.1981451,14.473382 C10.0331715,14.2977621 9.95373326,14.3305138 9.80774814,14.4832961 C9.22537552,15.0926549 8.63394416,15.6926308 8.03868025,16.289066 C7.77127314,16.5570989 7.45334612,16.6050757 7.14273578,16.4522934 C6.81313691,16.2899512 6.6037406,15.9480941 6.61994181,15.6041127 C6.63109103,15.3718411 6.74362849,15.1944507 6.90058862,15.0351181 C7.65943251,14.2648333 8.41653434,13.4926011 9.17398458,12.7209 C9.22433028,12.6699136 9.27101765,12.6152094 9.34401021,12.5358971 C8.31113935,12.4263117 7.37983094,12.1681928 6.58283581,11.534403 C6.48406067,11.4556218 6.3818014,11.3794962 6.29121398,11.2913322 C5.94245239,10.9507144 5.90743687,10.5610576 6.18355431,10.1590082 C6.41943003,9.8152038 6.81627263,9.72279087 7.22827121,9.92018631 Z M10.0143572,3 C11.8781934,3.00479568 13.374628,4.55457115 13.3654376,6.47028059 C13.3554653,8.34155392 11.8346418,9.85840065 9.97376702,9.85204736 C8.13135816,9.84565404 6.62063864,8.2935771 6.63103712,6.41823193 C6.64206605,4.52235055 8.15383081,2.99435054 10.0143572,3 Z M10.000769,4.74966434 C9.07869358,4.74877994 8.34232233,5.50366258 8.3494648,6.44319404 C8.35625886,7.37068704 9.0924559,8.10680383 10.0093052,8.10292442 C10.9233671,8.09989942 11.6513765,7.35404563 11.6480778,6.42301191 C11.6444082,5.49197818 10.9151794,4.75037327 10.000769,4.74966434 Z" id="Combined-Shape-Copy" fill="#FFFFFF"></path>
        </g>
    </g>
</svg>