<?xml version="1.0" encoding="UTF-8"?>
<svg width="20px" height="20px" viewBox="0 0 20 20" version="1.1" xmlns="http://www.w3.org/2000/svg" xmlns:xlink="http://www.w3.org/1999/xlink">
    <!-- Generator: Sketch 64 (93537) - https://sketch.com -->
    <title>vk_mini</title>
    <desc>Created with Sketch.</desc>
    <defs>
        <rect id="path-1" x="0" y="0" width="20" height="20" rx="4"></rect>
    </defs>
    <g id="Макеты" stroke="none" stroke-width="1" fill="none" fill-rule="evenodd">
        <g id="vk_mini">
            <g id="Group-6-Copy-4">
                <rect id="Rectangle" fill="#FFFFFF" x="0" y="0" width="20" height="20" rx="4"></rect>
                <mask id="mask-2" fill="white">
                    <use xlink:href="#path-1"></use>
                </mask>
                <use id="Combined-Shape" fill="#5E88B9" xlink:href="#path-1"></use>
                <path d="M14.8028576,11.0871338 C15.2576049,11.5444073 15.7384746,11.9749355 16.146637,12.4804493 C16.3269685,12.7038357 16.4975478,12.9342674 16.6275502,13.1931048 C16.8121049,13.5639496 16.6448345,13.9702454 16.323442,13.9926379 L14.3261675,13.9917404 C13.8106421,14.0354035 13.3998239,13.8211715 13.0533539,13.4576414 C12.7778498,13.1681994 12.5203265,12.8583842 12.254357,12.5591147 C12.1461233,12.4358887 12.0316636,12.3206504 11.8956531,12.2287469 C11.6228047,12.0465107 11.3861358,12.1018412 11.2301851,12.3947386 C11.0715787,12.6931106 11.0343107,13.0243759 11.0196822,13.3566284 C10.9979571,13.8415895 10.8559819,13.9684504 10.3837326,13.9917853 C9.37331845,14.0400256 8.41506204,13.8817973 7.52511569,13.3575259 C6.73918,12.895002 6.13096364,12.2410875 5.60146276,11.5016866 C4.56954121,10.0601308 3.77920824,8.47753376 3.06959347,6.84938886 C2.90920199,6.48244821 3.02636091,6.28580715 3.41784849,6.27871694 C4.07047291,6.26543402 4.72283611,6.26704951 5.37454625,6.27781944 C5.63964499,6.28239667 5.81553576,6.43856072 5.91693418,6.69668016 C6.26963,7.5899565 6.7010413,8.44006336 7.24255849,9.22882646 C7.38740715,9.43870557 7.5346939,9.64768718 7.74341181,9.79586353 C7.97476913,9.96023966 8.15157418,9.90652461 8.26067871,9.6394751 C8.33012073,9.46984863 8.36050978,9.28945222 8.37513832,9.10811344 C8.42703481,8.48736132 8.43326064,7.86593608 8.34387852,7.24702383 C8.28841198,6.8601588 8.07616755,6.61002706 7.70192075,6.53688125 C7.51114021,6.49936598 7.53974423,6.42711767 7.63160797,6.31439235 C7.79287021,6.12075789 7.94459777,6 8.24517942,6 L10.5024588,6 C10.8584635,6.07157519 10.9383109,6.23684882 10.9866809,6.60567421 L10.9884659,9.19131119 C10.9842428,9.33419232 11.057908,9.75740589 11.3065496,9.8511492 C11.5057328,9.91904466 11.638391,9.75372616 11.7579445,9.62340995 C12.2985474,9.03214053 12.6842881,8.33299226 13.028973,7.60956676 C13.1815713,7.29153956 13.3133588,6.96117181 13.4415762,6.63053481 C13.5360522,6.38587779 13.6833389,6.26538914 13.9510935,6.26974199 L16.1243023,6.27247935 C16.1883892,6.27247935 16.2543047,6.27247935 16.3175209,6.28320441 C16.6830603,6.34836252 16.7835879,6.51094366 16.6699991,6.87972418 C16.492541,7.45748631 16.144939,7.93988964 15.8062187,8.42301096 C15.4430739,8.94019221 15.0566802,9.43928894 14.6962347,9.95920754 C14.3670055,10.4352835 14.3929537,10.6746453 14.8028576,11.0871338 Z" id="Combined-Shape-Copy-10" fill="#FFFFFF" mask="url(#mask-2)"></path>
            </g>
        </g>
    </g>
</svg>