<svg xmlns="http://www.w3.org/2000/svg" width="14" height="13" viewBox="0 0 14 13">
    <path fill="#A0AAB4" fill-rule="evenodd" stroke="#A0AAB4" stroke-width=".3" d="M3.526 7.705c.34 0 .615.275.615.615v1.295h1.296c.34 0 .616.276.616.616 0 .34-.276.616-.616.616H4.142v1.295c0 .34-.276.615-.615.615-.166 0-.322-.065-.436-.18-.115-.114-.18-.27-.18-.435v-1.295H1.616c-.165 0-.321-.066-.436-.18-.114-.115-.18-.27-.18-.436 0-.34.276-.615.616-.615H2.91V8.32c0-.34.276-.615.616-.615zm6.632-.632c1.5 0 2.716 1.216 2.716 2.716 0 1.5-1.216 2.716-2.716 2.716-1.5 0-2.716-1.216-2.716-2.716 0-1.5 1.216-2.716 2.716-2.716zm0 1.01c-.942 0-1.705.764-1.705 1.706s.763 1.705 1.705 1.705c.942 0 1.705-.763 1.705-1.705 0-.942-.763-1.705-1.705-1.705zM3.842.758c1.5 0 2.716 1.216 2.716 2.716 0 1.5-1.216 2.716-2.716 2.716-1.5 0-2.716-1.216-2.716-2.716 0-1.5 1.216-2.716 2.716-2.716zm6.316 0c1.5 0 2.716 1.216 2.716 2.716 0 1.5-1.216 2.716-2.716 2.716-1.5 0-2.716-1.216-2.716-2.716 0-1.5 1.216-2.716 2.716-2.716zm-6.316 1.01c-.942 0-1.705.764-1.705 1.706S2.9 5.178 3.842 5.178c.942 0 1.705-.763 1.705-1.705 0-.942-.763-1.705-1.705-1.705zm6.316 0c-.942 0-1.705.764-1.705 1.706s.763 1.705 1.705 1.705c.942 0 1.705-.763 1.705-1.705 0-.942-.763-1.705-1.705-1.705z"/>
</svg>
