<svg xmlns="http://www.w3.org/2000/svg" xmlns:xlink="http://www.w3.org/1999/xlink" width="88" height="104" viewBox="0 0 88 104">
    <defs>
        <linearGradient id="prefix__b" x1="50%" x2="79.512%" y1="2.831%" y2="80.636%">
            <stop offset="0%" stop-color="#FFEED2"/>
            <stop offset="32.119%" stop-color="#FFEABC"/>
            <stop offset="64.336%" stop-color="#E2BB64"/>
            <stop offset="100%" stop-color="#ECB12E"/>
        </linearGradient>
        <linearGradient id="prefix__f" x1="71.59%" x2="36.113%" y1="91.908%" y2="11.806%">
            <stop offset="0%" stop-color="#FFEFC1" stop-opacity=".575"/>
            <stop offset="100%" stop-color="#F4C96E"/>
        </linearGradient>
        <ellipse id="prefix__a" cx="60.092" cy="60.006" rx="43.775" ry="43.841"/>
        <ellipse id="prefix__d" cx="42.944" cy="43.164" rx="42.926" ry="42.991"/>
    </defs>
    <g fill="none" fill-rule="evenodd" transform="translate(-16 -16)">
        <mask id="prefix__c" fill="#fff">
            <use xlink:href="#prefix__a"/>
        </mask>
        <use fill="url(#prefix__b)" transform="rotate(60 60.092 60.006)" xlink:href="#prefix__a"/>
        <path fill="#F4DB9F" d="M93.862 31.998L95.133 31.998 95.133 38.543 93.862 38.543z" mask="url(#prefix__c)" transform="rotate(60 94.497 35.27)"/>
        <path fill="#F4DB9F" d="M99.197 40.833L100.467 40.833 100.467 47.378 99.197 47.378z" mask="url(#prefix__c)" transform="rotate(60 99.832 44.106)"/>
        <path fill="#F4DB9F" d="M90.111 23.235L91.382 23.235 91.382 29.78 90.111 29.78z" mask="url(#prefix__c)" transform="rotate(60 90.746 26.508)"/>
        <path fill="#F4DB9F" d="M85.75 20.877L87.021 20.877 87.021 27.422 85.75 27.422z" mask="url(#prefix__c)" transform="rotate(60 86.386 24.15)"/>
        <path fill="#F4DB9F" d="M82.663 17.791L83.933 17.791 83.933 24.337 82.663 24.337z" mask="url(#prefix__c)" transform="rotate(60 83.298 21.064)"/>
        <path fill="#F4DB9F" d="M76.847 16.887L78.118 16.887 78.118 23.433 76.847 23.433z" mask="url(#prefix__c)" transform="rotate(60 77.483 20.16)"/>
        <path fill="#F4DB9F" d="M73.396 14.528L74.666 14.528 74.666 21.074 73.396 21.074z" mask="url(#prefix__c)" transform="rotate(60 74.03 17.801)"/>
        <path fill="#F4DB9F" d="M67.943 13.987L69.214 13.987 69.214 20.533 67.943 20.533z" mask="url(#prefix__c)" transform="rotate(60 68.579 17.26)"/>
        <path fill="#F4DB9F" d="M64.309 12.355L65.58 12.355 65.58 18.9 64.309 18.9z" mask="url(#prefix__c)" transform="rotate(60 64.945 15.628)"/>
        <path fill="#F4DB9F" d="M58.312 12.359L59.583 12.359 59.583 18.904 58.312 18.904z" mask="url(#prefix__c)" transform="rotate(60 58.947 15.632)"/>
        <path fill="#F4DB9F" d="M52.132 12.908L53.403 12.908 53.403 19.453 52.132 19.453z" mask="url(#prefix__c)" transform="rotate(60 52.767 16.18)"/>
        <path fill="#F4DB9F" d="M101.949 44.958L103.22 44.958 103.22 51.503 101.949 51.503z" mask="url(#prefix__c)" transform="rotate(60 102.585 48.23)"/>
        <path fill="#F4DB9F" d="M97.313 35.709L98.583 35.709 98.583 42.254 97.313 42.254z" mask="url(#prefix__c)" transform="rotate(60 97.948 38.981)"/>
        <path fill="#F4DB9F" d="M91.327 27.74L92.597 27.74 92.597 34.285 91.327 34.285z" mask="url(#prefix__c)" transform="rotate(60 91.962 31.013)"/>
        <path fill="#F4DB9F" d="M101.345 51.478L102.615 51.478 102.615 58.023 101.345 58.023z" mask="url(#prefix__c)" transform="rotate(60 101.98 54.75)"/>
        <path fill="#F4DB9F" d="M103.159 56.38L104.43 56.38 104.43 62.926 103.159 62.926z" mask="url(#prefix__c)" transform="rotate(60 103.794 59.653)"/>
        <path fill="#F4DB9F" d="M101.338 62.193L102.608 62.193 102.608 68.739 101.338 68.739z" mask="url(#prefix__c)" transform="rotate(60 101.973 65.466)"/>
        <path fill="#F4DB9F" d="M98.422 73.637L99.693 73.637 99.693 80.182 98.422 80.182z" mask="url(#prefix__c)" transform="rotate(60 99.057 76.91)"/>
        <path fill="#F4DB9F" d="M95.874 79.268L97.145 79.268 97.145 85.814 95.874 85.814z" mask="url(#prefix__c)" transform="rotate(60 96.51 82.54)"/>
        <path fill="#F4DB9F" d="M91.872 84.719L93.143 84.719 93.143 91.265 91.872 91.265z" mask="url(#prefix__c)" transform="rotate(70 92.507 87.992)"/>
        <path fill="#F4DB9F" d="M100.243 67.824L101.514 67.824 101.514 74.369 100.243 74.369z" mask="url(#prefix__c)" transform="rotate(60 100.879 71.096)"/>
        <g mask="url(#prefix__c)">
            <g transform="rotate(60 36.561 65.525)">
                <mask id="prefix__e" fill="#fff">
                    <use xlink:href="#prefix__d"/>
                </mask>
                <use fill="#FDD36A" xlink:href="#prefix__d"/>
                <ellipse cx="42.154" cy="34.095" fill="#FFF" mask="url(#prefix__e)" opacity=".12" rx="41.973" ry="42.036"/>
                <path fill="#FFF" d="M1.106 19.273H92.02c1.012 0 1.832.82 1.832 1.832 0 1.011-.82 1.831-1.832 1.831H1.106c-1.012 0-1.832-.82-1.832-1.831 0-1.012.82-1.832 1.832-1.832zM4.195 6.727h86.187c2.317 0 4.196 1.879 4.196 4.196 0 2.317-1.879 4.195-4.196 4.195H4.195C1.878 15.118 0 13.24 0 10.923s1.878-4.196 4.195-4.196z" mask="url(#prefix__e)" opacity=".2"/>
                <path fill="#FBCE72" fill-rule="nonzero" d="M56.322 49.932c-.255-.867-.566-1.622-.93-2.263-.364-.641-.886-1.267-1.566-1.88-.68-.611-1.29-1.104-1.832-1.479-.542-.374-1.285-.794-2.231-1.258-.945-.463-1.694-.809-2.245-1.036-.552-.226-1.35-.537-2.394-.932-.926-.355-1.615-.626-2.069-.813-.453-.188-1.049-.454-1.787-.8-.739-.344-1.29-.65-1.655-.917-.364-.266-.753-.591-1.167-.976-.414-.385-.704-.794-.872-1.228-.167-.434-.25-.908-.25-1.42 0-1.342.59-2.437 1.772-3.285 1.182-.848 2.709-1.273 4.58-1.273.827 0 1.67.114 2.527.34.856.228 1.59.484 2.2.77.612.286 1.188.602 1.73.947s.926.607 1.152.784c.227.178.37.296.429.355.256.198.522.267.797.208.296-.02.523-.178.68-.474l2.394-4.32c.237-.395.188-.77-.147-1.125-.119-.119-.266-.257-.444-.414-.177-.158-.561-.444-1.153-.859-.59-.414-1.216-.784-1.876-1.11-.66-.325-1.517-.656-2.571-.99-1.053-.337-2.142-.563-3.265-.681v-5.21c0-.275-.089-.502-.266-.68-.177-.177-.403-.266-.68-.266h-3.99c-.255 0-.477.093-.664.28-.187.188-.28.41-.28.667v5.327c-3.093.591-5.605 1.913-7.536 3.965-1.93 2.052-2.896 4.439-2.896 7.162 0 .809.085 1.578.252 2.308.167.73.374 1.386.62 1.968.247.582.596 1.154 1.05 1.717.453.562.881 1.045 1.285 1.45.404.404.93.823 1.58 1.257.65.434 1.207.785 1.67 1.05.464.266 1.08.573 1.847.917.768.346 1.374.607 1.818.785.443.177 1.049.424 1.817.74 1.064.414 1.852.734 2.364.961.513.227 1.162.543 1.95.947.789.404 1.365.774 1.73 1.11.364.335.694.75.99 1.243.295.493.443 1.016.443 1.568 0 1.56-.606 2.762-1.818 3.61-1.21.849-2.615 1.273-4.21 1.273-.729 0-1.458-.079-2.187-.236-2.56-.514-4.954-1.747-7.18-3.7l-.06-.06c-.176-.216-.413-.305-.708-.265-.315.04-.542.158-.68.356l-3.043 3.994c-.296.395-.276.8.059 1.214.098.118.27.296.517.532.247.238.705.607 1.374 1.111.67.503 1.399.976 2.187 1.42.788.444 1.787.883 3 1.317 1.21.434 2.466.74 3.767.917v5.179c0 .257.093.478.28.666.188.188.409.281.665.281h3.99c.276 0 .502-.089.68-.266.177-.177.265-.404.265-.681v-5.179c3.133-.513 5.679-1.86 7.638-4.04 1.96-2.18 2.94-4.779 2.94-7.797 0-.987-.128-1.914-.387-2.783z" mask="url(#prefix__e)" transform="rotate(-60 42.924 44.162)"/>
                <path fill="#372929" d="M18.372 36.062c1.38 0 2.5 1.327 2.5 2.963 0 1.636-1.12.847-2.5.847-1.381 0-2.5.79-2.5-.847 0-1.636 1.119-2.963 2.5-2.963zm23 0c1.38 0 2.5 1.327 2.5 2.963 0 1.636-1.12.847-2.5.847-1.381 0-2.5.79-2.5-.847 0-1.636 1.119-2.963 2.5-2.963z" mask="url(#prefix__e)" transform="rotate(-60 29.872 38.062)"/>
            </g>
        </g>
        <path fill="url(#prefix__f)" fill-rule="nonzero" d="M58.807 97.788c-20.704 0-37.488-16.81-37.488-37.545 0-20.736 16.784-37.546 37.488-37.546 20.705 0 37.489 16.81 37.489 37.546S79.512 97.788 58.807 97.788zm0-2.182c19.501 0 35.31-15.832 35.31-35.363s-15.809-35.364-35.31-35.364c-19.501 0-35.31 15.833-35.31 35.364 0 19.53 15.809 35.363 35.31 35.363z" mask="url(#prefix__c)" transform="rotate(60 58.807 60.243)"/>
        <path fill="#F9CD79" fill-rule="nonzero" d="M59.226 91.355v-1.45c.71 0 1.418-.025 2.122-.074l.101 1.446c-.737.052-1.479.078-2.223.078zm4.44-.312l-.203-1.436c.703-.1 1.4-.224 2.091-.373l.305 1.418c-.724.156-1.456.286-2.193.39zm4.354-.938l-.406-1.392c.68-.199 1.353-.421 2.016-.667l.504 1.359c-.695.258-1.4.492-2.114.7zm4.17-1.548l-.6-1.32c.645-.293 1.28-.61 1.901-.947l.693 1.273c-.652.355-1.317.687-1.993.994zm3.918-2.13l-.782-1.222c.596-.381 1.18-.784 1.747-1.207l.866 1.163c-.595.443-1.206.865-1.831 1.266zm3.56-2.652l-.945-1.099c.537-.462 1.057-.943 1.56-1.442l1.021 1.03c-.527.523-1.073 1.027-1.635 1.51zm3.163-3.137l-1.091-.955c.466-.532.914-1.082 1.341-1.646l1.156.875c-.448.592-.917 1.168-1.406 1.726zm2.69-3.553l-1.215-.79c.386-.594.752-1.201 1.095-1.82l1.268.702c-.36.65-.743 1.286-1.148 1.908zm2.161-3.9l-1.315-.611c.298-.642.573-1.295.824-1.957l1.356.515c-.264.695-.552 1.379-.865 2.052zm1.575-4.142l-1.389-.418c.204-.677.383-1.362.539-2.054l1.414.318c-.162.725-.35 1.443-.564 2.154zm.974-4.343l-1.434-.216c.105-.698.185-1.402.24-2.11l1.446.114c-.058.742-.142 1.48-.252 2.212zm.349-4.442l-1.45-.012V60c0-.628-.019-1.253-.057-1.875l1.447-.09c.04.652.06 1.308.06 1.965v.258zm-.276-4.442l-1.437.192c-.094-.703-.213-1.402-.356-2.093l1.42-.294c.15.726.274 1.458.373 2.195zm-.902-4.36l-1.395.394c-.193-.682-.41-1.355-.65-2.02l1.364-.493c.252.697.48 1.404.681 2.119zM87.89 47.27l-1.325.59c-.288-.648-.598-1.284-.931-1.909l1.28-.682c.348.655.674 1.323.976 2.001zm-2.097-3.933l-1.228.771c-.377-.6-.775-1.186-1.193-1.757l1.17-.857c.438.6.856 1.214 1.25 1.843zm-2.623-3.584l-1.107.937c-.457-.54-.934-1.065-1.428-1.572l1.038-1.012c.518.531 1.017 1.08 1.497 1.647zm-3.111-3.188l-.964 1.083c-.529-.47-1.074-.922-1.635-1.354l.885-1.15c.588.454 1.16.927 1.714 1.42zm-3.53-2.719l-.801 1.209c-.59-.391-1.194-.761-1.81-1.11l.713-1.262c.646.365 1.28.753 1.898 1.163zm-3.881-2.192l-.622 1.31c-.639-.303-1.29-.584-1.95-.841l.527-1.351c.692.27 1.374.564 2.045.882zm-4.13-1.61l-.43 1.385c-.675-.21-1.358-.395-2.049-.556l.33-1.412c.723.169 1.44.363 2.148.583zm-4.336-1.01l-.228 1.432c-.697-.111-1.4-.197-2.107-.259l.125-1.444c.742.064 1.478.154 2.21.27zm-4.438-.386l-.023 1.45c-.165-.003-.33-.004-.494-.004-.546 0-1.09.015-1.63.044l-.079-1.448c.568-.03 1.137-.046 1.709-.046.172 0 .345.002.517.004zm-4.444.24l.18 1.438c-.705.089-1.404.201-2.097.339l-.282-1.423c.727-.144 1.46-.262 2.2-.354zm-4.367.865l.383 1.398c-.684.188-1.36.399-2.027.634l-.482-1.368c.7-.246 1.41-.468 2.126-.664zm-4.198 1.478l.579 1.33c-.65.282-1.289.588-1.916.916l-.672-1.285c.658-.344 1.328-.665 2.01-.96zm-3.95 2.065l.761 1.234c-.602.372-1.192.765-1.767 1.178l-.846-1.176c.602-.434 1.22-.846 1.852-1.236zm-3.606 2.594l.928 1.114c-.545.453-1.073.925-1.584 1.416l-1.004-1.046c.536-.514 1.09-1.01 1.66-1.484zm-3.214 3.084l1.076.973c-.476.525-.932 1.067-1.369 1.625l-1.141-.895c.458-.584.936-1.152 1.434-1.703zm-2.747 3.507l1.202.811c-.396.587-.771 1.188-1.125 1.801l-1.256-.723c.37-.644.764-1.274 1.18-1.889zm-2.225 3.864l1.305.632c-.308.637-.594 1.285-.857 1.943l-1.346-.538c.275-.69.575-1.37.898-2.037zm-1.644 4.116l1.382.44c-.215.675-.406 1.357-.573 2.046l-1.41-.341c.175-.723.376-1.438.601-2.145zm-1.046 4.328l1.43.24c-.117.696-.209 1.398-.276 2.105l-1.443-.137c.07-.74.167-1.477.289-2.208zm-.422 4.434l1.45.035c-.006.247-.01.494-.01.741 0 .462.011.923.032 1.383l-1.448.065c-.022-.48-.033-.964-.033-1.448 0-.259.003-.518.01-.776zm.203 4.445l1.44-.168c.083.705.19 1.404.321 2.098l-1.425.27c-.137-.728-.25-1.461-.336-2.2zm.83 4.376l1.402-.37c.18.684.386 1.361.616 2.03l-1.372.47c-.24-.701-.456-1.412-.646-2.13zm1.443 4.208l1.334-.567c.277.652.577 1.293.9 1.923l-1.291.66c-.338-.66-.653-1.333-.943-2.016zm2.031 3.967l1.24-.751c.367.606.755 1.198 1.164 1.776l-1.184.837c-.428-.606-.835-1.227-1.22-1.862zm2.565 3.628l1.122-.918c.448.548.916 1.08 1.402 1.595l-1.054.995c-.51-.54-1-1.097-1.47-1.672zm3.056 3.237l.981-1.067c.521.48 1.06.94 1.613 1.381l-.904 1.134c-.58-.462-1.144-.945-1.69-1.448zm3.485 2.778l.821-1.196c.584.401 1.182.781 1.792 1.14l-.734 1.25c-.64-.376-1.267-.774-1.879-1.194zm3.846 2.257l.643-1.3c.635.314 1.28.605 1.936.873l-.549 1.342c-.687-.28-1.364-.586-2.03-.915zm4.1 1.677l.452-1.378c.672.221 1.352.418 2.04.59l-.353 1.406c-.72-.18-1.434-.387-2.139-.618zm4.32 1.083l.251-1.428c.696.122 1.398.22 2.104.293l-.15 1.442c-.74-.076-1.475-.179-2.205-.307zm4.43.458l.047-1.45c.328.012.658.017.988.017v1.45c-.346 0-.691-.006-1.035-.017z" mask="url(#prefix__c)"/>
        <path fill="#372929" fill-rule="nonzero" d="M61.294 56.413c.39-.191.555-.674.371-1.078-.184-.404-.649-.577-1.038-.385-.792.39-1.704.769-2.657.769-1.044 0-2.037-.422-2.878-.884-.38-.21-.852-.06-1.053.336-.202.395-.057.885.323 1.094 1.067.588 2.312 1.073 3.608 1.073 1.182 0 2.322-.432 3.324-.925z"/>
        <ellipse cx="60.779" cy="114.545" fill="#EFEFEF" rx="34.805" ry="5.455"/>
    </g>
</svg>
