<?xml version="1.0" encoding="UTF-8"?>
<svg width="200px" height="200px" viewBox="0 0 200 200" version="1.1" xmlns="http://www.w3.org/2000/svg" xmlns:xlink="http://www.w3.org/1999/xlink">
    <!-- Generator: Sketch 64 (93537) - https://sketch.com -->
    <title>Bitmap</title>
    <desc>Created with Sketch.</desc>
    <defs>
        <rect id="path-1" x="0" y="0" width="200" height="200" rx="6"></rect>
        <path d="M104.25924,19.1728691 L1.93353143,19.1728691 C0.8657963,19.1728691 0,18.3143079 0,17.2554953 L0,3.83453038 C0,1.71668808 1.73115455,0 3.86684383,0 L102.325927,0 C104.461617,0 106.192771,1.71668808 106.192771,3.83453038 L106.192771,17.2554953 C106.192771,18.3143079 105.326975,19.1728691 104.25924,19.1728691 Z" id="path-3"></path>
        <path d="M26.8804359,0 L3.89431071,0 C1.74345125,0 0,1.78823701 0,3.99434773 C0,6.20045844 1.74345125,7.98869545 3.89431071,7.98869545 L26.8804359,7.98869545 C29.0312953,7.98869545 30.7747466,6.20045844 30.7747466,3.99434773 C30.7747466,1.78823701 29.0310748,0 26.8804359,0 Z" id="path-5"></path>
        <path d="M26.8804359,-1.36144578 L3.89431071,-1.36144578 C1.74345125,-1.36144578 0,0.426791228 0,2.63290194 C0,4.83901266 1.74345125,6.62724967 3.89431071,6.62724967 L26.8804359,6.62724967 C29.0312953,6.62724967 30.7747466,4.83901266 30.7747466,2.63290194 C30.7747466,0.426791228 29.0310748,-1.36144578 26.8804359,-1.36144578 Z" id="path-7"></path>
        <ellipse id="path-9" cx="20.441233" cy="21.5415095" rx="20.441233" ry="20.6424391"></ellipse>
    </defs>
    <g id="Макеты" stroke="none" stroke-width="1" fill="none" fill-rule="evenodd" opacity="0.900000036">
        <g id="Обзоры-/-Страница-Обзора-/-UI" transform="translate(-805.000000, -3034.000000)">
            <g id="Group-14-Copy-5" transform="translate(804.000000, 3033.000000)">
                <g id="Bitmap" transform="translate(1.000000, 1.000000)">
                    <mask id="mask-2" fill="white">
                        <use xlink:href="#path-1"></use>
                    </mask>
                    <use id="Mask" fill="#EBF0F5" xlink:href="#path-1"></use>
                    <g id="Group-16" mask="url(#mask-2)">
                        <g transform="translate(47.000000, 54.000000)">
                            <g id="Group-5-Copy-4" stroke-width="1" fill="none">
                                <path d="M98.3081775,82.4072283 L7.88437835,82.4072283 C5.78558482,82.4072283 4.08433735,80.6515198 4.08433735,78.4855388 L4.08433735,17.6987952 L102.108434,17.6987952 L102.108434,78.4855388 C102.108434,80.6512977 100.406756,82.4072283 98.3081775,82.4072283 Z" id="Mask" fill="#BDCEE4" fill-rule="nonzero"></path>
                                <polygon id="Mask" fill="#ABBFD9" fill-rule="nonzero" points="4.08433735 17.6987952 102.108434 17.6987952 102.108434 24.0897515 4.08433735 24.0897515"></polygon>
                                <g id="Shape-Copy">
                                    <mask id="mask-4" fill="white">
                                        <use xlink:href="#path-3"></use>
                                    </mask>
                                    <use id="Mask" fill="#CEDCEF" fill-rule="nonzero" xlink:href="#path-3"></use>
                                </g>
                                <g id="Shape-Copy-2" transform="translate(37.304261, 33.552521)">
                                    <mask id="mask-6" fill="white">
                                        <use xlink:href="#path-5"></use>
                                    </mask>
                                    <use id="Mask" fill="#CEDCEF" fill-rule="nonzero" xlink:href="#path-5"></use>
                                    <mask id="mask-8" fill="white">
                                        <use xlink:href="#path-7"></use>
                                    </mask>
                                    <use fill="#839DBE" fill-rule="nonzero" xlink:href="#path-7"></use>
                                </g>
                            </g>
                            <g id="Oval-Copy" stroke-width="1" fill="none" transform="translate(70.795181, 49.474424)">
                                <mask id="mask-10" fill="white">
                                    <use xlink:href="#path-9"></use>
                                </mask>
                                <use id="Mask" fill="#FFFFFF" xlink:href="#path-9"></use>
                            </g>
                            <path d="M92.8587189,76.5695068 L92.8587189,79.9883382 L89.6308278,79.9883382 L89.6308278,76.5695068 L92.8587189,76.5695068 Z M91.1958659,61.5315692 C92.9192796,61.5315692 94.3538835,62.0222862 95.4997207,63.003735 C96.6455579,63.9851838 97.2184679,65.2099486 97.2184679,66.6780662 C97.2184679,67.4242917 97.0181823,68.1319787 96.6176051,68.8011483 C96.2170278,69.470318 95.3553339,70.3848361 94.0324975,71.5447301 C93.3524478,72.144955 92.9309164,72.627561 92.7678908,72.9925626 C92.6048652,73.3575642 92.5326692,74.0105018 92.5513007,74.9513948 L89.6308278,74.9513948 L89.6168543,74.1727286 C89.6168543,73.1263906 89.7752196,72.2787885 90.0919551,71.6298967 C90.4086906,70.9810049 91.0235208,70.2672347 91.9364643,69.4885646 C92.951881,68.6125607 93.5620535,68.0123448 93.7669999,67.687899 C93.9719464,67.3634531 94.0744181,66.9862904 94.0744181,66.5563996 C94.0744181,65.8507298 93.8112522,65.2707915 93.2849123,64.8165673 C92.7585725,64.362343 92.0948353,64.1352343 91.2936808,64.1352343 C89.5702671,64.1352343 88.5082876,65.136946 88.1077104,67.1403993 L85.1592904,66.7510662 C85.2431321,65.2261705 85.8463179,63.9750449 86.9688657,62.9976516 C88.0914135,62.0202584 89.5003995,61.5315692 91.1958659,61.5315692 Z" id="Combined-Shape" fill="#839DBE"></path>
                        </g>
                    </g>
                </g>
            </g>
        </g>
    </g>
</svg>