<svg aria-hidden="true" style="position: absolute; width: 0; height: 0; overflow: hidden;" version="1.1" xmlns="http://www.w3.org/2000/svg" xmlns:xlink="http://www.w3.org/1999/xlink">
    <defs>
        <symbol id="svg-advise_en" viewBox="0 0 107 32">
            <title>advise_en</title>
            <path fill="#f2e1fb" style="fill: var(--color1, #f2e1fb)" d="M102.4 32h-97.6c-2.651 0-4.8-2.149-4.8-4.8v-22.4c0-2.651 2.149-4.8 4.8-4.8h97.6c2.651 0 4.8 2.149 4.8 4.8v22.4c0 2.651-2.149 4.8-4.8 4.8z"></path>
            <path fill="#8100c2" style="fill: var(--color2, #8100c2)" d="M21.919 11.481v3.575c0 0.162-0.132 0.294-0.294 0.294s-0.294-0.132-0.294-0.294v-5.838c0-0.487-0.395-0.882-0.882-0.882v0 0c-0.487 0-0.882 0.395-0.882 0.882v5.25c0 0.162-0.132 0.294-0.294 0.294s-0.294-0.132-0.294-0.294v-5.838c0-0.487-0.395-0.882-0.882-0.882v0 0c-0.487 0-0.882 0.395-0.882 0.882v5.838c0 0.162-0.132 0.294-0.294 0.294s-0.294-0.132-0.294-0.294v-4.662c0-0.487-0.395-0.882-0.882-0.882v0 0c-0.487 0-0.882 0.395-0.882 0.882v7.602l-1.191-1.629c-0.353-0.544-1.041-0.726-1.546-0.415-0.503 0.319-0.627 1.014-0.279 1.556 0 0 1.92 2.906 2.739 4.15s2.144 2.217 4.624 2.217c4.105 0 4.472-3.17 4.472-4.116 0-2.563 0-5.127 0-7.69v0c0-0.487-0.395-0.882-0.882-0.882v0 0c-0.487 0-0.882 0.395-0.882 0.882z"></path>
            <path fill="#8100c2" style="fill: var(--color2, #8100c2)" d="M38.528 9.888h1.744l4.88 11.328h-2.304l-1.056-2.592h-4.912l-1.024 2.592h-2.256l4.928-11.328zM41.088 16.896l-1.744-4.608-1.776 4.608h3.52zM46.805 9.888h4.016c0.736 0 1.477 0.096 2.224 0.288s1.419 0.509 2.016 0.952c0.597 0.443 1.083 1.024 1.456 1.744s0.56 1.613 0.56 2.68c0 0.992-0.187 1.845-0.56 2.56s-0.859 1.301-1.456 1.76c-0.597 0.459-1.269 0.797-2.016 1.016s-1.488 0.328-2.224 0.328h-4.016v-11.328zM50.501 19.456c0.523 0 1.045-0.061 1.568-0.184s0.995-0.331 1.416-0.624c0.421-0.293 0.765-0.691 1.032-1.192s0.4-1.136 0.4-1.904c0-0.811-0.133-1.472-0.4-1.984s-0.611-0.912-1.032-1.2c-0.421-0.288-0.893-0.485-1.416-0.592s-1.045-0.16-1.568-0.16h-1.68v7.84h1.68zM57.963 9.888h2.256l3.12 8.72h0.064l3.152-8.72h2.176l-4.544 11.328h-1.744l-4.48-11.328zM70.352 9.888h2.016v11.328h-2.016v-11.328zM81.173 12.256c-0.213-0.277-0.515-0.509-0.904-0.696s-0.781-0.28-1.176-0.28c-0.235 0-0.469 0.029-0.704 0.088s-0.448 0.149-0.64 0.272c-0.192 0.123-0.349 0.283-0.472 0.48s-0.184 0.435-0.184 0.712c0 0.256 0.053 0.475 0.16 0.656s0.253 0.336 0.44 0.464c0.187 0.128 0.413 0.24 0.68 0.336s0.56 0.192 0.88 0.288c0.363 0.117 0.739 0.251 1.128 0.4s0.747 0.347 1.072 0.592c0.325 0.245 0.592 0.555 0.8 0.928s0.312 0.837 0.312 1.392c0 0.608-0.112 1.139-0.336 1.592s-0.523 0.829-0.896 1.128c-0.373 0.299-0.811 0.523-1.312 0.672s-1.029 0.224-1.584 0.224c-0.736 0-1.456-0.136-2.16-0.408s-1.28-0.675-1.728-1.208l1.44-1.344c0.277 0.384 0.648 0.688 1.112 0.912s0.92 0.336 1.368 0.336c0.235 0 0.475-0.029 0.72-0.088s0.467-0.157 0.664-0.296c0.197-0.139 0.357-0.312 0.48-0.52s0.184-0.467 0.184-0.776c0-0.299-0.069-0.547-0.208-0.744s-0.325-0.368-0.56-0.512c-0.235-0.144-0.512-0.269-0.832-0.376l-1.008-0.336c-0.341-0.107-0.683-0.235-1.024-0.384s-0.648-0.347-0.92-0.592c-0.272-0.245-0.493-0.547-0.664-0.904s-0.256-0.803-0.256-1.336c0-0.576 0.12-1.072 0.36-1.488s0.555-0.76 0.944-1.032c0.389-0.272 0.832-0.475 1.328-0.608s1-0.2 1.512-0.2c0.576 0 1.16 0.101 1.752 0.304s1.107 0.507 1.544 0.912l-1.312 1.44zM85.115 9.888h7.504v1.76h-5.488v2.88h5.2v1.696h-5.2v3.2h5.776v1.792h-7.792v-11.328z"></path>
        </symbol>
        <symbol id="svg-advise_es" viewBox="0 0 163 32">
            <title>advise_es</title>
            <path fill="#f2e1fb" style="fill: var(--color1, #f2e1fb)" d="M158.4 32h-153.6c-2.651 0-4.8-2.149-4.8-4.8v-22.4c0-2.651 2.149-4.8 4.8-4.8h153.6c2.651 0 4.8 2.149 4.8 4.8v22.4c0 2.651-2.149 4.8-4.8 4.8z"></path>
            <path fill="#8100c2" style="fill: var(--color2, #8100c2)" d="M21.919 11.481v3.575c0 0.162-0.132 0.294-0.294 0.294s-0.294-0.132-0.294-0.294v-5.838c0-0.487-0.395-0.882-0.882-0.882v0 0c-0.487 0-0.882 0.395-0.882 0.882v5.25c0 0.162-0.132 0.294-0.294 0.294s-0.294-0.132-0.294-0.294v-5.838c0-0.487-0.395-0.882-0.882-0.882v0 0c-0.487 0-0.882 0.395-0.882 0.882v5.838c0 0.162-0.132 0.294-0.294 0.294s-0.294-0.132-0.294-0.294v-4.662c0-0.487-0.395-0.882-0.882-0.882v0 0c-0.487 0-0.882 0.395-0.882 0.882v7.602l-1.191-1.629c-0.353-0.544-1.041-0.726-1.546-0.415-0.503 0.319-0.627 1.014-0.279 1.556 0 0 1.92 2.906 2.739 4.15s2.144 2.217 4.624 2.217c4.105 0 4.472-3.17 4.472-4.116 0-2.563 0-5.127 0-7.69v0c0-0.487-0.395-0.882-0.882-0.882v0 0c-0.487 0-0.882 0.395-0.882 0.882z"></path>
            <path fill="#8100c2" style="fill: var(--color2, #8100c2)" d="M38.528 9.888h1.744l4.88 11.328h-2.304l-1.056-2.592h-4.912l-1.024 2.592h-2.256l4.928-11.328zM41.088 16.896l-1.744-4.608-1.776 4.608h3.52zM52.581 12.256c-0.213-0.277-0.515-0.509-0.904-0.696s-0.781-0.28-1.176-0.28c-0.235 0-0.469 0.029-0.704 0.088s-0.448 0.149-0.64 0.272c-0.192 0.123-0.349 0.283-0.472 0.48s-0.184 0.435-0.184 0.712c0 0.256 0.053 0.475 0.16 0.656s0.253 0.336 0.44 0.464c0.187 0.128 0.413 0.24 0.68 0.336s0.56 0.192 0.88 0.288c0.363 0.117 0.739 0.251 1.128 0.4s0.747 0.347 1.072 0.592c0.325 0.245 0.592 0.555 0.8 0.928s0.312 0.837 0.312 1.392c0 0.608-0.112 1.139-0.336 1.592s-0.523 0.829-0.896 1.128c-0.373 0.299-0.811 0.523-1.312 0.672s-1.029 0.224-1.584 0.224c-0.736 0-1.456-0.136-2.16-0.408s-1.28-0.675-1.728-1.208l1.44-1.344c0.277 0.384 0.648 0.688 1.112 0.912s0.92 0.336 1.368 0.336c0.235 0 0.475-0.029 0.72-0.088s0.467-0.157 0.664-0.296c0.197-0.139 0.357-0.312 0.48-0.52s0.184-0.467 0.184-0.776c0-0.299-0.069-0.547-0.208-0.744s-0.325-0.368-0.56-0.512c-0.235-0.144-0.512-0.269-0.832-0.376l-1.008-0.336c-0.341-0.107-0.683-0.235-1.024-0.384s-0.648-0.347-0.92-0.592c-0.272-0.245-0.493-0.547-0.664-0.904s-0.256-0.803-0.256-1.336c0-0.576 0.12-1.072 0.36-1.488s0.555-0.76 0.944-1.032c0.389-0.272 0.832-0.475 1.328-0.608s1-0.2 1.512-0.2c0.576 0 1.16 0.101 1.752 0.304s1.107 0.507 1.544 0.912l-1.312 1.44zM56.523 9.888h7.504v1.76h-5.488v2.88h5.2v1.696h-5.2v3.2h5.776v1.792h-7.792v-11.328zM72.592 12.256c-0.213-0.277-0.515-0.509-0.904-0.696s-0.781-0.28-1.176-0.28c-0.235 0-0.469 0.029-0.704 0.088s-0.448 0.149-0.64 0.272c-0.192 0.123-0.349 0.283-0.472 0.48s-0.184 0.435-0.184 0.712c0 0.256 0.053 0.475 0.16 0.656s0.253 0.336 0.44 0.464c0.187 0.128 0.413 0.24 0.68 0.336s0.56 0.192 0.88 0.288c0.363 0.117 0.739 0.251 1.128 0.4s0.747 0.347 1.072 0.592c0.325 0.245 0.592 0.555 0.8 0.928s0.312 0.837 0.312 1.392c0 0.608-0.112 1.139-0.336 1.592s-0.523 0.829-0.896 1.128c-0.373 0.299-0.811 0.523-1.312 0.672s-1.029 0.224-1.584 0.224c-0.736 0-1.456-0.136-2.16-0.408s-1.28-0.675-1.728-1.208l1.44-1.344c0.277 0.384 0.648 0.688 1.112 0.912s0.92 0.336 1.368 0.336c0.235 0 0.475-0.029 0.72-0.088s0.467-0.157 0.664-0.296c0.197-0.139 0.357-0.312 0.48-0.52s0.184-0.467 0.184-0.776c0-0.299-0.069-0.547-0.208-0.744s-0.325-0.368-0.56-0.512c-0.235-0.144-0.512-0.269-0.832-0.376l-1.008-0.336c-0.341-0.107-0.683-0.235-1.024-0.384s-0.648-0.347-0.92-0.592c-0.272-0.245-0.493-0.547-0.664-0.904s-0.256-0.803-0.256-1.336c0-0.576 0.12-1.072 0.36-1.488s0.555-0.76 0.944-1.032c0.389-0.272 0.832-0.475 1.328-0.608s1-0.2 1.512-0.2c0.576 0 1.16 0.101 1.752 0.304s1.107 0.507 1.544 0.912l-1.312 1.44zM75.989 15.52c0-0.907 0.152-1.725 0.456-2.456s0.725-1.352 1.264-1.864c0.539-0.512 1.179-0.907 1.92-1.184s1.549-0.416 2.424-0.416c0.885 0 1.701 0.139 2.448 0.416s1.392 0.672 1.936 1.184c0.544 0.512 0.968 1.133 1.272 1.864s0.456 1.549 0.456 2.456c0 0.885-0.152 1.693-0.456 2.424s-0.728 1.36-1.272 1.888c-0.544 0.528-1.189 0.939-1.936 1.232s-1.563 0.44-2.448 0.44c-0.875 0-1.683-0.147-2.424-0.44s-1.381-0.704-1.92-1.232c-0.539-0.528-0.96-1.157-1.264-1.888s-0.456-1.539-0.456-2.424zM78.181 15.52c0 0.608 0.093 1.165 0.28 1.672s0.453 0.947 0.8 1.32c0.347 0.373 0.757 0.664 1.232 0.872s1 0.312 1.576 0.312c0.576 0 1.104-0.104 1.584-0.312s0.893-0.499 1.24-0.872c0.347-0.373 0.613-0.813 0.8-1.32s0.28-1.064 0.28-1.672c0-0.587-0.093-1.131-0.28-1.632s-0.451-0.939-0.792-1.312c-0.341-0.373-0.752-0.667-1.232-0.88s-1.013-0.32-1.6-0.32c-0.587 0-1.117 0.107-1.592 0.32s-0.883 0.507-1.224 0.88c-0.341 0.373-0.605 0.811-0.792 1.312s-0.28 1.045-0.28 1.632zM90.651 9.888h3.936c0.533 0 1.051 0.056 1.552 0.168s0.947 0.296 1.336 0.552c0.389 0.256 0.701 0.592 0.936 1.008s0.352 0.923 0.352 1.52c0 0.821-0.232 1.491-0.696 2.008s-1.096 0.867-1.896 1.048l3.024 5.024h-2.432l-2.624-4.8h-1.472v4.8h-2.016v-11.328zM94.315 14.768c0.288 0 0.576-0.021 0.864-0.064s0.547-0.123 0.776-0.24c0.229-0.117 0.419-0.285 0.568-0.504s0.224-0.499 0.224-0.84c0-0.309-0.069-0.563-0.208-0.76s-0.315-0.355-0.528-0.472c-0.213-0.117-0.456-0.197-0.728-0.24s-0.536-0.064-0.792-0.064h-1.824v3.184h1.648zM104.8 9.888h1.744l4.88 11.328h-2.304l-1.056-2.592h-4.912l-1.024 2.592h-2.256l4.928-11.328zM107.36 16.896l-1.744-4.608-1.776 4.608h3.52zM113.077 9.888h3.152l2.944 8.048h0.048l2.912-8.048h3.168v11.328h-2v-9.104h-0.032l-3.44 9.104h-1.408l-3.392-9.104h-0.032v9.104h-1.92v-11.328zM127.787 15.52c0-0.907 0.152-1.725 0.456-2.456s0.725-1.352 1.264-1.864c0.539-0.512 1.179-0.907 1.92-1.184s1.549-0.416 2.424-0.416c0.885 0 1.701 0.139 2.448 0.416s1.392 0.672 1.936 1.184c0.544 0.512 0.968 1.133 1.272 1.864s0.456 1.549 0.456 2.456c0 0.885-0.152 1.693-0.456 2.424s-0.728 1.36-1.272 1.888c-0.544 0.528-1.189 0.939-1.936 1.232s-1.563 0.44-2.448 0.44c-0.875 0-1.683-0.147-2.424-0.44s-1.381-0.704-1.92-1.232c-0.539-0.528-0.96-1.157-1.264-1.888s-0.456-1.539-0.456-2.424zM129.979 15.52c0 0.608 0.093 1.165 0.28 1.672s0.453 0.947 0.8 1.32c0.347 0.373 0.757 0.664 1.232 0.872s1 0.312 1.576 0.312c0.576 0 1.104-0.104 1.584-0.312s0.893-0.499 1.24-0.872c0.347-0.373 0.613-0.813 0.8-1.32s0.28-1.064 0.28-1.672c0-0.587-0.093-1.131-0.28-1.632s-0.451-0.939-0.792-1.312c-0.341-0.373-0.752-0.667-1.232-0.88s-1.013-0.32-1.6-0.32c-0.587 0-1.117 0.107-1.592 0.32s-0.883 0.507-1.224 0.88c-0.341 0.373-0.605 0.811-0.792 1.312s-0.28 1.045-0.28 1.632zM148.224 12.256c-0.213-0.277-0.515-0.509-0.904-0.696s-0.781-0.28-1.176-0.28c-0.235 0-0.469 0.029-0.704 0.088s-0.448 0.149-0.64 0.272c-0.192 0.123-0.349 0.283-0.472 0.48s-0.184 0.435-0.184 0.712c0 0.256 0.053 0.475 0.16 0.656s0.253 0.336 0.44 0.464c0.187 0.128 0.413 0.24 0.68 0.336s0.56 0.192 0.88 0.288c0.363 0.117 0.739 0.251 1.128 0.4s0.747 0.347 1.072 0.592c0.325 0.245 0.592 0.555 0.8 0.928s0.312 0.837 0.312 1.392c0 0.608-0.112 1.139-0.336 1.592s-0.523 0.829-0.896 1.128c-0.373 0.299-0.811 0.523-1.312 0.672s-1.029 0.224-1.584 0.224c-0.736 0-1.456-0.136-2.16-0.408s-1.28-0.675-1.728-1.208l1.44-1.344c0.277 0.384 0.648 0.688 1.112 0.912s0.92 0.336 1.368 0.336c0.235 0 0.475-0.029 0.72-0.088s0.467-0.157 0.664-0.296c0.197-0.139 0.357-0.312 0.48-0.52s0.184-0.467 0.184-0.776c0-0.299-0.069-0.547-0.208-0.744s-0.325-0.368-0.56-0.512c-0.235-0.144-0.512-0.269-0.832-0.376l-1.008-0.336c-0.341-0.107-0.683-0.235-1.024-0.384s-0.648-0.347-0.92-0.592c-0.272-0.245-0.493-0.547-0.664-0.904s-0.256-0.803-0.256-1.336c0-0.576 0.12-1.072 0.36-1.488s0.555-0.76 0.944-1.032c0.389-0.272 0.832-0.475 1.328-0.608s1-0.2 1.512-0.2c0.576 0 1.16 0.101 1.752 0.304s1.107 0.507 1.544 0.912l-1.312 1.44z"></path>
        </symbol>
        <symbol id="svg-advise_pt" viewBox="0 0 163 32">
            <title>advise_pt</title>
            <path fill="#f2e1fb" style="fill: var(--color5, #f2e1fb)" d="M158.4 32h-153.6c-2.651 0-4.8-2.149-4.8-4.8v-22.4c0-2.651 2.149-4.8 4.8-4.8h153.6c2.651 0 4.8 2.149 4.8 4.8v22.4c0 2.651-2.149 4.8-4.8 4.8z"></path>
            <path fill="#8100c2" style="fill: var(--color6, #8100c2)" d="M23.068 11.234v4.54c0 0.162-0.132 0.294-0.294 0.294s-0.294-0.132-0.294-0.294v-6.304c0-0.487-0.395-0.882-0.882-0.882v0c-0.487 0-0.882 0.395-0.882 0.882v5.716c0 0.162-0.132 0.294-0.294 0.294s-0.294-0.132-0.294-0.294v-6.304c0-0.487-0.395-0.882-0.882-0.882v0c-0.487 0-0.882 0.395-0.882 0.882v6.304c0 0.162-0.132 0.294-0.294 0.294s-0.294-0.132-0.294-0.294v-5.128c0-0.487-0.395-0.882-0.882-0.882v0c-0.487 0-0.882 0.395-0.882 0.882v8.067l-1.191-1.629c-0.353-0.544-1.041-0.726-1.546-0.415-0.503 0.319-0.627 1.014-0.279 1.556 0 0 1.92 2.906 2.739 4.15s2.144 2.217 4.624 2.217c4.105 0 4.472-3.17 4.472-4.116 0-2.885 0-5.77 0-8.655v0c0-0.487-0.395-0.882-0.882-0.882v0c-0.487 0-0.882 0.395-0.882 0.882z"></path>
            <path fill="#8100c2" style="fill: var(--color6, #8100c2)" d="M38.528 9.888h1.744l4.88 11.328h-2.304l-1.056-2.592h-4.912l-1.024 2.592h-2.256l4.928-11.328zM41.088 16.896l-1.744-4.608-1.776 4.608h3.52zM54.693 12.544c-0.299-0.405-0.688-0.701-1.168-0.888s-0.949-0.28-1.408-0.28c-0.587 0-1.12 0.107-1.6 0.32s-0.893 0.507-1.24 0.88c-0.347 0.373-0.613 0.811-0.8 1.312s-0.28 1.045-0.28 1.632c0 0.619 0.091 1.184 0.272 1.696s0.44 0.952 0.776 1.32c0.336 0.368 0.739 0.653 1.208 0.856s0.997 0.304 1.584 0.304c0.608 0 1.147-0.12 1.616-0.36s0.848-0.557 1.136-0.952l1.616 1.136c-0.501 0.629-1.115 1.117-1.84 1.464s-1.573 0.52-2.544 0.52c-0.885 0-1.699-0.147-2.44-0.44s-1.379-0.704-1.912-1.232c-0.533-0.528-0.949-1.157-1.248-1.888s-0.448-1.539-0.448-2.424c0-0.907 0.157-1.725 0.472-2.456s0.747-1.352 1.296-1.864c0.549-0.512 1.197-0.907 1.944-1.184s1.557-0.416 2.432-0.416c0.363 0 0.741 0.035 1.136 0.104s0.773 0.176 1.136 0.32c0.363 0.144 0.704 0.323 1.024 0.536s0.592 0.469 0.816 0.768l-1.536 1.216zM57.451 15.52c0-0.907 0.152-1.725 0.456-2.456s0.725-1.352 1.264-1.864c0.539-0.512 1.179-0.907 1.92-1.184s1.549-0.416 2.424-0.416c0.885 0 1.701 0.139 2.448 0.416s1.392 0.672 1.936 1.184c0.544 0.512 0.968 1.133 1.272 1.864s0.456 1.549 0.456 2.456c0 0.885-0.152 1.693-0.456 2.424s-0.728 1.36-1.272 1.888c-0.544 0.528-1.189 0.939-1.936 1.232s-1.563 0.44-2.448 0.44c-0.875 0-1.683-0.147-2.424-0.44s-1.381-0.704-1.92-1.232c-0.539-0.528-0.96-1.157-1.264-1.888s-0.456-1.539-0.456-2.424zM59.643 15.52c0 0.608 0.093 1.165 0.28 1.672s0.453 0.947 0.8 1.32c0.347 0.373 0.757 0.664 1.232 0.872s1 0.312 1.576 0.312c0.576 0 1.104-0.104 1.584-0.312s0.893-0.499 1.24-0.872c0.347-0.373 0.613-0.813 0.8-1.32s0.28-1.064 0.28-1.672c0-0.587-0.093-1.131-0.28-1.632s-0.451-0.939-0.792-1.312c-0.341-0.373-0.752-0.667-1.232-0.88s-1.013-0.32-1.6-0.32c-0.587 0-1.117 0.107-1.592 0.32s-0.883 0.507-1.224 0.88c-0.341 0.373-0.605 0.811-0.792 1.312s-0.28 1.045-0.28 1.632zM72.112 9.888h2.672l5.264 8.48h0.032v-8.48h2.016v11.328h-2.56l-5.376-8.752h-0.032v8.752h-2.016v-11.328zM90.901 12.256c-0.213-0.277-0.515-0.509-0.904-0.696s-0.781-0.28-1.176-0.28c-0.235 0-0.469 0.029-0.704 0.088s-0.448 0.149-0.64 0.272c-0.192 0.123-0.349 0.283-0.472 0.48s-0.184 0.435-0.184 0.712c0 0.256 0.053 0.475 0.16 0.656s0.253 0.336 0.44 0.464c0.187 0.128 0.413 0.24 0.68 0.336s0.56 0.192 0.88 0.288c0.363 0.117 0.739 0.251 1.128 0.4s0.747 0.347 1.072 0.592c0.325 0.245 0.592 0.555 0.8 0.928s0.312 0.837 0.312 1.392c0 0.608-0.112 1.139-0.336 1.592s-0.523 0.829-0.896 1.128c-0.373 0.299-0.811 0.523-1.312 0.672s-1.029 0.224-1.584 0.224c-0.736 0-1.456-0.136-2.16-0.408s-1.28-0.675-1.728-1.208l1.44-1.344c0.277 0.384 0.648 0.688 1.112 0.912s0.92 0.336 1.368 0.336c0.235 0 0.475-0.029 0.72-0.088s0.467-0.157 0.664-0.296c0.197-0.139 0.357-0.312 0.48-0.52s0.184-0.467 0.184-0.776c0-0.299-0.069-0.547-0.208-0.744s-0.325-0.368-0.56-0.512c-0.235-0.144-0.512-0.269-0.832-0.376l-1.008-0.336c-0.341-0.107-0.683-0.235-1.024-0.384s-0.648-0.347-0.92-0.592c-0.272-0.245-0.493-0.547-0.664-0.904s-0.256-0.803-0.256-1.336c0-0.576 0.12-1.072 0.36-1.488s0.555-0.76 0.944-1.032c0.389-0.272 0.832-0.475 1.328-0.608s1-0.2 1.512-0.2c0.576 0 1.16 0.101 1.752 0.304s1.107 0.507 1.544 0.912l-1.312 1.44zM94.843 9.888h7.504v1.76h-5.488v2.88h5.2v1.696h-5.2v3.2h5.776v1.792h-7.792v-11.328zM105.136 9.888h2.016v9.536h4.816v1.792h-6.832v-11.328zM113.845 9.888h2.016v4.576h5.296v-4.576h2.016v11.328h-2.016v-5.024h-5.296v5.024h-2.016v-11.328zM129.755 9.888h1.744l4.88 11.328h-2.304l-1.056-2.592h-4.912l-1.024 2.592h-2.256l4.928-11.328zM132.315 16.896l-1.744-4.608-1.776 4.608h3.52zM138.032 9.888h3.936c0.533 0 1.051 0.056 1.552 0.168s0.947 0.296 1.336 0.552c0.389 0.256 0.701 0.592 0.936 1.008s0.352 0.923 0.352 1.52c0 0.821-0.232 1.491-0.696 2.008s-1.096 0.867-1.896 1.048l3.024 5.024h-2.432l-2.624-4.8h-1.472v4.8h-2.016v-11.328zM141.696 14.768c0.288 0 0.576-0.021 0.864-0.064s0.547-0.123 0.776-0.24c0.229-0.117 0.419-0.285 0.568-0.504s0.224-0.499 0.224-0.84c0-0.309-0.069-0.563-0.208-0.76s-0.315-0.355-0.528-0.472c-0.213-0.117-0.456-0.197-0.728-0.24s-0.536-0.064-0.792-0.064h-1.824v3.184h1.648z"></path>
        </symbol>
        <symbol id="svg-advise_ru" viewBox="0 0 138 32">
            <title>advise_ru</title>
            <path fill="#f2e1fb" style="fill: var(--color1, #f2e1fb)" d="M132.8 32h-128c-2.651 0-4.8-2.149-4.8-4.8v-22.4c0-2.651 2.149-4.8 4.8-4.8h128c2.651 0 4.8 2.149 4.8 4.8v22.4c0 2.651-2.149 4.8-4.8 4.8z"></path>
            <path fill="#8100c2" style="fill: var(--color2, #8100c2)" d="M21.919 11.481v3.575c0 0.162-0.132 0.294-0.294 0.294s-0.294-0.132-0.294-0.294v-5.838c0-0.487-0.395-0.882-0.882-0.882v0 0c-0.487 0-0.882 0.395-0.882 0.882v5.25c0 0.162-0.132 0.294-0.294 0.294s-0.294-0.132-0.294-0.294v-5.838c0-0.487-0.395-0.882-0.882-0.882v0 0c-0.487 0-0.882 0.395-0.882 0.882v5.838c0 0.162-0.132 0.294-0.294 0.294s-0.294-0.132-0.294-0.294v-4.662c0-0.487-0.395-0.882-0.882-0.882v0 0c-0.487 0-0.882 0.395-0.882 0.882v7.602l-1.191-1.629c-0.353-0.544-1.041-0.726-1.546-0.415-0.503 0.319-0.627 1.014-0.279 1.556 0 0 1.92 2.906 2.739 4.15s2.144 2.217 4.624 2.217c4.105 0 4.472-3.17 4.472-4.116 0-2.563 0-5.127 0-7.69v0c0-0.487-0.395-0.882-0.882-0.882v0 0c-0.487 0-0.882 0.395-0.882 0.882z"></path>
            <path fill="#8100c2" style="fill: var(--color2, #8100c2)" d="M43.936 19.552c-0.448 0.576-1.032 1.051-1.752 1.424s-1.576 0.56-2.568 0.56c-0.864 0-1.664-0.147-2.4-0.44s-1.371-0.704-1.904-1.232c-0.533-0.528-0.952-1.16-1.256-1.896s-0.456-1.541-0.456-2.416c0-0.885 0.155-1.693 0.464-2.424s0.733-1.357 1.272-1.88c0.539-0.523 1.176-0.928 1.912-1.216s1.531-0.432 2.384-0.432c0.821 0 1.608 0.152 2.36 0.456s1.347 0.728 1.784 1.272l-1.44 1.328c-0.245-0.363-0.603-0.661-1.072-0.896s-0.992-0.352-1.568-0.352c-0.597 0-1.136 0.109-1.616 0.328s-0.891 0.515-1.232 0.888c-0.341 0.373-0.605 0.811-0.792 1.312s-0.28 1.040-0.28 1.616c0 0.587 0.093 1.133 0.28 1.64s0.448 0.947 0.784 1.32c0.336 0.373 0.744 0.667 1.224 0.88s1.019 0.32 1.616 0.32c0.587 0 1.125-0.12 1.616-0.36s0.891-0.584 1.2-1.032l1.44 1.232zM57.541 15.536c0 0.885-0.152 1.693-0.456 2.424s-0.725 1.363-1.264 1.896c-0.539 0.533-1.179 0.947-1.92 1.24s-1.544 0.44-2.408 0.44c-0.864 0-1.664-0.147-2.4-0.44s-1.376-0.707-1.92-1.24c-0.544-0.533-0.968-1.165-1.272-1.896s-0.456-1.539-0.456-2.424c0-0.885 0.152-1.693 0.456-2.424s0.728-1.355 1.272-1.872c0.544-0.517 1.184-0.92 1.92-1.208s1.536-0.432 2.4-0.432c0.864 0 1.667 0.144 2.408 0.432s1.381 0.691 1.92 1.208c0.539 0.517 0.96 1.141 1.264 1.872s0.456 1.539 0.456 2.424zM55.397 15.536c0-0.565-0.091-1.099-0.272-1.6s-0.443-0.939-0.784-1.312c-0.341-0.373-0.752-0.669-1.232-0.888s-1.019-0.328-1.616-0.328c-0.597 0-1.136 0.109-1.616 0.328s-0.891 0.515-1.232 0.888c-0.341 0.373-0.603 0.811-0.784 1.312s-0.272 1.035-0.272 1.6c0 0.576 0.093 1.12 0.28 1.632s0.448 0.955 0.784 1.328c0.336 0.373 0.744 0.669 1.224 0.888s1.019 0.328 1.616 0.328c0.587 0 1.123-0.109 1.608-0.328s0.896-0.515 1.232-0.888c0.336-0.373 0.597-0.816 0.784-1.328s0.28-1.056 0.28-1.632zM60.171 9.904h3.984c0.437 0 0.88 0.045 1.328 0.136s0.851 0.245 1.208 0.464c0.357 0.219 0.651 0.515 0.88 0.888s0.344 0.848 0.344 1.424c0 0.608-0.176 1.125-0.528 1.552s-0.816 0.72-1.392 0.88v0.032c0.341 0.053 0.661 0.152 0.96 0.296s0.557 0.331 0.776 0.56c0.219 0.229 0.389 0.501 0.512 0.816s0.184 0.669 0.184 1.064c0 0.544-0.112 1.019-0.336 1.424s-0.531 0.741-0.92 1.008c-0.389 0.267-0.843 0.464-1.36 0.592s-1.069 0.192-1.656 0.192h-3.984v-11.328zM62.123 14.624h1.856c0.267 0 0.52-0.029 0.76-0.088s0.451-0.152 0.632-0.28c0.181-0.128 0.325-0.291 0.432-0.488s0.16-0.44 0.16-0.728c0-0.533-0.203-0.917-0.608-1.152s-0.933-0.352-1.584-0.352h-1.648v3.088zM62.123 19.584h1.808c0.309 0 0.613-0.029 0.912-0.088s0.563-0.155 0.792-0.288c0.229-0.133 0.416-0.312 0.56-0.536s0.216-0.501 0.216-0.832c0-0.608-0.213-1.043-0.64-1.304s-1.008-0.392-1.744-0.392h-1.904v3.44zM73.088 19.504h5.632v1.728h-7.584v-11.328h7.344v1.728h-5.392v2.944h5.056v1.648h-5.056v3.28zM85.557 21.232h-2.016v-9.6h-3.472v-1.728h8.96v1.728h-3.472v9.6zM92.091 9.904l2.96 6.464 2.864-6.464h2.192l-4.080 8.864c-0.181 0.395-0.379 0.757-0.592 1.088s-0.464 0.616-0.752 0.856c-0.288 0.24-0.616 0.429-0.984 0.568s-0.792 0.208-1.272 0.208c-0.341 0-0.632-0.024-0.872-0.072s-0.443-0.109-0.608-0.184c-0.165-0.075-0.307-0.155-0.424-0.24s-0.219-0.165-0.304-0.24l1.168-1.472c0.117 0.107 0.275 0.219 0.472 0.336s0.435 0.176 0.712 0.176c0.299 0 0.56-0.093 0.784-0.28s0.437-0.461 0.64-0.824l-4.128-8.784h2.224zM103.904 19.504h5.632v1.728h-7.584v-11.328h7.344v1.728h-5.392v2.944h5.056v1.648h-5.056v3.28zM118.149 18.144h0.032l3.088-8.24h2.944v11.328h-1.984l0.032-8.848h-0.032l-3.472 8.848h-1.312l-3.44-8.848h-0.032l0.032 8.848h-1.92v-11.328h2.896l3.168 8.24z"></path>
        </symbol>
        <symbol id="svg-cashback_en" viewBox="0 0 139 32">
            <title>cashback_en</title>
            <path fill="#cde77b" style="fill: var(--color3, #cde77b)" d="M134.4 32h-129.6c-2.651 0-4.8-2.149-4.8-4.8v-22.4c0-2.651 2.149-4.8 4.8-4.8h129.6c2.651 0 4.8 2.149 4.8 4.8v22.4c0 2.651-2.149 4.8-4.8 4.8z"></path>
            <path fill="#577200" style="fill: var(--color4, #577200)" d="M16.080 17.936l-1.968 3.312h-4.512l4.048-5.904-3.84-5.424h4.592l1.792 2.976 1.712-2.976h4.48l-3.776 5.376 4.176 5.952h-4.656l-2.048-3.312zM28.608 14.704c0.181-0.139 0.331-0.293 0.448-0.464s0.176-0.347 0.176-0.528c0-0.213-0.067-0.4-0.2-0.56s-0.344-0.24-0.632-0.24c-0.309 0-0.565 0.123-0.768 0.368s-0.315 0.576-0.336 0.992l-3.632-0.416c0.075-0.736 0.267-1.371 0.576-1.904s0.696-0.976 1.16-1.328c0.464-0.352 0.981-0.611 1.552-0.776s1.16-0.248 1.768-0.248c0.555 0 1.107 0.069 1.656 0.208s1.037 0.355 1.464 0.648c0.427 0.293 0.773 0.675 1.040 1.144s0.4 1.035 0.4 1.696c0 0.469-0.061 0.883-0.184 1.24s-0.288 0.675-0.496 0.952c-0.208 0.277-0.443 0.528-0.704 0.752s-0.536 0.437-0.824 0.64l-1.664 1.184h3.904v3.184h-9.184v-2.96l4.48-3.584zM48.656 12.576c-0.299-0.405-0.688-0.701-1.168-0.888s-0.949-0.28-1.408-0.28c-0.587 0-1.12 0.107-1.6 0.32s-0.893 0.507-1.24 0.88c-0.347 0.373-0.613 0.811-0.8 1.312s-0.28 1.045-0.28 1.632c0 0.619 0.091 1.184 0.272 1.696s0.44 0.952 0.776 1.32c0.336 0.368 0.739 0.653 1.208 0.856s0.997 0.304 1.584 0.304c0.608 0 1.147-0.12 1.616-0.36s0.848-0.557 1.136-0.952l1.616 1.136c-0.501 0.629-1.115 1.117-1.84 1.464s-1.573 0.52-2.544 0.52c-0.885 0-1.699-0.147-2.44-0.44s-1.379-0.704-1.912-1.232c-0.533-0.528-0.949-1.157-1.248-1.888s-0.448-1.539-0.448-2.424c0-0.907 0.157-1.725 0.472-2.456s0.747-1.352 1.296-1.864c0.549-0.512 1.197-0.907 1.944-1.184s1.557-0.416 2.432-0.416c0.363 0 0.741 0.035 1.136 0.104s0.773 0.176 1.136 0.32c0.363 0.144 0.704 0.323 1.024 0.536s0.592 0.469 0.816 0.768l-1.536 1.216zM55.456 9.92h1.744l4.88 11.328h-2.304l-1.056-2.592h-4.912l-1.024 2.592h-2.256l4.928-11.328zM58.016 16.928l-1.744-4.608-1.776 4.608h3.52zM69.456 12.288c-0.213-0.277-0.515-0.509-0.904-0.696s-0.781-0.28-1.176-0.28c-0.235 0-0.469 0.029-0.704 0.088s-0.448 0.149-0.64 0.272c-0.192 0.123-0.349 0.283-0.472 0.48s-0.184 0.435-0.184 0.712c0 0.256 0.053 0.475 0.16 0.656s0.253 0.336 0.44 0.464c0.187 0.128 0.413 0.24 0.68 0.336s0.56 0.192 0.88 0.288c0.363 0.117 0.739 0.251 1.128 0.4s0.747 0.347 1.072 0.592c0.325 0.245 0.592 0.555 0.8 0.928s0.312 0.837 0.312 1.392c0 0.608-0.112 1.139-0.336 1.592s-0.523 0.829-0.896 1.128c-0.373 0.299-0.811 0.523-1.312 0.672s-1.029 0.224-1.584 0.224c-0.736 0-1.456-0.136-2.16-0.408s-1.28-0.675-1.728-1.208l1.44-1.344c0.277 0.384 0.648 0.688 1.112 0.912s0.92 0.336 1.368 0.336c0.235 0 0.475-0.029 0.72-0.088s0.467-0.157 0.664-0.296c0.197-0.139 0.357-0.312 0.48-0.52s0.184-0.467 0.184-0.776c0-0.299-0.069-0.547-0.208-0.744s-0.325-0.368-0.56-0.512c-0.235-0.144-0.512-0.269-0.832-0.376l-1.008-0.336c-0.341-0.107-0.683-0.235-1.024-0.384s-0.648-0.347-0.92-0.592c-0.272-0.245-0.493-0.547-0.664-0.904s-0.256-0.803-0.256-1.336c0-0.576 0.12-1.072 0.36-1.488s0.555-0.76 0.944-1.032c0.389-0.272 0.832-0.475 1.328-0.608s1-0.2 1.512-0.2c0.576 0 1.16 0.101 1.752 0.304s1.107 0.507 1.544 0.912l-1.312 1.44zM73.344 9.92h2.016v4.576h5.296v-4.576h2.016v11.328h-2.016v-5.024h-5.296v5.024h-2.016v-11.328zM85.648 9.92h4.416c0.427 0 0.848 0.051 1.264 0.152s0.787 0.267 1.112 0.496c0.325 0.229 0.589 0.525 0.792 0.888s0.304 0.8 0.304 1.312c0 0.64-0.181 1.168-0.544 1.584s-0.837 0.715-1.424 0.896v0.032c0.715 0.096 1.301 0.373 1.76 0.832s0.688 1.072 0.688 1.84c0 0.619-0.123 1.139-0.368 1.56s-0.568 0.76-0.968 1.016c-0.4 0.256-0.859 0.44-1.376 0.552s-1.043 0.168-1.576 0.168h-4.080v-11.328zM87.664 14.528h1.792c0.672 0 1.184-0.133 1.536-0.4s0.528-0.645 0.528-1.136c0-0.512-0.181-0.875-0.544-1.088s-0.928-0.32-1.696-0.32h-1.616v2.944zM87.664 19.552h1.808c0.256 0 0.533-0.019 0.832-0.056s0.573-0.115 0.824-0.232c0.251-0.117 0.459-0.288 0.624-0.512s0.248-0.523 0.248-0.896c0-0.597-0.203-1.013-0.608-1.248s-1.019-0.352-1.84-0.352h-1.888v3.296zM100.032 9.92h1.744l4.88 11.328h-2.304l-1.056-2.592h-4.912l-1.024 2.592h-2.256l4.928-11.328zM102.592 16.928l-1.744-4.608-1.776 4.608h3.52zM116.144 12.576c-0.299-0.405-0.688-0.701-1.168-0.888s-0.949-0.28-1.408-0.28c-0.587 0-1.12 0.107-1.6 0.32s-0.893 0.507-1.24 0.88c-0.347 0.373-0.613 0.811-0.8 1.312s-0.28 1.045-0.28 1.632c0 0.619 0.091 1.184 0.272 1.696s0.44 0.952 0.776 1.32c0.336 0.368 0.739 0.653 1.208 0.856s0.997 0.304 1.584 0.304c0.608 0 1.147-0.12 1.616-0.36s0.848-0.557 1.136-0.952l1.616 1.136c-0.501 0.629-1.115 1.117-1.84 1.464s-1.573 0.52-2.544 0.52c-0.885 0-1.699-0.147-2.44-0.44s-1.379-0.704-1.912-1.232c-0.533-0.528-0.949-1.157-1.248-1.888s-0.448-1.539-0.448-2.424c0-0.907 0.157-1.725 0.472-2.456s0.747-1.352 1.296-1.864c0.549-0.512 1.197-0.907 1.944-1.184s1.557-0.416 2.432-0.416c0.363 0 0.741 0.035 1.136 0.104s0.773 0.176 1.136 0.32c0.363 0.144 0.704 0.323 1.024 0.536s0.592 0.469 0.816 0.768l-1.536 1.216zM119.584 9.92h2.016v4.896h0.048l4.736-4.896h2.72l-5.296 5.232 5.648 6.096h-2.832l-4.976-5.68h-0.048v5.68h-2.016v-11.328z"></path>
        </symbol>
        <symbol id="svg-cashback_pt" viewBox="0 0 139 32">
            <title>cashback_pt</title>
            <path fill="#cde77b" style="fill: var(--color3, #cde77b)" d="M134.4 32h-129.6c-2.651 0-4.8-2.149-4.8-4.8v-22.4c0-2.651 2.149-4.8 4.8-4.8h129.6c2.651 0 4.8 2.149 4.8 4.8v22.4c0 2.651-2.149 4.8-4.8 4.8z"></path>
            <path fill="#577200" style="fill: var(--color4, #577200)" d="M16.080 17.936l-1.968 3.312h-4.512l4.048-5.904-3.84-5.424h4.592l1.792 2.976 1.712-2.976h4.48l-3.776 5.376 4.176 5.952h-4.656l-2.048-3.312zM28.608 14.704c0.181-0.139 0.331-0.293 0.448-0.464s0.176-0.347 0.176-0.528c0-0.213-0.067-0.4-0.2-0.56s-0.344-0.24-0.632-0.24c-0.309 0-0.565 0.123-0.768 0.368s-0.315 0.576-0.336 0.992l-3.632-0.416c0.075-0.736 0.267-1.371 0.576-1.904s0.696-0.976 1.16-1.328c0.464-0.352 0.981-0.611 1.552-0.776s1.16-0.248 1.768-0.248c0.555 0 1.107 0.069 1.656 0.208s1.037 0.355 1.464 0.648c0.427 0.293 0.773 0.675 1.040 1.144s0.4 1.035 0.4 1.696c0 0.469-0.061 0.883-0.184 1.24s-0.288 0.675-0.496 0.952c-0.208 0.277-0.443 0.528-0.704 0.752s-0.536 0.437-0.824 0.64l-1.664 1.184h3.904v3.184h-9.184v-2.96l4.48-3.584zM48.656 12.576c-0.299-0.405-0.688-0.701-1.168-0.888s-0.949-0.28-1.408-0.28c-0.587 0-1.12 0.107-1.6 0.32s-0.893 0.507-1.24 0.88c-0.347 0.373-0.613 0.811-0.8 1.312s-0.28 1.045-0.28 1.632c0 0.619 0.091 1.184 0.272 1.696s0.44 0.952 0.776 1.32c0.336 0.368 0.739 0.653 1.208 0.856s0.997 0.304 1.584 0.304c0.608 0 1.147-0.12 1.616-0.36s0.848-0.557 1.136-0.952l1.616 1.136c-0.501 0.629-1.115 1.117-1.84 1.464s-1.573 0.52-2.544 0.52c-0.885 0-1.699-0.147-2.44-0.44s-1.379-0.704-1.912-1.232c-0.533-0.528-0.949-1.157-1.248-1.888s-0.448-1.539-0.448-2.424c0-0.907 0.157-1.725 0.472-2.456s0.747-1.352 1.296-1.864c0.549-0.512 1.197-0.907 1.944-1.184s1.557-0.416 2.432-0.416c0.363 0 0.741 0.035 1.136 0.104s0.773 0.176 1.136 0.32c0.363 0.144 0.704 0.323 1.024 0.536s0.592 0.469 0.816 0.768l-1.536 1.216zM55.456 9.92h1.744l4.88 11.328h-2.304l-1.056-2.592h-4.912l-1.024 2.592h-2.256l4.928-11.328zM58.016 16.928l-1.744-4.608-1.776 4.608h3.52zM69.456 12.288c-0.213-0.277-0.515-0.509-0.904-0.696s-0.781-0.28-1.176-0.28c-0.235 0-0.469 0.029-0.704 0.088s-0.448 0.149-0.64 0.272c-0.192 0.123-0.349 0.283-0.472 0.48s-0.184 0.435-0.184 0.712c0 0.256 0.053 0.475 0.16 0.656s0.253 0.336 0.44 0.464c0.187 0.128 0.413 0.24 0.68 0.336s0.56 0.192 0.88 0.288c0.363 0.117 0.739 0.251 1.128 0.4s0.747 0.347 1.072 0.592c0.325 0.245 0.592 0.555 0.8 0.928s0.312 0.837 0.312 1.392c0 0.608-0.112 1.139-0.336 1.592s-0.523 0.829-0.896 1.128c-0.373 0.299-0.811 0.523-1.312 0.672s-1.029 0.224-1.584 0.224c-0.736 0-1.456-0.136-2.16-0.408s-1.28-0.675-1.728-1.208l1.44-1.344c0.277 0.384 0.648 0.688 1.112 0.912s0.92 0.336 1.368 0.336c0.235 0 0.475-0.029 0.72-0.088s0.467-0.157 0.664-0.296c0.197-0.139 0.357-0.312 0.48-0.52s0.184-0.467 0.184-0.776c0-0.299-0.069-0.547-0.208-0.744s-0.325-0.368-0.56-0.512c-0.235-0.144-0.512-0.269-0.832-0.376l-1.008-0.336c-0.341-0.107-0.683-0.235-1.024-0.384s-0.648-0.347-0.92-0.592c-0.272-0.245-0.493-0.547-0.664-0.904s-0.256-0.803-0.256-1.336c0-0.576 0.12-1.072 0.36-1.488s0.555-0.76 0.944-1.032c0.389-0.272 0.832-0.475 1.328-0.608s1-0.2 1.512-0.2c0.576 0 1.16 0.101 1.752 0.304s1.107 0.507 1.544 0.912l-1.312 1.44zM73.344 9.92h2.016v4.576h5.296v-4.576h2.016v11.328h-2.016v-5.024h-5.296v5.024h-2.016v-11.328zM85.648 9.92h4.416c0.427 0 0.848 0.051 1.264 0.152s0.787 0.267 1.112 0.496c0.325 0.229 0.589 0.525 0.792 0.888s0.304 0.8 0.304 1.312c0 0.64-0.181 1.168-0.544 1.584s-0.837 0.715-1.424 0.896v0.032c0.715 0.096 1.301 0.373 1.76 0.832s0.688 1.072 0.688 1.84c0 0.619-0.123 1.139-0.368 1.56s-0.568 0.76-0.968 1.016c-0.4 0.256-0.859 0.44-1.376 0.552s-1.043 0.168-1.576 0.168h-4.080v-11.328zM87.664 14.528h1.792c0.672 0 1.184-0.133 1.536-0.4s0.528-0.645 0.528-1.136c0-0.512-0.181-0.875-0.544-1.088s-0.928-0.32-1.696-0.32h-1.616v2.944zM87.664 19.552h1.808c0.256 0 0.533-0.019 0.832-0.056s0.573-0.115 0.824-0.232c0.251-0.117 0.459-0.288 0.624-0.512s0.248-0.523 0.248-0.896c0-0.597-0.203-1.013-0.608-1.248s-1.019-0.352-1.84-0.352h-1.888v3.296zM100.032 9.92h1.744l4.88 11.328h-2.304l-1.056-2.592h-4.912l-1.024 2.592h-2.256l4.928-11.328zM102.592 16.928l-1.744-4.608-1.776 4.608h3.52zM116.144 12.576c-0.299-0.405-0.688-0.701-1.168-0.888s-0.949-0.28-1.408-0.28c-0.587 0-1.12 0.107-1.6 0.32s-0.893 0.507-1.24 0.88c-0.347 0.373-0.613 0.811-0.8 1.312s-0.28 1.045-0.28 1.632c0 0.619 0.091 1.184 0.272 1.696s0.44 0.952 0.776 1.32c0.336 0.368 0.739 0.653 1.208 0.856s0.997 0.304 1.584 0.304c0.608 0 1.147-0.12 1.616-0.36s0.848-0.557 1.136-0.952l1.616 1.136c-0.501 0.629-1.115 1.117-1.84 1.464s-1.573 0.52-2.544 0.52c-0.885 0-1.699-0.147-2.44-0.44s-1.379-0.704-1.912-1.232c-0.533-0.528-0.949-1.157-1.248-1.888s-0.448-1.539-0.448-2.424c0-0.907 0.157-1.725 0.472-2.456s0.747-1.352 1.296-1.864c0.549-0.512 1.197-0.907 1.944-1.184s1.557-0.416 2.432-0.416c0.363 0 0.741 0.035 1.136 0.104s0.773 0.176 1.136 0.32c0.363 0.144 0.704 0.323 1.024 0.536s0.592 0.469 0.816 0.768l-1.536 1.216zM119.584 9.92h2.016v4.896h0.048l4.736-4.896h2.72l-5.296 5.232 5.648 6.096h-2.832l-4.976-5.68h-0.048v5.68h-2.016v-11.328z"></path>
        </symbol>
        <symbol id="svg-cashback_es" viewBox="0 0 139 32">
            <title>cashback_es</title>
            <path fill="#cde77b" style="fill: var(--color3, #cde77b)" d="M134.4 32h-129.6c-2.651 0-4.8-2.149-4.8-4.8v-22.4c0-2.651 2.149-4.8 4.8-4.8h129.6c2.651 0 4.8 2.149 4.8 4.8v22.4c0 2.651-2.149 4.8-4.8 4.8z"></path>
            <path fill="#577200" style="fill: var(--color4, #577200)" d="M16.080 17.936l-1.968 3.312h-4.512l4.048-5.904-3.84-5.424h4.592l1.792 2.976 1.712-2.976h4.48l-3.776 5.376 4.176 5.952h-4.656l-2.048-3.312zM28.608 14.704c0.181-0.139 0.331-0.293 0.448-0.464s0.176-0.347 0.176-0.528c0-0.213-0.067-0.4-0.2-0.56s-0.344-0.24-0.632-0.24c-0.309 0-0.565 0.123-0.768 0.368s-0.315 0.576-0.336 0.992l-3.632-0.416c0.075-0.736 0.267-1.371 0.576-1.904s0.696-0.976 1.16-1.328c0.464-0.352 0.981-0.611 1.552-0.776s1.16-0.248 1.768-0.248c0.555 0 1.107 0.069 1.656 0.208s1.037 0.355 1.464 0.648c0.427 0.293 0.773 0.675 1.040 1.144s0.4 1.035 0.4 1.696c0 0.469-0.061 0.883-0.184 1.24s-0.288 0.675-0.496 0.952c-0.208 0.277-0.443 0.528-0.704 0.752s-0.536 0.437-0.824 0.64l-1.664 1.184h3.904v3.184h-9.184v-2.96l4.48-3.584zM48.656 12.576c-0.299-0.405-0.688-0.701-1.168-0.888s-0.949-0.28-1.408-0.28c-0.587 0-1.12 0.107-1.6 0.32s-0.893 0.507-1.24 0.88c-0.347 0.373-0.613 0.811-0.8 1.312s-0.28 1.045-0.28 1.632c0 0.619 0.091 1.184 0.272 1.696s0.44 0.952 0.776 1.32c0.336 0.368 0.739 0.653 1.208 0.856s0.997 0.304 1.584 0.304c0.608 0 1.147-0.12 1.616-0.36s0.848-0.557 1.136-0.952l1.616 1.136c-0.501 0.629-1.115 1.117-1.84 1.464s-1.573 0.52-2.544 0.52c-0.885 0-1.699-0.147-2.44-0.44s-1.379-0.704-1.912-1.232c-0.533-0.528-0.949-1.157-1.248-1.888s-0.448-1.539-0.448-2.424c0-0.907 0.157-1.725 0.472-2.456s0.747-1.352 1.296-1.864c0.549-0.512 1.197-0.907 1.944-1.184s1.557-0.416 2.432-0.416c0.363 0 0.741 0.035 1.136 0.104s0.773 0.176 1.136 0.32c0.363 0.144 0.704 0.323 1.024 0.536s0.592 0.469 0.816 0.768l-1.536 1.216zM55.456 9.92h1.744l4.88 11.328h-2.304l-1.056-2.592h-4.912l-1.024 2.592h-2.256l4.928-11.328zM58.016 16.928l-1.744-4.608-1.776 4.608h3.52zM69.456 12.288c-0.213-0.277-0.515-0.509-0.904-0.696s-0.781-0.28-1.176-0.28c-0.235 0-0.469 0.029-0.704 0.088s-0.448 0.149-0.64 0.272c-0.192 0.123-0.349 0.283-0.472 0.48s-0.184 0.435-0.184 0.712c0 0.256 0.053 0.475 0.16 0.656s0.253 0.336 0.44 0.464c0.187 0.128 0.413 0.24 0.68 0.336s0.56 0.192 0.88 0.288c0.363 0.117 0.739 0.251 1.128 0.4s0.747 0.347 1.072 0.592c0.325 0.245 0.592 0.555 0.8 0.928s0.312 0.837 0.312 1.392c0 0.608-0.112 1.139-0.336 1.592s-0.523 0.829-0.896 1.128c-0.373 0.299-0.811 0.523-1.312 0.672s-1.029 0.224-1.584 0.224c-0.736 0-1.456-0.136-2.16-0.408s-1.28-0.675-1.728-1.208l1.44-1.344c0.277 0.384 0.648 0.688 1.112 0.912s0.92 0.336 1.368 0.336c0.235 0 0.475-0.029 0.72-0.088s0.467-0.157 0.664-0.296c0.197-0.139 0.357-0.312 0.48-0.52s0.184-0.467 0.184-0.776c0-0.299-0.069-0.547-0.208-0.744s-0.325-0.368-0.56-0.512c-0.235-0.144-0.512-0.269-0.832-0.376l-1.008-0.336c-0.341-0.107-0.683-0.235-1.024-0.384s-0.648-0.347-0.92-0.592c-0.272-0.245-0.493-0.547-0.664-0.904s-0.256-0.803-0.256-1.336c0-0.576 0.12-1.072 0.36-1.488s0.555-0.76 0.944-1.032c0.389-0.272 0.832-0.475 1.328-0.608s1-0.2 1.512-0.2c0.576 0 1.16 0.101 1.752 0.304s1.107 0.507 1.544 0.912l-1.312 1.44zM73.344 9.92h2.016v4.576h5.296v-4.576h2.016v11.328h-2.016v-5.024h-5.296v5.024h-2.016v-11.328zM85.648 9.92h4.416c0.427 0 0.848 0.051 1.264 0.152s0.787 0.267 1.112 0.496c0.325 0.229 0.589 0.525 0.792 0.888s0.304 0.8 0.304 1.312c0 0.64-0.181 1.168-0.544 1.584s-0.837 0.715-1.424 0.896v0.032c0.715 0.096 1.301 0.373 1.76 0.832s0.688 1.072 0.688 1.84c0 0.619-0.123 1.139-0.368 1.56s-0.568 0.76-0.968 1.016c-0.4 0.256-0.859 0.44-1.376 0.552s-1.043 0.168-1.576 0.168h-4.080v-11.328zM87.664 14.528h1.792c0.672 0 1.184-0.133 1.536-0.4s0.528-0.645 0.528-1.136c0-0.512-0.181-0.875-0.544-1.088s-0.928-0.32-1.696-0.32h-1.616v2.944zM87.664 19.552h1.808c0.256 0 0.533-0.019 0.832-0.056s0.573-0.115 0.824-0.232c0.251-0.117 0.459-0.288 0.624-0.512s0.248-0.523 0.248-0.896c0-0.597-0.203-1.013-0.608-1.248s-1.019-0.352-1.84-0.352h-1.888v3.296zM100.032 9.92h1.744l4.88 11.328h-2.304l-1.056-2.592h-4.912l-1.024 2.592h-2.256l4.928-11.328zM102.592 16.928l-1.744-4.608-1.776 4.608h3.52zM116.144 12.576c-0.299-0.405-0.688-0.701-1.168-0.888s-0.949-0.28-1.408-0.28c-0.587 0-1.12 0.107-1.6 0.32s-0.893 0.507-1.24 0.88c-0.347 0.373-0.613 0.811-0.8 1.312s-0.28 1.045-0.28 1.632c0 0.619 0.091 1.184 0.272 1.696s0.44 0.952 0.776 1.32c0.336 0.368 0.739 0.653 1.208 0.856s0.997 0.304 1.584 0.304c0.608 0 1.147-0.12 1.616-0.36s0.848-0.557 1.136-0.952l1.616 1.136c-0.501 0.629-1.115 1.117-1.84 1.464s-1.573 0.52-2.544 0.52c-0.885 0-1.699-0.147-2.44-0.44s-1.379-0.704-1.912-1.232c-0.533-0.528-0.949-1.157-1.248-1.888s-0.448-1.539-0.448-2.424c0-0.907 0.157-1.725 0.472-2.456s0.747-1.352 1.296-1.864c0.549-0.512 1.197-0.907 1.944-1.184s1.557-0.416 2.432-0.416c0.363 0 0.741 0.035 1.136 0.104s0.773 0.176 1.136 0.32c0.363 0.144 0.704 0.323 1.024 0.536s0.592 0.469 0.816 0.768l-1.536 1.216zM119.584 9.92h2.016v4.896h0.048l4.736-4.896h2.72l-5.296 5.232 5.648 6.096h-2.832l-4.976-5.68h-0.048v5.68h-2.016v-11.328z"></path>
        </symbol>
        <symbol id="svg-cashback_ru" viewBox="0 0 120 32">
            <title>cashback_ru</title>
            <path fill="#cde77b" style="fill: var(--color3, #cde77b)" d="M115.2 32h-110.4c-2.651 0-4.8-2.149-4.8-4.8v-22.4c0-2.651 2.149-4.8 4.8-4.8h110.4c2.651 0 4.8 2.149 4.8 4.8v22.4c0 2.651-2.149 4.8-4.8 4.8z"></path>
            <path fill="#577200" style="fill: var(--color4, #577200)" d="M16.080 17.936l-1.968 3.312h-4.512l4.048-5.904-3.84-5.424h4.592l1.792 2.976 1.712-2.976h4.48l-3.776 5.376 4.176 5.952h-4.656l-2.048-3.312zM28.608 14.704c0.181-0.139 0.331-0.293 0.448-0.464s0.176-0.347 0.176-0.528c0-0.213-0.067-0.4-0.2-0.56s-0.344-0.24-0.632-0.24c-0.309 0-0.565 0.123-0.768 0.368s-0.315 0.576-0.336 0.992l-3.632-0.416c0.075-0.736 0.267-1.371 0.576-1.904s0.696-0.976 1.16-1.328c0.464-0.352 0.981-0.611 1.552-0.776s1.16-0.248 1.768-0.248c0.555 0 1.107 0.069 1.656 0.208s1.037 0.355 1.464 0.648c0.427 0.293 0.773 0.675 1.040 1.144s0.4 1.035 0.4 1.696c0 0.469-0.061 0.883-0.184 1.24s-0.288 0.675-0.496 0.952c-0.208 0.277-0.443 0.528-0.704 0.752s-0.536 0.437-0.824 0.64l-1.664 1.184h3.904v3.184h-9.184v-2.96l4.48-3.584zM40.56 21.248v-11.328h2v4.432c0.213 0 0.421 0.008 0.624 0.024s0.405 0.035 0.608 0.056l3.84-4.512h2.192l-4.048 4.976c1.141 0.448 2.056 1.184 2.744 2.208s1.181 2.405 1.48 4.144h-2.192c-0.171-0.907-0.392-1.691-0.664-2.352s-0.616-1.205-1.032-1.632c-0.416-0.427-0.917-0.736-1.504-0.928s-1.269-0.277-2.048-0.256v5.168h-2zM54.24 19.52h5.632v1.728h-7.584v-11.328h7.344v1.728h-5.392v2.944h5.056v1.648h-5.056v3.28zM68.080 19.52v-9.6h2v9.6h3.616v-9.6h2v11.328h-13.328v-11.328h2v9.6h3.712zM82.528 19.52c0.693 0 1.259-0.141 1.696-0.424s0.656-0.712 0.656-1.288c0-0.288-0.059-0.539-0.176-0.752s-0.28-0.387-0.488-0.52c-0.208-0.133-0.453-0.232-0.736-0.296s-0.589-0.096-0.92-0.096h-1.728v3.376h1.696zM78.832 21.248v-11.328h7.328v1.728h-5.328v2.768h1.888c0.597 0 1.152 0.067 1.664 0.2s0.952 0.341 1.32 0.624c0.368 0.283 0.656 0.637 0.864 1.064s0.312 0.928 0.312 1.504c0 0.587-0.109 1.096-0.328 1.528s-0.517 0.789-0.896 1.072c-0.379 0.283-0.824 0.493-1.336 0.632s-1.061 0.208-1.648 0.208h-3.84zM88.608 19.584l1.328-1.2c0.384 0.48 0.851 0.824 1.4 1.032s1.123 0.312 1.72 0.312c0.491 0 0.949-0.080 1.376-0.24s0.805-0.389 1.136-0.688c0.331-0.299 0.605-0.659 0.824-1.080s0.36-0.899 0.424-1.432h-6.032v-1.616h6c-0.171-1.013-0.595-1.808-1.272-2.384s-1.517-0.864-2.52-0.864c-0.373 0-0.717 0.040-1.032 0.12s-0.595 0.189-0.84 0.328c-0.245 0.139-0.459 0.293-0.64 0.464s-0.325 0.341-0.432 0.512l-1.248-1.312c0.405-0.555 0.987-1.011 1.744-1.368s1.632-0.536 2.624-0.536c0.907 0 1.717 0.149 2.432 0.448s1.32 0.712 1.816 1.24c0.496 0.528 0.877 1.155 1.144 1.88s0.4 1.52 0.4 2.384c0 0.864-0.144 1.659-0.432 2.384s-0.693 1.352-1.216 1.88c-0.523 0.528-1.149 0.941-1.88 1.24s-1.539 0.448-2.424 0.448c-1.024 0-1.912-0.181-2.664-0.544s-1.331-0.832-1.736-1.408zM101.536 21.248v-11.328h2v4.432c0.213 0 0.421 0.008 0.624 0.024s0.405 0.035 0.608 0.056l3.84-4.512h2.192l-4.048 4.976c1.141 0.448 2.056 1.184 2.744 2.208s1.181 2.405 1.48 4.144h-2.192c-0.171-0.907-0.392-1.691-0.664-2.352s-0.616-1.205-1.032-1.632c-0.416-0.427-0.917-0.736-1.504-0.928s-1.269-0.277-2.048-0.256v5.168h-2z"></path>
        </symbol>
        <symbol id="svg-sale_en" viewBox="0 0 91 32">
            <title>sale_en</title>
            <path fill="#ffd5a3" style="fill: var(--color5, #ffd5a3)" d="M86.4 32h-81.6c-2.651 0-4.8-2.149-4.8-4.8v-22.4c0-2.651 2.149-4.8 4.8-4.8h81.6c2.651 0 4.8 2.149 4.8 4.8v22.4c0 2.651-2.149 4.8-4.8 4.8z"></path>
            <path fill="#bd741c" style="fill: var(--color6, #bd741c)" d="M43.424 12.256c-0.213-0.277-0.515-0.509-0.904-0.696s-0.781-0.28-1.176-0.28c-0.235 0-0.469 0.029-0.704 0.088s-0.448 0.149-0.64 0.272c-0.192 0.123-0.349 0.283-0.472 0.48s-0.184 0.435-0.184 0.712c0 0.256 0.053 0.475 0.16 0.656s0.253 0.336 0.44 0.464c0.187 0.128 0.413 0.24 0.68 0.336s0.56 0.192 0.88 0.288c0.363 0.117 0.739 0.251 1.128 0.4s0.747 0.347 1.072 0.592c0.325 0.245 0.592 0.555 0.8 0.928s0.312 0.837 0.312 1.392c0 0.608-0.112 1.139-0.336 1.592s-0.523 0.829-0.896 1.128c-0.373 0.299-0.811 0.523-1.312 0.672s-1.029 0.224-1.584 0.224c-0.736 0-1.456-0.136-2.16-0.408s-1.28-0.675-1.728-1.208l1.44-1.344c0.277 0.384 0.648 0.688 1.112 0.912s0.92 0.336 1.368 0.336c0.235 0 0.475-0.029 0.72-0.088s0.467-0.157 0.664-0.296c0.197-0.139 0.357-0.312 0.48-0.52s0.184-0.467 0.184-0.776c0-0.299-0.069-0.547-0.208-0.744s-0.325-0.368-0.56-0.512c-0.235-0.144-0.512-0.269-0.832-0.376l-1.008-0.336c-0.341-0.107-0.683-0.235-1.024-0.384s-0.648-0.347-0.92-0.592c-0.272-0.245-0.493-0.547-0.664-0.904s-0.256-0.803-0.256-1.336c0-0.576 0.12-1.072 0.36-1.488s0.555-0.76 0.944-1.032c0.389-0.272 0.832-0.475 1.328-0.608s1-0.2 1.512-0.2c0.576 0 1.16 0.101 1.752 0.304s1.107 0.507 1.544 0.912l-1.312 1.44zM50.864 9.888h1.744l4.88 11.328h-2.304l-1.056-2.592h-4.912l-1.024 2.592h-2.256l4.928-11.328zM53.424 16.896l-1.744-4.608-1.776 4.608h3.52zM59.088 9.888h2.016v9.536h4.816v1.792h-6.832v-11.328zM67.744 9.888h7.504v1.76h-5.488v2.88h5.2v1.696h-5.2v3.2h5.776v1.792h-7.792v-11.328z"></path>
            <path fill="#bd741c" style="fill: var(--color6, #bd741c)" d="M21.998 20.389c0.055-0.623 0.21-1.192 0.468-1.709s0.589-0.962 0.995-1.337c0.406-0.375 0.862-0.657 1.369-0.846s1.043-0.259 1.609-0.209c0.566 0.050 1.082 0.211 1.548 0.485s0.866 0.631 1.201 1.071c0.335 0.44 0.584 0.936 0.747 1.489s0.218 1.141 0.164 1.764c-0.055 0.623-0.21 1.192-0.468 1.709s-0.589 0.962-0.995 1.337c-0.406 0.375-0.862 0.657-1.369 0.846s-1.043 0.259-1.609 0.209c-0.566-0.050-1.082-0.211-1.548-0.485s-0.866-0.631-1.201-1.071c-0.335-0.44-0.584-0.936-0.747-1.489s-0.218-1.141-0.164-1.764zM28.007 20.915c0.053-0.607-0.091-1.134-0.432-1.583s-0.787-0.696-1.339-0.745c-0.552-0.048-1.034 0.119-1.448 0.501s-0.647 0.877-0.7 1.483c-0.053 0.607 0.091 1.134 0.432 1.583s0.787 0.696 1.339 0.745c0.552 0.048 1.034-0.119 1.448-0.501s0.647-0.877 0.7-1.483zM12.344 10.855c0.055-0.623 0.21-1.192 0.468-1.709s0.589-0.962 0.995-1.337c0.406-0.375 0.862-0.657 1.368-0.846s1.043-0.259 1.609-0.209c0.566 0.050 1.082 0.211 1.548 0.485s0.866 0.631 1.201 1.071c0.335 0.44 0.584 0.936 0.747 1.489s0.218 1.141 0.164 1.764c-0.055 0.623-0.21 1.192-0.468 1.709s-0.589 0.962-0.995 1.337c-0.406 0.375-0.862 0.657-1.369 0.846s-1.043 0.259-1.609 0.209c-0.566-0.050-1.082-0.211-1.548-0.485s-0.866-0.631-1.201-1.071c-0.335-0.44-0.584-0.936-0.747-1.489s-0.218-1.141-0.164-1.764zM18.354 11.381c0.053-0.607-0.091-1.134-0.432-1.583s-0.787-0.696-1.339-0.745c-0.552-0.048-1.034 0.119-1.448 0.501s-0.647 0.877-0.7 1.483c-0.053 0.607 0.091 1.134 0.432 1.583s0.787 0.696 1.339 0.745c0.552 0.048 1.034-0.119 1.448-0.501s0.647-0.877 0.7-1.483zM27.22 8.075v0 0c0.445 0.332 0.537 0.963 0.205 1.408-0.002 0.002-0.004 0.005-0.006 0.007l-10.79 14.185c-0.34 0.448-0.978 0.537-1.429 0.201v0 0c-0.445-0.332-0.537-0.963-0.205-1.408 0.002-0.002 0.004-0.005 0.006-0.007l10.79-14.185c0.34-0.448 0.978-0.537 1.429-0.201z"></path>
        </symbol>
        <symbol id="svg-sale_es" viewBox="0 0 149 32">
            <title>sale_es</title>
            <path fill="#ffd5a3" style="fill: var(--color5, #ffd5a3)" d="M144 32h-139.2c-2.651 0-4.8-2.149-4.8-4.8v-22.4c0-2.651 2.149-4.8 4.8-4.8h139.2c2.651 0 4.8 2.149 4.8 4.8v22.4c0 2.651-2.149 4.8-4.8 4.8z"></path>
            <path fill="#bd741c" style="fill: var(--color6, #bd741c)" d="M36.8 9.888h4.016c0.736 0 1.477 0.096 2.224 0.288s1.419 0.509 2.016 0.952c0.597 0.443 1.083 1.024 1.456 1.744s0.56 1.613 0.56 2.68c0 0.992-0.187 1.845-0.56 2.56s-0.859 1.301-1.456 1.76c-0.597 0.459-1.269 0.797-2.016 1.016s-1.488 0.328-2.224 0.328h-4.016v-11.328zM40.496 19.456c0.523 0 1.045-0.061 1.568-0.184s0.995-0.331 1.416-0.624c0.421-0.293 0.765-0.691 1.032-1.192s0.4-1.136 0.4-1.904c0-0.811-0.133-1.472-0.4-1.984s-0.611-0.912-1.032-1.2c-0.421-0.288-0.893-0.485-1.416-0.592s-1.045-0.16-1.568-0.16h-1.68v7.84h1.68zM49.504 9.888h7.504v1.76h-5.488v2.88h5.2v1.696h-5.2v3.2h5.776v1.792h-7.792v-11.328zM65.52 12.256c-0.213-0.277-0.515-0.509-0.904-0.696s-0.781-0.28-1.176-0.28c-0.235 0-0.469 0.029-0.704 0.088s-0.448 0.149-0.64 0.272c-0.192 0.123-0.349 0.283-0.472 0.48s-0.184 0.435-0.184 0.712c0 0.256 0.053 0.475 0.16 0.656s0.253 0.336 0.44 0.464c0.187 0.128 0.413 0.24 0.68 0.336s0.56 0.192 0.88 0.288c0.363 0.117 0.739 0.251 1.128 0.4s0.747 0.347 1.072 0.592c0.325 0.245 0.592 0.555 0.8 0.928s0.312 0.837 0.312 1.392c0 0.608-0.112 1.139-0.336 1.592s-0.523 0.829-0.896 1.128c-0.373 0.299-0.811 0.523-1.312 0.672s-1.029 0.224-1.584 0.224c-0.736 0-1.456-0.136-2.16-0.408s-1.28-0.675-1.728-1.208l1.44-1.344c0.277 0.384 0.648 0.688 1.112 0.912s0.92 0.336 1.368 0.336c0.235 0 0.475-0.029 0.72-0.088s0.467-0.157 0.664-0.296c0.197-0.139 0.357-0.312 0.48-0.52s0.184-0.467 0.184-0.776c0-0.299-0.069-0.547-0.208-0.744s-0.325-0.368-0.56-0.512c-0.235-0.144-0.512-0.269-0.832-0.376l-1.008-0.336c-0.341-0.107-0.683-0.235-1.024-0.384s-0.648-0.347-0.92-0.592c-0.272-0.245-0.493-0.547-0.664-0.904s-0.256-0.803-0.256-1.336c0-0.576 0.12-1.072 0.36-1.488s0.555-0.76 0.944-1.032c0.389-0.272 0.832-0.475 1.328-0.608s1-0.2 1.512-0.2c0.576 0 1.16 0.101 1.752 0.304s1.107 0.507 1.544 0.912l-1.312 1.44zM77.584 12.544c-0.299-0.405-0.688-0.701-1.168-0.888s-0.949-0.28-1.408-0.28c-0.587 0-1.12 0.107-1.6 0.32s-0.893 0.507-1.24 0.88c-0.347 0.373-0.613 0.811-0.8 1.312s-0.28 1.045-0.28 1.632c0 0.619 0.091 1.184 0.272 1.696s0.44 0.952 0.776 1.32c0.336 0.368 0.739 0.653 1.208 0.856s0.997 0.304 1.584 0.304c0.608 0 1.147-0.12 1.616-0.36s0.848-0.557 1.136-0.952l1.616 1.136c-0.501 0.629-1.115 1.117-1.84 1.464s-1.573 0.52-2.544 0.52c-0.885 0-1.699-0.147-2.44-0.44s-1.379-0.704-1.912-1.232c-0.533-0.528-0.949-1.157-1.248-1.888s-0.448-1.539-0.448-2.424c0-0.907 0.157-1.725 0.472-2.456s0.747-1.352 1.296-1.864c0.549-0.512 1.197-0.907 1.944-1.184s1.557-0.416 2.432-0.416c0.363 0 0.741 0.035 1.136 0.104s0.773 0.176 1.136 0.32c0.363 0.144 0.704 0.323 1.024 0.536s0.592 0.469 0.816 0.768l-1.536 1.216zM90.048 17.056c0 0.683-0.117 1.299-0.352 1.848s-0.555 1.016-0.96 1.4c-0.405 0.384-0.885 0.68-1.44 0.888s-1.157 0.312-1.808 0.312c-0.651 0-1.253-0.104-1.808-0.312s-1.037-0.504-1.448-0.888c-0.411-0.384-0.731-0.851-0.96-1.4s-0.344-1.165-0.344-1.848v-7.168h2.016v7.088c0 0.331 0.043 0.659 0.128 0.984s0.227 0.616 0.424 0.872c0.197 0.256 0.459 0.464 0.784 0.624s0.728 0.24 1.208 0.24c0.48 0 0.883-0.080 1.208-0.24s0.587-0.368 0.784-0.624c0.197-0.256 0.339-0.547 0.424-0.872s0.128-0.653 0.128-0.984v-7.088h2.016v7.168zM92.928 9.888h7.504v1.76h-5.488v2.88h5.2v1.696h-5.2v3.2h5.776v1.792h-7.792v-11.328zM103.168 9.888h2.672l5.264 8.48h0.032v-8.48h2.016v11.328h-2.56l-5.376-8.752h-0.032v8.752h-2.016v-11.328zM118.416 11.648h-3.472v-1.76h8.96v1.76h-3.472v9.568h-2.016v-9.568zM124.672 15.52c0-0.907 0.152-1.725 0.456-2.456s0.725-1.352 1.264-1.864c0.539-0.512 1.179-0.907 1.92-1.184s1.549-0.416 2.424-0.416c0.885 0 1.701 0.139 2.448 0.416s1.392 0.672 1.936 1.184c0.544 0.512 0.968 1.133 1.272 1.864s0.456 1.549 0.456 2.456c0 0.885-0.152 1.693-0.456 2.424s-0.728 1.36-1.272 1.888c-0.544 0.528-1.189 0.939-1.936 1.232s-1.563 0.44-2.448 0.44c-0.875 0-1.683-0.147-2.424-0.44s-1.381-0.704-1.92-1.232c-0.539-0.528-0.96-1.157-1.264-1.888s-0.456-1.539-0.456-2.424zM126.864 15.52c0 0.608 0.093 1.165 0.28 1.672s0.453 0.947 0.8 1.32c0.347 0.373 0.757 0.664 1.232 0.872s1 0.312 1.576 0.312c0.576 0 1.104-0.104 1.584-0.312s0.893-0.499 1.24-0.872c0.347-0.373 0.613-0.813 0.8-1.32s0.28-1.064 0.28-1.672c0-0.587-0.093-1.131-0.28-1.632s-0.451-0.939-0.792-1.312c-0.341-0.373-0.752-0.667-1.232-0.88s-1.013-0.32-1.6-0.32c-0.587 0-1.117 0.107-1.592 0.32s-0.883 0.507-1.224 0.88c-0.341 0.373-0.605 0.811-0.792 1.312s-0.28 1.045-0.28 1.632z"></path>
            <path fill="#bd741c" style="fill: var(--color6, #bd741c)" d="M21.998 20.389c0.055-0.623 0.21-1.192 0.468-1.709s0.589-0.962 0.995-1.337c0.406-0.375 0.862-0.657 1.369-0.846s1.043-0.259 1.609-0.209c0.566 0.050 1.082 0.211 1.548 0.485s0.866 0.631 1.201 1.071c0.335 0.44 0.584 0.936 0.747 1.489s0.218 1.141 0.164 1.764c-0.055 0.623-0.21 1.192-0.468 1.709s-0.589 0.962-0.995 1.337c-0.406 0.375-0.862 0.657-1.369 0.846s-1.043 0.259-1.609 0.209c-0.566-0.050-1.082-0.211-1.548-0.485s-0.866-0.631-1.201-1.071c-0.335-0.44-0.584-0.936-0.747-1.489s-0.218-1.141-0.164-1.764zM28.007 20.915c0.053-0.607-0.091-1.134-0.432-1.583s-0.787-0.696-1.339-0.745c-0.552-0.048-1.034 0.119-1.448 0.501s-0.647 0.877-0.7 1.483c-0.053 0.607 0.091 1.134 0.432 1.583s0.787 0.696 1.339 0.745c0.552 0.048 1.034-0.119 1.448-0.501s0.647-0.877 0.7-1.483zM12.344 10.855c0.055-0.623 0.21-1.192 0.468-1.709s0.589-0.962 0.995-1.337c0.406-0.375 0.862-0.657 1.368-0.846s1.043-0.259 1.609-0.209c0.566 0.050 1.082 0.211 1.548 0.485s0.866 0.631 1.201 1.071c0.335 0.44 0.584 0.936 0.747 1.489s0.218 1.141 0.164 1.764c-0.055 0.623-0.21 1.192-0.468 1.709s-0.589 0.962-0.995 1.337c-0.406 0.375-0.862 0.657-1.369 0.846s-1.043 0.259-1.609 0.209c-0.566-0.050-1.082-0.211-1.548-0.485s-0.866-0.631-1.201-1.071c-0.335-0.44-0.584-0.936-0.747-1.489s-0.218-1.141-0.164-1.764zM18.354 11.381c0.053-0.607-0.091-1.134-0.432-1.583s-0.787-0.696-1.339-0.745c-0.552-0.048-1.034 0.119-1.448 0.501s-0.647 0.877-0.7 1.483c-0.053 0.607 0.091 1.134 0.432 1.583s0.787 0.696 1.339 0.745c0.552 0.048 1.034-0.119 1.448-0.501s0.647-0.877 0.7-1.483zM27.22 8.075v0 0c0.445 0.332 0.537 0.963 0.205 1.408-0.002 0.002-0.004 0.005-0.006 0.007l-10.79 14.185c-0.34 0.448-0.978 0.537-1.429 0.201v0 0c-0.445-0.332-0.537-0.963-0.205-1.408 0.002-0.002 0.004-0.005 0.006-0.007l10.79-14.185c0.34-0.448 0.978-0.537 1.429-0.201z"></path>
        </symbol>
        <symbol id="svg-sale_pt" viewBox="0 0 95 32">
            <title>sale_en</title>
            <path fill="#ffd5a3" style="fill: var(--color5, #ffd5a3)" d="M86.4 32h-81.6c-2.651 0-4.8-2.149-4.8-4.8v-22.4c0-2.651 2.149-4.8 4.8-4.8h81.6c2.651 0 4.8 2.149 4.8 4.8v22.4c0 2.651-2.149 4.8-4.8 4.8z"></path>
            <path fill="#bd741c" style="fill: var(--color6, #bd741c)" d="M43.424 12.256c-0.213-0.277-0.515-0.509-0.904-0.696s-0.781-0.28-1.176-0.28c-0.235 0-0.469 0.029-0.704 0.088s-0.448 0.149-0.64 0.272c-0.192 0.123-0.349 0.283-0.472 0.48s-0.184 0.435-0.184 0.712c0 0.256 0.053 0.475 0.16 0.656s0.253 0.336 0.44 0.464c0.187 0.128 0.413 0.24 0.68 0.336s0.56 0.192 0.88 0.288c0.363 0.117 0.739 0.251 1.128 0.4s0.747 0.347 1.072 0.592c0.325 0.245 0.592 0.555 0.8 0.928s0.312 0.837 0.312 1.392c0 0.608-0.112 1.139-0.336 1.592s-0.523 0.829-0.896 1.128c-0.373 0.299-0.811 0.523-1.312 0.672s-1.029 0.224-1.584 0.224c-0.736 0-1.456-0.136-2.16-0.408s-1.28-0.675-1.728-1.208l1.44-1.344c0.277 0.384 0.648 0.688 1.112 0.912s0.92 0.336 1.368 0.336c0.235 0 0.475-0.029 0.72-0.088s0.467-0.157 0.664-0.296c0.197-0.139 0.357-0.312 0.48-0.52s0.184-0.467 0.184-0.776c0-0.299-0.069-0.547-0.208-0.744s-0.325-0.368-0.56-0.512c-0.235-0.144-0.512-0.269-0.832-0.376l-1.008-0.336c-0.341-0.107-0.683-0.235-1.024-0.384s-0.648-0.347-0.92-0.592c-0.272-0.245-0.493-0.547-0.664-0.904s-0.256-0.803-0.256-1.336c0-0.576 0.12-1.072 0.36-1.488s0.555-0.76 0.944-1.032c0.389-0.272 0.832-0.475 1.328-0.608s1-0.2 1.512-0.2c0.576 0 1.16 0.101 1.752 0.304s1.107 0.507 1.544 0.912l-1.312 1.44zM50.864 9.888h1.744l4.88 11.328h-2.304l-1.056-2.592h-4.912l-1.024 2.592h-2.256l4.928-11.328zM53.424 16.896l-1.744-4.608-1.776 4.608h3.52zM59.088 9.888h2.016v9.536h4.816v1.792h-6.832v-11.328zM67.744 9.888h7.504v1.76h-5.488v2.88h5.2v1.696h-5.2v3.2h5.776v1.792h-7.792v-11.328z"></path>
            <path fill="#bd741c" style="fill: var(--color6, #bd741c)" d="M21.998 20.389c0.055-0.623 0.21-1.192 0.468-1.709s0.589-0.962 0.995-1.337c0.406-0.375 0.862-0.657 1.369-0.846s1.043-0.259 1.609-0.209c0.566 0.050 1.082 0.211 1.548 0.485s0.866 0.631 1.201 1.071c0.335 0.44 0.584 0.936 0.747 1.489s0.218 1.141 0.164 1.764c-0.055 0.623-0.21 1.192-0.468 1.709s-0.589 0.962-0.995 1.337c-0.406 0.375-0.862 0.657-1.369 0.846s-1.043 0.259-1.609 0.209c-0.566-0.050-1.082-0.211-1.548-0.485s-0.866-0.631-1.201-1.071c-0.335-0.44-0.584-0.936-0.747-1.489s-0.218-1.141-0.164-1.764zM28.007 20.915c0.053-0.607-0.091-1.134-0.432-1.583s-0.787-0.696-1.339-0.745c-0.552-0.048-1.034 0.119-1.448 0.501s-0.647 0.877-0.7 1.483c-0.053 0.607 0.091 1.134 0.432 1.583s0.787 0.696 1.339 0.745c0.552 0.048 1.034-0.119 1.448-0.501s0.647-0.877 0.7-1.483zM12.344 10.855c0.055-0.623 0.21-1.192 0.468-1.709s0.589-0.962 0.995-1.337c0.406-0.375 0.862-0.657 1.368-0.846s1.043-0.259 1.609-0.209c0.566 0.050 1.082 0.211 1.548 0.485s0.866 0.631 1.201 1.071c0.335 0.44 0.584 0.936 0.747 1.489s0.218 1.141 0.164 1.764c-0.055 0.623-0.21 1.192-0.468 1.709s-0.589 0.962-0.995 1.337c-0.406 0.375-0.862 0.657-1.369 0.846s-1.043 0.259-1.609 0.209c-0.566-0.050-1.082-0.211-1.548-0.485s-0.866-0.631-1.201-1.071c-0.335-0.44-0.584-0.936-0.747-1.489s-0.218-1.141-0.164-1.764zM18.354 11.381c0.053-0.607-0.091-1.134-0.432-1.583s-0.787-0.696-1.339-0.745c-0.552-0.048-1.034 0.119-1.448 0.501s-0.647 0.877-0.7 1.483c-0.053 0.607 0.091 1.134 0.432 1.583s0.787 0.696 1.339 0.745c0.552 0.048 1.034-0.119 1.448-0.501s0.647-0.877 0.7-1.483zM27.22 8.075v0 0c0.445 0.332 0.537 0.963 0.205 1.408-0.002 0.002-0.004 0.005-0.006 0.007l-10.79 14.185c-0.34 0.448-0.978 0.537-1.429 0.201v0 0c-0.445-0.332-0.537-0.963-0.205-1.408 0.002-0.002 0.004-0.005 0.006-0.007l10.79-14.185c0.34-0.448 0.978-0.537 1.429-0.201z"></path>
        </symbol>
        <symbol id="svg-sale_ru" viewBox="0 0 109 32">
            <title>sale_ru</title>
            <path fill="#ffd5a3" style="fill: var(--color5, #ffd5a3)" d="M104 32h-99.2c-2.651 0-4.8-2.149-4.8-4.8v-22.4c0-2.651 2.149-4.8 4.8-4.8h99.2c2.651 0 4.8 2.149 4.8 4.8v22.4c0 2.651-2.149 4.8-4.8 4.8z"></path>
            <path fill="#bd741c" style="fill: var(--color6, #bd741c)" d="M38.992 20.928h-2.192l4.816-11.328h1.952l4.784 11.328h-2.24l-1.040-2.576h-5.072l-1.008 2.576zM40.624 16.688h3.84l-1.904-4.864-1.936 4.864zM50.112 20.928v-11.328h2v4.432c0.213 0 0.421 0.008 0.624 0.024s0.405 0.035 0.608 0.056l3.84-4.512h2.192l-4.048 4.976c1.141 0.448 2.056 1.184 2.744 2.208s1.181 2.405 1.48 4.144h-2.192c-0.171-0.907-0.392-1.691-0.664-2.352s-0.616-1.205-1.032-1.632c-0.416-0.427-0.917-0.736-1.504-0.928s-1.269-0.277-2.048-0.256v5.168h-2zM61.84 20.928v-11.328h2v9.6h5.024v-9.6h2v9.6h1.296v3.952h-1.744v-2.224h-8.576zM76.432 18.112l5.568-8.512h2.336v11.328h-2v-8.512h-0.032l-5.584 8.512h-2.32v-11.328h2v8.512h0.032zM93.504 11.328h-1.6c-0.928 0-1.616 0.131-2.064 0.392s-0.672 0.675-0.672 1.24c0 0.48 0.219 0.864 0.656 1.152s1.131 0.432 2.080 0.432h1.6v-3.216zM89.584 15.536c-0.768-0.128-1.384-0.413-1.848-0.856s-0.696-1.043-0.696-1.8c-0.011-1.067 0.392-1.88 1.208-2.44s1.971-0.84 3.464-0.84h3.792v11.328h-2v-4.656h-1.12c-0.501 0-0.96 0.091-1.376 0.272s-0.784 0.459-1.104 0.832c-0.32 0.373-0.584 0.856-0.792 1.448s-0.355 1.293-0.44 2.104h-2.176c0.043-0.672 0.155-1.293 0.336-1.864s0.408-1.083 0.68-1.536c0.272-0.453 0.584-0.845 0.936-1.176s0.731-0.592 1.136-0.784v-0.032z"></path>
            <path fill="#bd741c" style="fill: var(--color6, #bd741c)" d="M21.266 21.213c0.055-0.623 0.21-1.192 0.468-1.709s0.589-0.962 0.995-1.337c0.406-0.375 0.862-0.657 1.369-0.846s1.043-0.259 1.609-0.209c0.566 0.050 1.082 0.211 1.548 0.485s0.866 0.631 1.201 1.071c0.335 0.44 0.584 0.936 0.747 1.489s0.218 1.141 0.164 1.764c-0.055 0.623-0.21 1.192-0.468 1.709s-0.589 0.962-0.995 1.337c-0.406 0.375-0.862 0.657-1.369 0.846s-1.043 0.259-1.609 0.209c-0.566-0.050-1.082-0.211-1.548-0.485s-0.866-0.631-1.201-1.071c-0.335-0.44-0.584-0.936-0.747-1.489s-0.218-1.141-0.164-1.764zM27.276 21.739c0.053-0.607-0.091-1.134-0.432-1.583s-0.787-0.696-1.339-0.745c-0.552-0.048-1.034 0.119-1.448 0.501s-0.647 0.877-0.7 1.483c-0.053 0.607 0.091 1.134 0.432 1.583s0.787 0.696 1.339 0.745c0.552 0.048 1.034-0.119 1.448-0.501s0.647-0.877 0.7-1.483zM11.613 11.679c0.055-0.623 0.21-1.192 0.468-1.709s0.589-0.962 0.995-1.337c0.406-0.375 0.862-0.657 1.368-0.846s1.043-0.259 1.609-0.209c0.566 0.050 1.082 0.211 1.548 0.485s0.866 0.631 1.201 1.071c0.335 0.44 0.584 0.936 0.747 1.489s0.218 1.141 0.164 1.764c-0.055 0.623-0.21 1.192-0.468 1.709s-0.589 0.962-0.995 1.337c-0.406 0.375-0.862 0.657-1.369 0.846s-1.043 0.259-1.609 0.209c-0.566-0.050-1.082-0.211-1.548-0.485s-0.866-0.631-1.201-1.071c-0.335-0.44-0.584-0.936-0.747-1.489s-0.218-1.141-0.164-1.764zM17.622 12.205c0.053-0.607-0.091-1.134-0.432-1.583s-0.787-0.696-1.339-0.745c-0.552-0.048-1.034 0.119-1.448 0.501s-0.647 0.877-0.7 1.483c-0.053 0.607 0.091 1.134 0.432 1.583s0.787 0.696 1.339 0.745c0.552 0.048 1.034-0.119 1.448-0.501s0.647-0.877 0.7-1.483zM26.488 8.899v0 0c0.445 0.332 0.537 0.963 0.205 1.408-0.002 0.002-0.004 0.005-0.006 0.007l-10.79 14.185c-0.34 0.448-0.978 0.537-1.429 0.201v0 0c-0.445-0.332-0.537-0.963-0.205-1.408 0.002-0.002 0.004-0.005 0.006-0.007l10.79-14.185c0.34-0.448 0.978-0.537 1.429-0.201z"></path>
        </symbol>
        <symbol id="svg-top_en" viewBox="0 0 74 32">
            <title>top_en</title>
            <path fill="#ffd3d3" style="fill: var(--color7, #ffd3d3)" d="M68.8 32h-64c-2.651 0-4.8-2.149-4.8-4.8v-22.4c0-2.651 2.149-4.8 4.8-4.8h64c2.651 0 4.8 2.149 4.8 4.8v22.4c0 2.651-2.149 4.8-4.8 4.8z"></path>
            <path fill="#c42626" style="fill: var(--color8, #c42626)" d="M35.472 11.648h-3.472v-1.76h8.96v1.76h-3.472v9.568h-2.016v-9.568zM41.728 15.52c0-0.907 0.152-1.725 0.456-2.456s0.725-1.352 1.264-1.864c0.539-0.512 1.179-0.907 1.92-1.184s1.549-0.416 2.424-0.416c0.885 0 1.701 0.139 2.448 0.416s1.392 0.672 1.936 1.184c0.544 0.512 0.968 1.133 1.272 1.864s0.456 1.549 0.456 2.456c0 0.885-0.152 1.693-0.456 2.424s-0.728 1.36-1.272 1.888c-0.544 0.528-1.189 0.939-1.936 1.232s-1.563 0.44-2.448 0.44c-0.875 0-1.683-0.147-2.424-0.44s-1.381-0.704-1.92-1.232c-0.539-0.528-0.96-1.157-1.264-1.888s-0.456-1.539-0.456-2.424zM43.92 15.52c0 0.608 0.093 1.165 0.28 1.672s0.453 0.947 0.8 1.32c0.347 0.373 0.757 0.664 1.232 0.872s1 0.312 1.576 0.312c0.576 0 1.104-0.104 1.584-0.312s0.893-0.499 1.24-0.872c0.347-0.373 0.613-0.813 0.8-1.32s0.28-1.064 0.28-1.672c0-0.587-0.093-1.131-0.28-1.632s-0.451-0.939-0.792-1.312c-0.341-0.373-0.752-0.667-1.232-0.88s-1.013-0.32-1.6-0.32c-0.587 0-1.117 0.107-1.592 0.32s-0.883 0.507-1.224 0.88c-0.341 0.373-0.605 0.811-0.792 1.312s-0.28 1.045-0.28 1.632zM56.336 9.888h3.696c0.651 0 1.237 0.059 1.76 0.176s0.971 0.309 1.344 0.576c0.373 0.267 0.661 0.608 0.864 1.024s0.304 0.917 0.304 1.504c0 0.629-0.117 1.157-0.352 1.584s-0.552 0.771-0.952 1.032c-0.4 0.261-0.867 0.451-1.4 0.568s-1.099 0.176-1.696 0.176h-1.552v4.688h-2.016v-11.328zM59.76 14.832c0.331 0 0.645-0.024 0.944-0.072s0.565-0.133 0.8-0.256c0.235-0.123 0.421-0.291 0.56-0.504s0.208-0.491 0.208-0.832c0-0.331-0.069-0.6-0.208-0.808s-0.323-0.371-0.552-0.488c-0.229-0.117-0.491-0.195-0.784-0.232s-0.595-0.056-0.904-0.056h-1.472v3.248h1.408z"></path>
            <path fill="#c42626" style="fill: var(--color8, #c42626)" d="M15.013 22.379c0.225 0.083 0.462-0.097 0.325-0.246-0.748-0.808-1.456-2.169-0.328-3.92 1.881-2.921 3.026-4.434 3.026-4.434s0.609 1.766 2.26 3.336c1.589 1.511 2.458 3.411 1.056 4.994-0.132 0.149 0.1 0.324 0.324 0.244 1.735-0.617 3.682-1.853 3.901-4.314 0.081-0.752-0.040-1.805-0.648-3.133-0.781-1.684-1.741-2.47-2.296-2.807-0.166-0.101-0.424-0.011-0.411 0.142 0.162 1.817-0.822 2.278-1.382 1.239-0.224-0.415-0.354-1.133-0.354-2.007 0-1.455-0.608-2.953-1.948-4.171-0.349-0.317-0.756-0.612-1.224-0.865-0.169-0.091-0.415 0-0.399 0.149 0.103 0.987 0.010 3.814-3.562 7.192-3.238 3.133-1.984 5.54-1.538 6.192 0.851 1.249 2.039 1.982 3.199 2.41z"></path>
        </symbol>
        <symbol id="svg-top_es" viewBox="0 0 74 32">
            <title>top_es</title>
            <path fill="#ffd3d3" style="fill: var(--color7, #ffd3d3)" d="M68.8 32h-64c-2.651 0-4.8-2.149-4.8-4.8v-22.4c0-2.651 2.149-4.8 4.8-4.8h64c2.651 0 4.8 2.149 4.8 4.8v22.4c0 2.651-2.149 4.8-4.8 4.8z"></path>
            <path fill="#c42626" style="fill: var(--color8, #c42626)" d="M35.472 11.648h-3.472v-1.76h8.96v1.76h-3.472v9.568h-2.016v-9.568zM41.728 15.52c0-0.907 0.152-1.725 0.456-2.456s0.725-1.352 1.264-1.864c0.539-0.512 1.179-0.907 1.92-1.184s1.549-0.416 2.424-0.416c0.885 0 1.701 0.139 2.448 0.416s1.392 0.672 1.936 1.184c0.544 0.512 0.968 1.133 1.272 1.864s0.456 1.549 0.456 2.456c0 0.885-0.152 1.693-0.456 2.424s-0.728 1.36-1.272 1.888c-0.544 0.528-1.189 0.939-1.936 1.232s-1.563 0.44-2.448 0.44c-0.875 0-1.683-0.147-2.424-0.44s-1.381-0.704-1.92-1.232c-0.539-0.528-0.96-1.157-1.264-1.888s-0.456-1.539-0.456-2.424zM43.92 15.52c0 0.608 0.093 1.165 0.28 1.672s0.453 0.947 0.8 1.32c0.347 0.373 0.757 0.664 1.232 0.872s1 0.312 1.576 0.312c0.576 0 1.104-0.104 1.584-0.312s0.893-0.499 1.24-0.872c0.347-0.373 0.613-0.813 0.8-1.32s0.28-1.064 0.28-1.672c0-0.587-0.093-1.131-0.28-1.632s-0.451-0.939-0.792-1.312c-0.341-0.373-0.752-0.667-1.232-0.88s-1.013-0.32-1.6-0.32c-0.587 0-1.117 0.107-1.592 0.32s-0.883 0.507-1.224 0.88c-0.341 0.373-0.605 0.811-0.792 1.312s-0.28 1.045-0.28 1.632zM56.336 9.888h3.696c0.651 0 1.237 0.059 1.76 0.176s0.971 0.309 1.344 0.576c0.373 0.267 0.661 0.608 0.864 1.024s0.304 0.917 0.304 1.504c0 0.629-0.117 1.157-0.352 1.584s-0.552 0.771-0.952 1.032c-0.4 0.261-0.867 0.451-1.4 0.568s-1.099 0.176-1.696 0.176h-1.552v4.688h-2.016v-11.328zM59.76 14.832c0.331 0 0.645-0.024 0.944-0.072s0.565-0.133 0.8-0.256c0.235-0.123 0.421-0.291 0.56-0.504s0.208-0.491 0.208-0.832c0-0.331-0.069-0.6-0.208-0.808s-0.323-0.371-0.552-0.488c-0.229-0.117-0.491-0.195-0.784-0.232s-0.595-0.056-0.904-0.056h-1.472v3.248h1.408z"></path>
            <path fill="#c42626" style="fill: var(--color8, #c42626)" d="M15.013 22.379c0.225 0.083 0.462-0.097 0.325-0.246-0.748-0.808-1.456-2.169-0.328-3.92 1.881-2.921 3.026-4.434 3.026-4.434s0.609 1.766 2.26 3.336c1.589 1.511 2.458 3.411 1.056 4.994-0.132 0.149 0.1 0.324 0.324 0.244 1.735-0.617 3.682-1.853 3.901-4.314 0.081-0.752-0.040-1.805-0.648-3.133-0.781-1.684-1.741-2.47-2.296-2.807-0.166-0.101-0.424-0.011-0.411 0.142 0.162 1.817-0.822 2.278-1.382 1.239-0.224-0.415-0.354-1.133-0.354-2.007 0-1.455-0.608-2.953-1.948-4.171-0.349-0.317-0.756-0.612-1.224-0.865-0.169-0.091-0.415 0-0.399 0.149 0.103 0.987 0.010 3.814-3.562 7.192-3.238 3.133-1.984 5.54-1.538 6.192 0.851 1.249 2.039 1.982 3.199 2.41z"></path>
        </symbol>
        <symbol id="svg-top_pt" viewBox="0 0 74 32">
            <title>top_pt</title>
            <path fill="#ffd3d3" style="fill: var(--color7, #ffd3d3)" d="M68.8 32h-64c-2.651 0-4.8-2.149-4.8-4.8v-22.4c0-2.651 2.149-4.8 4.8-4.8h64c2.651 0 4.8 2.149 4.8 4.8v22.4c0 2.651-2.149 4.8-4.8 4.8z"></path>
            <path fill="#c42626" style="fill: var(--color8, #c42626)" d="M35.472 11.648h-3.472v-1.76h8.96v1.76h-3.472v9.568h-2.016v-9.568zM41.728 15.52c0-0.907 0.152-1.725 0.456-2.456s0.725-1.352 1.264-1.864c0.539-0.512 1.179-0.907 1.92-1.184s1.549-0.416 2.424-0.416c0.885 0 1.701 0.139 2.448 0.416s1.392 0.672 1.936 1.184c0.544 0.512 0.968 1.133 1.272 1.864s0.456 1.549 0.456 2.456c0 0.885-0.152 1.693-0.456 2.424s-0.728 1.36-1.272 1.888c-0.544 0.528-1.189 0.939-1.936 1.232s-1.563 0.44-2.448 0.44c-0.875 0-1.683-0.147-2.424-0.44s-1.381-0.704-1.92-1.232c-0.539-0.528-0.96-1.157-1.264-1.888s-0.456-1.539-0.456-2.424zM43.92 15.52c0 0.608 0.093 1.165 0.28 1.672s0.453 0.947 0.8 1.32c0.347 0.373 0.757 0.664 1.232 0.872s1 0.312 1.576 0.312c0.576 0 1.104-0.104 1.584-0.312s0.893-0.499 1.24-0.872c0.347-0.373 0.613-0.813 0.8-1.32s0.28-1.064 0.28-1.672c0-0.587-0.093-1.131-0.28-1.632s-0.451-0.939-0.792-1.312c-0.341-0.373-0.752-0.667-1.232-0.88s-1.013-0.32-1.6-0.32c-0.587 0-1.117 0.107-1.592 0.32s-0.883 0.507-1.224 0.88c-0.341 0.373-0.605 0.811-0.792 1.312s-0.28 1.045-0.28 1.632zM56.336 9.888h3.696c0.651 0 1.237 0.059 1.76 0.176s0.971 0.309 1.344 0.576c0.373 0.267 0.661 0.608 0.864 1.024s0.304 0.917 0.304 1.504c0 0.629-0.117 1.157-0.352 1.584s-0.552 0.771-0.952 1.032c-0.4 0.261-0.867 0.451-1.4 0.568s-1.099 0.176-1.696 0.176h-1.552v4.688h-2.016v-11.328zM59.76 14.832c0.331 0 0.645-0.024 0.944-0.072s0.565-0.133 0.8-0.256c0.235-0.123 0.421-0.291 0.56-0.504s0.208-0.491 0.208-0.832c0-0.331-0.069-0.6-0.208-0.808s-0.323-0.371-0.552-0.488c-0.229-0.117-0.491-0.195-0.784-0.232s-0.595-0.056-0.904-0.056h-1.472v3.248h1.408z"></path>
            <path fill="#c42626" style="fill: var(--color8, #c42626)" d="M15.013 22.379c0.225 0.083 0.462-0.097 0.325-0.246-0.748-0.808-1.456-2.169-0.328-3.92 1.881-2.921 3.026-4.434 3.026-4.434s0.609 1.766 2.26 3.336c1.589 1.511 2.458 3.411 1.056 4.994-0.132 0.149 0.1 0.324 0.324 0.244 1.735-0.617 3.682-1.853 3.901-4.314 0.081-0.752-0.040-1.805-0.648-3.133-0.781-1.684-1.741-2.47-2.296-2.807-0.166-0.101-0.424-0.011-0.411 0.142 0.162 1.817-0.822 2.278-1.382 1.239-0.224-0.415-0.354-1.133-0.354-2.007 0-1.455-0.608-2.953-1.948-4.171-0.349-0.317-0.756-0.612-1.224-0.865-0.169-0.091-0.415 0-0.399 0.149 0.103 0.987 0.010 3.814-3.562 7.192-3.238 3.133-1.984 5.54-1.538 6.192 0.851 1.249 2.039 1.982 3.199 2.41z"></path>
        </symbol>
        <symbol id="svg-top_ru" viewBox="0 0 74 32">
            <title>top_ru</title>
            <path fill="#ffd3d3" style="fill: var(--color7, #ffd3d3)" d="M68.8 32h-64c-2.651 0-4.8-2.149-4.8-4.8v-22.4c0-2.651 2.149-4.8 4.8-4.8h64c2.651 0 4.8 2.149 4.8 4.8v22.4c0 2.651-2.149 4.8-4.8 4.8z"></path>
            <path fill="#c42626" style="fill: var(--color8, #c42626)" d="M37.488 21.232h-2.016v-9.6h-3.472v-1.728h8.96v1.728h-3.472v9.6zM54.416 15.536c0 0.885-0.152 1.693-0.456 2.424s-0.725 1.363-1.264 1.896c-0.539 0.533-1.179 0.947-1.92 1.24s-1.544 0.44-2.408 0.44c-0.864 0-1.664-0.147-2.4-0.44s-1.376-0.707-1.92-1.24c-0.544-0.533-0.968-1.165-1.272-1.896s-0.456-1.539-0.456-2.424c0-0.885 0.152-1.693 0.456-2.424s0.728-1.355 1.272-1.872c0.544-0.517 1.184-0.92 1.92-1.208s1.536-0.432 2.4-0.432c0.864 0 1.667 0.144 2.408 0.432s1.381 0.691 1.92 1.208c0.539 0.517 0.96 1.141 1.264 1.872s0.456 1.539 0.456 2.424zM52.272 15.536c0-0.565-0.091-1.099-0.272-1.6s-0.443-0.939-0.784-1.312c-0.341-0.373-0.752-0.669-1.232-0.888s-1.019-0.328-1.616-0.328c-0.597 0-1.136 0.109-1.616 0.328s-0.891 0.515-1.232 0.888c-0.341 0.373-0.603 0.811-0.784 1.312s-0.272 1.035-0.272 1.6c0 0.576 0.093 1.12 0.28 1.632s0.448 0.955 0.784 1.328c0.336 0.373 0.744 0.669 1.224 0.888s1.019 0.328 1.616 0.328c0.587 0 1.123-0.109 1.608-0.328s0.896-0.515 1.232-0.888c0.336-0.373 0.597-0.816 0.784-1.328s0.28-1.056 0.28-1.632zM65.92 9.904v11.328h-2v-9.6h-4.928v9.6h-2v-11.328h8.928z"></path>
            <path fill="#c42626" style="fill: var(--color8, #c42626)" d="M15.013 22.379c0.225 0.083 0.462-0.097 0.325-0.246-0.748-0.808-1.456-2.169-0.328-3.92 1.881-2.921 3.026-4.434 3.026-4.434s0.609 1.766 2.26 3.336c1.589 1.511 2.458 3.411 1.056 4.994-0.132 0.149 0.1 0.324 0.324 0.244 1.735-0.617 3.682-1.853 3.901-4.314 0.081-0.752-0.040-1.805-0.648-3.133-0.781-1.684-1.741-2.47-2.296-2.807-0.166-0.101-0.424-0.011-0.411 0.142 0.162 1.817-0.822 2.278-1.382 1.239-0.224-0.415-0.354-1.133-0.354-2.007 0-1.455-0.608-2.953-1.948-4.171-0.349-0.317-0.756-0.612-1.224-0.865-0.169-0.091-0.415 0-0.399 0.149 0.103 0.987 0.010 3.814-3.562 7.192-3.238 3.133-1.984 5.54-1.538 6.192 0.851 1.249 2.039 1.982 3.199 2.41z"></path>
        </symbol>
    </defs>
</svg>