<svg width="0" height="0" class="hidden">
  <symbol xmlns="http://www.w3.org/2000/svg" viewBox="0 0 26 26" id="2xcashback">
    <g fill="none" fill-rule="evenodd">
      <path fill="#B4D350" d="M22 26H4a4 4 0 0 1-4-4V4a4 4 0 0 1 4-4h18a4 4 0 0 1 4 4v18a4 4 0 0 1-4 4z"></path>
      <path fill="#FFF" fill-rule="nonzero" d="M10.573 17l-1.86-3-1.788 3H4.477l2.976-4.488-2.736-4.008h2.472l1.584 2.64 1.56-2.64h2.388l-2.688 4.008L13.105 17h-2.532zm3.252 0v-1.68l3.312-3c.208-.2.376-.404.504-.612.128-.208.192-.44.192-.696 0-.304-.096-.55-.288-.738-.192-.188-.448-.282-.768-.282-.336 0-.61.118-.822.354-.212.236-.338.546-.378.93l-1.932-.264c.048-.432.166-.816.354-1.152a2.975 2.975 0 0 1 1.704-1.398 3.713 3.713 0 0 1 1.182-.186c.392 0 .772.052 1.14.156.368.104.696.264.984.48.288.216.518.488.69.816.172.328.258.712.258 1.152 0 .304-.04.578-.12.822-.08.244-.19.47-.33.678-.14.208-.3.402-.48.582-.18.18-.366.358-.558.534L16.5 15.248h3.468V17h-6.144z"></path>
    </g>
  </symbol>
  <symbol xmlns="http://www.w3.org/2000/svg" viewBox="0 0 26 26" id="kibermonday">
    <g fill="none" fill-rule="evenodd">
      <path fill="#76B5FB" d="M22 26H4a4 4 0 0 1-4-4V4a4 4 0 0 1 4-4h18a4 4 0 0 1 4 4v18a4 4 0 0 1-4 4z"></path>
      <path fill="#FFF" d="M6.782 14.876L15 4l-2 8h5.263L11 23l1.148-8.124z"></path>
    </g>
  </symbol>
  <symbol xmlns="http://www.w3.org/2000/svg" viewBox="0 0 26 26" id="recommend">
    <g fill="none" fill-rule="evenodd">
      <path fill="#9562F3" d="M22 26H4a4 4 0 0 1-4-4V4a4 4 0 0 1 4-4h18a4 4 0 0 1 4 4v18a4 4 0 0 1-4 4z"></path>
      <path fill="#FFF" d="M15.03 6.586l.216.871a2 2 0 0 1-.084 1.226l-.88 2.196h4.516a2 2 0 0 1 1.933 2.514l-1.38 5.191a2 2 0 0 1-1.933 1.486H11.33a2 2 0 0 1-2-2v-5.73a2 2 0 0 1 .449-1.263l3.903-4.793a.772.772 0 0 1 1.347.302zM7 10.914h.497a1 1 0 0 1 1 1v7.156a1 1 0 0 1-1 1H7a1 1 0 0 1-1-1v-7.156a1 1 0 0 1 1-1z"></path>
    </g>
  </symbol>
  <symbol xmlns="http://www.w3.org/2000/svg" viewBox="0 0 26 26" id="sale">
    <g fill="none" fill-rule="evenodd">
      <path fill="#FFC379" d="M22 26H4a4 4 0 0 1-4-4V4a4 4 0 0 1 4-4h18a4 4 0 0 1 4 4v18a4 4 0 0 1-4 4z"></path>
      <path fill="#FFF" d="M13.43 16.18c.04-.456.16-.872.361-1.25a3.323 3.323 0 0 1 1.863-1.586c.4-.136.826-.184 1.275-.145.45.04.86.161 1.231.364a3.323 3.323 0 0 1 1.559 1.886c.133.407.18.838.14 1.294-.04.456-.161.872-.362 1.25a3.323 3.323 0 0 1-1.863 1.586 3.094 3.094 0 0 1-1.275.144c-.45-.039-.86-.16-1.231-.364a3.323 3.323 0 0 1-1.559-1.886 3.219 3.219 0 0 1-.14-1.293zm4.77.417a1.543 1.543 0 0 0-.352-1.161 1.498 1.498 0 0 0-1.066-.553 1.498 1.498 0 0 0-1.146.36 1.543 1.543 0 0 0-.547 1.082c-.04.445.078.832.35 1.162.274.33.629.514 1.067.553.438.038.82-.082 1.146-.36a1.54 1.54 0 0 0 .547-1.083zM5.72 9.144c.04-.456.161-.873.363-1.25a3.323 3.323 0 0 1 1.863-1.586 3.09 3.09 0 0 1 1.275-.145c.45.04.86.16 1.23.364.372.203.691.467.959.79.267.325.468.69.6 1.096.133.406.18.837.14 1.293-.04.456-.16.873-.362 1.25a3.323 3.323 0 0 1-1.863 1.586c-.4.136-.826.184-1.275.145a3.08 3.08 0 0 1-1.23-.364 3.323 3.323 0 0 1-1.559-1.886 3.219 3.219 0 0 1-.14-1.293zm4.77.417a1.543 1.543 0 0 0-.35-1.162 1.498 1.498 0 0 0-1.067-.552 1.498 1.498 0 0 0-1.145.359 1.543 1.543 0 0 0-.548 1.083c-.039.444.078.832.351 1.162.273.33.628.514 1.066.552.438.039.82-.08 1.146-.359.326-.277.509-.639.548-1.083zm7.016-2.375a.727.727 0 0 1 .148 1.06L9.206 18.538a.857.857 0 0 1-1.15.16.727.727 0 0 1-.148-1.059l8.448-10.292a.857.857 0 0 1 1.15-.16z"></path>
    </g>
  </symbol>
  <symbol xmlns="http://www.w3.org/2000/svg" viewBox="0 0 26 26" id="star">
    <g fill="none" fill-rule="evenodd">
      <path fill="#4D4D4D" d="M22 26H4a4 4 0 0 1-4-4V4a4 4 0 0 1 4-4h18a4 4 0 0 1 4 4v18a4 4 0 0 1-4 4z"></path>
      <path fill="#FFF" fill-rule="nonzero" d="M20.074 11.315a.377.377 0 0 0-.304-.252l-4.24-.591-1.909-3.767a.379.379 0 0 0-.675.003l-1.883 3.777-4.24.62a.377.377 0 0 0-.305.251.361.361 0 0 0 .098.378l3.077 2.928-.711 4.147c-.025.14.033.28.15.362a.377.377 0 0 0 .397.027l3.785-1.97 3.797 1.948a.375.375 0 0 0 .55-.329.284.284 0 0 0-.011-.085l-.734-4.122 3.058-2.944a.358.358 0 0 0 .1-.38z"></path>
    </g>
  </symbol>
  <symbol xmlns="http://www.w3.org/2000/svg" viewBox="0 0 26 26" id="top">
    <g fill="none" fill-rule="evenodd">
      <path fill="#FF6868" d="M22 26H4a4 4 0 0 1-4-4V4a4 4 0 0 1 4-4h18a4 4 0 0 1 4 4v18a4 4 0 0 1-4 4z"></path>
      <path fill="#FFF" fill-rule="nonzero" d="M10.567 19.962c.176.076.361-.088.254-.223-.586-.736-1.14-1.974-.257-3.569 1.472-2.66 2.368-4.037 2.368-4.037s.476 1.608 1.768 3.037c1.243 1.375 1.923 3.105.827 4.546-.103.135.078.295.253.223 1.358-.562 2.88-1.687 3.052-3.928.064-.684-.031-1.643-.506-2.852-.611-1.533-1.362-2.248-1.797-2.555-.13-.092-.332-.01-.321.129.127 1.654-.643 2.073-1.082 1.127-.175-.377-.277-1.03-.277-1.826a5.486 5.486 0 0 0-1.524-3.797 4.92 4.92 0 0 0-.958-.787c-.133-.083-.325 0-.313.135.081.899.008 3.472-2.786 6.547-2.534 2.853-1.552 5.043-1.204 5.636a5.235 5.235 0 0 0 2.503 2.194z"></path>
    </g>
  </symbol>
  <symbol xmlns="http://www.w3.org/2000/svg" viewBox="0 0 26 26" id="free_delivery">
    <g fill="none" fill-rule="evenodd">
      <path fill="#76B5FB" d="M22 26H4c-2.21 0-4-1.79-4-4V4c0-2.21 1.79-4 4-4h18c2.21 0 4 1.79 4 4v18c0 2.21-1.79 4-4 4z"/>
      <path fill="#FFF" fill-rule="nonzero" d="M18.053 16c.822 0 1.491.673 1.491 1.5s-.669 1.5-1.49 1.5c-.822 0-1.491-.673-1.491-1.5s.669-1.5 1.49-1.5zm-7.858 0c.822 0 1.49.673 1.49 1.5s-.668 1.5-1.49 1.5-1.491-.673-1.491-1.5.669-1.5 1.49-1.5zm6.445-9c.332 0 .602.252.602.563L17.24 9.4h1.478c.223 0 .43.117.543.31l1.273 2.14 1.837 1.173c.06.099.09.212.09.328v2.879c0 .352-.284.638-.634.638h-1.373c-.314-1.031-1.269-1.783-2.394-1.783-1.126 0-2.08.752-2.394 1.782h-3.07c-.315-1.03-1.27-1.782-2.395-1.782-1.126 0-2.08.752-2.394 1.782H4.634l-.094-.007c-.305-.047-.54-.323-.54-.657l.007-.098c.045-.32.309-.566.627-.566h2.558v-1.544l-1.589-.001-.094-.007c-.305-.048-.54-.324-.54-.657l.007-.098c.045-.32.309-.566.627-.566h1.589v-1.545h-.62l-.093-.008c-.306-.047-.54-.323-.54-.657l.006-.098c.046-.32.31-.566.627-.566h.62l.001-2.23c0-.31.27-.562.601-.562z"/>
    </g>
  </symbol>
  <symbol xmlns="http://www.w3.org/2000/svg" viewBox="0 0 26 26" id="gift">
    <g fill="none" fill-rule="evenodd">
      <path fill="#FD72B0" d="M22 26H4c-2.21 0-4-1.79-4-4V4c0-2.21 1.79-4 4-4h18c2.21 0 4 1.79 4 4v18c0 2.21-1.79 4-4 4z"/>
      <path fill="#FFF" fill-rule="nonzero" d="M19 14v5c0 .552-.448 1-1 1H8c-.552 0-1-.448-1-1v-5h12zm-2.68-8C17.8 6 19 7.267 19 8.83V9c0 .351-.057.688-.162 1h.662c.276 0 .5.224.5.5v2c0 .276-.224.5-.5.5h-13c-.276 0-.5-.224-.5-.5v-2c0-.276.224-.5.5-.5h.662c-.087-.26-.141-.536-.157-.824L7 9v-.17C7 7.267 8.2 6 9.68 6c1.386 0 2.623.896 3.13 2.245l.064.186.126.401.126-.4C13.585 6.978 14.871 6 16.321 6zM9.68 7.91c-.445 0-.812.35-.865.804l-.007.116V9c0 .449.256.834.623 1.002L11.462 10l-.303-.965c-.18-.569-.634-.981-1.176-1.095l-.138-.022-.166-.009zm6.64 0l-.165.008c-.602.068-1.12.5-1.314 1.117l-.304.965 2.032.002c.367-.168.623-.553.623-1.002v-.17c0-.509-.39-.92-.871-.92z"/>
    </g>
  </symbol>
  <symbol xmlns="http://www.w3.org/2000/svg" viewBox="0 0 26 26" id="discount">
    <g fill="none" fill-rule="evenodd">
      <path fill="#FFC379" d="M22 26H4a4 4 0 0 1-4-4V4a4 4 0 0 1 4-4h18a4 4 0 0 1 4 4v18a4 4 0 0 1-4 4z"/>
      <path fill="#FFF" fill-rule="nonzero" d="M13.43 16.18c.04-.456.16-.872.361-1.25a3.323 3.323 0 0 1 1.863-1.586c.4-.136.826-.184 1.275-.145.45.04.86.161 1.231.364a3.323 3.323 0 0 1 1.559 1.886c.133.407.18.838.14 1.294-.04.456-.161.872-.362 1.25a3.323 3.323 0 0 1-1.863 1.586 3.094 3.094 0 0 1-1.275.144c-.45-.039-.86-.16-1.231-.364a3.323 3.323 0 0 1-1.559-1.886 3.219 3.219 0 0 1-.14-1.293zm4.77.417a1.543 1.543 0 0 0-.352-1.161 1.498 1.498 0 0 0-1.066-.553 1.498 1.498 0 0 0-1.146.36 1.543 1.543 0 0 0-.547 1.082c-.04.445.078.832.35 1.162.274.33.629.514 1.067.553.438.038.82-.082 1.146-.36a1.54 1.54 0 0 0 .547-1.083zM5.72 9.144c.04-.456.161-.873.363-1.25a3.323 3.323 0 0 1 1.863-1.586 3.09 3.09 0 0 1 1.275-.145c.45.04.86.16 1.23.364.372.203.691.467.959.79.267.325.468.69.6 1.096.133.406.18.837.14 1.293-.04.456-.16.873-.362 1.25a3.323 3.323 0 0 1-1.863 1.586c-.4.136-.826.184-1.275.145a3.08 3.08 0 0 1-1.23-.364 3.323 3.323 0 0 1-1.559-1.886 3.219 3.219 0 0 1-.14-1.293zm4.77.417a1.543 1.543 0 0 0-.35-1.162 1.498 1.498 0 0 0-1.067-.552 1.498 1.498 0 0 0-1.145.359 1.543 1.543 0 0 0-.548 1.083c-.039.444.078.832.351 1.162.273.33.628.514 1.066.552.438.039.82-.08 1.146-.359.326-.277.509-.639.548-1.083zm7.016-2.375a.727.727 0 0 1 .148 1.06L9.206 18.538a.857.857 0 0 1-1.15.16.727.727 0 0 1-.148-1.059l8.448-10.292a.857.857 0 0 1 1.15-.16z"/>
    </g>
  </symbol><symbol xmlns="http://www.w3.org/2000/svg" viewBox="0 0 26 26" id="promo">
  <g fill="none" fill-rule="evenodd">
    <path fill="#4D4D4D" d="M22 26H4a4 4 0 0 1-4-4V4a4 4 0 0 1 4-4h18a4 4 0 0 1 4 4v18a4 4 0 0 1-4 4z"/>
    <path fill="#FFF" fill-rule="nonzero" d="M13.43 16.18c.04-.456.16-.872.361-1.25a3.323 3.323 0 0 1 1.863-1.586c.4-.136.826-.184 1.275-.145.45.04.86.161 1.231.364a3.323 3.323 0 0 1 1.559 1.886c.133.407.18.838.14 1.294-.04.456-.161.872-.362 1.25a3.323 3.323 0 0 1-1.863 1.586 3.094 3.094 0 0 1-1.275.144c-.45-.039-.86-.16-1.231-.364a3.323 3.323 0 0 1-1.559-1.886 3.219 3.219 0 0 1-.14-1.293zm4.77.417a1.543 1.543 0 0 0-.352-1.161 1.498 1.498 0 0 0-1.066-.553 1.498 1.498 0 0 0-1.146.36 1.543 1.543 0 0 0-.547 1.082c-.04.445.078.832.35 1.162.274.33.629.514 1.067.553.438.038.82-.082 1.146-.36a1.54 1.54 0 0 0 .547-1.083zM5.72 9.144c.04-.456.161-.873.363-1.25a3.323 3.323 0 0 1 1.863-1.586 3.09 3.09 0 0 1 1.275-.145c.45.04.86.16 1.23.364.372.203.691.467.959.79.267.325.468.69.6 1.096.133.406.18.837.14 1.293-.04.456-.16.873-.362 1.25a3.323 3.323 0 0 1-1.863 1.586c-.4.136-.826.184-1.275.145a3.08 3.08 0 0 1-1.23-.364 3.323 3.323 0 0 1-1.559-1.886 3.219 3.219 0 0 1-.14-1.293zm4.77.417a1.543 1.543 0 0 0-.35-1.162 1.498 1.498 0 0 0-1.067-.552 1.498 1.498 0 0 0-1.145.359 1.543 1.543 0 0 0-.548 1.083c-.039.444.078.832.351 1.162.273.33.628.514 1.066.552.438.039.82-.08 1.146-.359.326-.277.509-.639.548-1.083zm7.016-2.375a.727.727 0 0 1 .148 1.06L9.206 18.538a.857.857 0 0 1-1.15.16.727.727 0 0 1-.148-1.059l8.448-10.292a.857.857 0 0 1 1.15-.16z"/>
  </g>
</symbol><symbol xmlns="http://www.w3.org/2000/svg" viewBox="0 0 26 26" id="advise">
    <g fill="none" fill-rule="evenodd">
        <path fill="#9562F3" d="M22 26H4c-2.21 0-4-1.79-4-4V4c0-2.21 1.79-4 4-4h18c2.21 0 4 1.79 4 4v18c0 2.21-1.79 4-4 4z"/>
        <path fill="#FFF" fill-rule="nonzero" d="M14.768 6.173c.13.106.221.25.261.413l.217.871c.101.408.072.837-.084 1.226l-.88 2.196h4.516c1.105 0 2 .896 2 2 0 .174-.022.347-.067.514l-1.38 5.191c-.233.876-1.026 1.486-1.933 1.486H11.33c-1.105 0-2-.895-2-2v-5.73c0-.46.158-.906.449-1.263l3.903-4.793c.27-.33.755-.38 1.086-.11zm-7.27 4.741c.551 0 1 .448 1 1v7.156c0 .553-.449 1-1 1H7c-.552 0-1-.447-1-1v-7.156c0-.552.448-1 1-1h.497z"/>
    </g>
  </symbol>
</svg>