<svg xmlns="http://www.w3.org/2000/svg" width="15" height="16" viewBox="0 0 15 16">
    <g fill="none" fill-rule="evenodd">
        <path fill="#000" d="M7.273 0C8.11 0 8.79.719 8.79 1.603l.001.144c.376.124.733.291 1.067.498-.193.136-.374.286-.541.45-.613-.333-1.308-.52-2.045-.52-2.48 0-4.496 2.13-4.496 4.748v4.488l-.278.036c-.95.124-1.692.904-1.837 1.877h13.224c-.145-.973-.888-1.753-1.837-1.876l-.278-.036v-1.27c.194.026.392.04.594.04l.039-.002v.655c1.232.297 2.134 1.462 2.14 2.822l.002.336-4.742.001C9.479 15.172 8.453 16 7.268 16c-1.176 0-2.21-.831-2.534-2.006H0l.002-.337c.006-1.36.909-2.525 2.14-2.822V6.923c0-2.43 1.522-4.49 3.612-5.176v-.144C5.755.719 6.437 0 7.274 0zm1.86 13.994h-3.73c.299.793 1.035 1.337 1.865 1.337.836 0 1.569-.543 1.866-1.337zM7.274.67c-.483 0-.876.41-.884.918.287-.054.582-.082.883-.082.302 0 .597.028.884.08v.018c0-.515-.396-.934-.883-.934z"/>
        <circle cx="12" cy="6.182" r="2.545" fill="#5694FB"/>
    </g>
</svg>
