<svg xmlns="http://www.w3.org/2000/svg" width="15" height="16" viewBox="0 0 15 16">
    <path fill-rule="evenodd" d="M7.5 0c.863 0 1.565.719 1.565 1.603v.144c2.156.685 3.726 2.746 3.726 5.176v3.912c1.27.297 2.2 1.462 2.207 2.822l.002.336-4.891.001C9.775 15.172 8.717 16 7.495 16c-1.212 0-2.278-.83-2.613-2.006H0l.002-.337c.006-1.36.937-2.525 2.207-2.822V6.923c0-2.43 1.57-4.49 3.725-5.176v-.144C5.935.719 6.638 0 7.5 0zm1.92 13.994H5.571c.308.793 1.067 1.337 1.923 1.337.863 0 1.618-.543 1.924-1.337zM7.5.67c-.497 0-.903.41-.912.918.297-.054.601-.082.912-.082.31 0 .615.028.911.08v.018c0-.515-.408-.934-.911-.934zM.681 13.324H14.32c-.15-.973-.916-1.753-1.895-1.876l-.287-.036v-4.49c0-2.617-2.08-4.748-4.637-4.748-2.557 0-4.637 2.13-4.637 4.749v4.488l-.287.036c-.98.124-1.745.904-1.895 1.877z"/>
</svg>
