<?xml version="1.0" encoding="UTF-8"?>
<svg width="15px" height="15px" viewBox="0 0 15 15" version="1.1" xmlns="http://www.w3.org/2000/svg" xmlns:xlink="http://www.w3.org/1999/xlink">
    <!-- Generator: Sketch 64 (93537) - https://sketch.com -->
    <title>Combined Shape@3x</title>
    <desc>Created with Sketch.</desc>
    <g id="Макеты" stroke="none" stroke-width="1" fill="none" fill-rule="evenodd">
        <g id="Кэшбэк-/-Расширение-2.0-/-Личный-кабинет-/-Достаточно-средств-для-вывода" transform="translate(-771.000000, -257.000000)" fill="#A0AAB4" fill-rule="nonzero">
            <g id="Rectangle-Copy-11-+-Group-15-+-Rectangle-+-Group-12-+-Group-13-+-Rectangle-Copy-2-+-Group-17-+-Кэшбэк-в-Joom-не-акт-Mask" transform="translate(316.000000, 58.242641)">
                <g id="Group-4" transform="translate(246.000000, 133.757359)">
                    <g id="Group" transform="translate(29.000000, 51.000000)">
                        <path d="M187.5,14 C191.642136,14 195,17.3578644 195,21.5 C195,25.6421356 191.642136,29 187.5,29 C183.357864,29 180,25.6421356 180,21.5 C180,17.3578644 183.357864,14 187.5,14 Z M187.5,14.9633028 C183.889882,14.9633028 180.963303,17.8898818 180.963303,21.5 C180.963303,25.1101182 183.889882,28.0366972 187.5,28.0366972 C191.110118,28.0366972 194.036697,25.1101182 194.036697,21.5 C194.036697,17.8898818 191.110118,14.9633028 187.5,14.9633028 Z M187.29614,23.9082569 C187.733154,23.9082569 188.087424,24.262527 188.087424,24.6995413 C188.087424,25.1365556 187.733154,25.4908257 187.29614,25.4908257 C186.859125,25.4908257 186.504855,25.1365556 186.504855,24.6995413 C186.504855,24.262527 186.859125,23.9082569 187.29614,23.9082569 Z M187.302458,17.7155963 C188.012907,17.7155963 188.609498,17.979902 189.081851,18.3809297 C189.554203,18.7819573 189.821967,19.382631 189.821967,19.9825154 C189.821967,20.287429 189.739402,20.5765955 189.574271,20.8500234 C189.40914,21.1234514 189.05392,21.4971307 188.508603,21.9710725 C188.228263,22.2163291 188.054494,22.4135257 187.987289,22.5626682 C187.962652,22.6173448 187.930976,22.7365191 187.892261,22.9201909 C187.820956,23.2586015 187.522372,23.5008099 187.176531,23.5008099 C186.843051,23.5008099 186.572712,23.230471 186.572712,22.8969911 L186.572912,22.8806691 C186.585258,22.4240859 186.622607,22.1324869 186.684958,22.0058722 C186.815527,21.74073 187.268201,21.4490779 187.644547,21.1309071 C188.063136,20.7729651 188.256969,20.5693347 188.341455,20.4367636 C188.425941,20.3041925 188.525884,20.1084583 188.525884,19.9328015 C188.525884,19.6444593 188.417398,19.4074919 188.200423,19.2218923 C187.983448,19.0362928 187.709833,18.9434944 187.37957,18.9434944 C186.981074,18.9434944 186.570803,19.2092893 186.148759,19.740879 C185.998781,19.9297534 185.739065,19.9915389 185.52011,19.8904164 C185.246858,19.7642172 185.106435,19.4576277 185.189391,19.1682991 C185.261287,18.9174601 185.397069,18.6875834 185.596736,18.4786691 C186.100551,17.9515229 186.60353,17.7155963 187.302458,17.7155963 Z" id="Combined-Shape"></path>
                    </g>
                </g>
            </g>
        </g>
    </g>
</svg>