<svg xmlns="http://www.w3.org/2000/svg" width="5" height="4" viewBox="0 0 5 4">
    <path fill="#6C8698" fill-rule="evenodd" d="M4.994 1.512c-.014-.043-.05-.073-.095-.08l-1.326-.185L2.977.064C2.957.024 2.915 0 2.87 0s-.085.025-.106.065l-.588 1.186-1.326.194c-.045.007-.081.037-.095.08-.014.042-.002.088.03.118l.962.92-.222 1.301c-.008.044.01.088.047.114.02.014.045.022.069.022.02 0 .037-.004.055-.014l1.184-.618 1.187.611c.017.009.036.013.054.013.064 0 .118-.052.118-.116 0-.01-.001-.018-.004-.026l-.23-1.295.957-.924c.034-.03.045-.077.031-.12z"/>
</svg>
