<svg xmlns="http://www.w3.org/2000/svg" xmlns:xlink="http://www.w3.org/1999/xlink" width="57" height="49" viewBox="0 0 57 49">
    <defs>
        <path id="prefix__b" d="M6.737 2.105h20.21c3.721 0 6.737 3.016 6.737 6.737v11.79c0 3.72-3.016 6.736-6.737 6.736H6.737C3.017 27.368 0 24.352 0 20.632V8.842c0-3.72 3.016-6.737 6.737-6.737z"/>
        <path id="prefix__c" d="M14.833 1.47C14.043.522 12.949 0 11.75 0c-1.686 0-2.753 1.066-3.352 1.96-.155.233-.287.465-.398.684-.11-.219-.243-.451-.398-.683C7.003 1.066 5.936 0 4.25 0 3.051 0 1.957.522 1.167 1.47.415 2.375 0 3.586 0 4.881c0 1.41.52 2.721 1.636 4.127.997 1.256 2.432 2.55 4.094 4.05.619.559 1.26 1.136 1.94 1.768.11.1.22.142.33.142.11 0 .22-.041.309-.123.702-.65 1.342-1.228 1.961-1.787 1.662-1.5 3.097-2.794 4.094-4.05C15.48 7.602 16 6.29 16 4.88c0-1.295-.415-2.506-1.167-3.41z"/>
        <path id="prefix__d" d="M14.833 1.47C14.043.522 12.949 0 11.75 0c-1.686 0-2.753 1.066-3.352 1.96-.155.233-.287.465-.398.684-.11-.219-.243-.451-.398-.683C7.003 1.066 5.936 0 4.25 0 3.051 0 1.957.522 1.167 1.47.415 2.375 0 3.586 0 4.881c0 1.41.52 2.721 1.636 4.127.997 1.256 2.432 2.55 4.094 4.05.619.559 1.26 1.136 1.94 1.768.11.1.22.142.33.142.11 0 .22-.041.309-.123.702-.65 1.342-1.228 1.961-1.787 1.662-1.5 3.097-2.794 4.094-4.05C15.48 7.602 16 6.29 16 4.88c0-1.295-.415-2.506-1.167-3.41z"/>
        <filter id="prefix__a" width="230.6%" height="274.2%" x="-65.3%" y="-55.4%" filterUnits="objectBoundingBox">
            <feOffset dy="8" in="SourceAlpha" result="shadowOffsetOuter1"/>
            <feGaussianBlur in="shadowOffsetOuter1" result="shadowBlurOuter1" stdDeviation="6"/>
            <feColorMatrix in="shadowBlurOuter1" values="0 0 0 0 0.0117647059 0 0 0 0 0.121568627 0 0 0 0 0.360784314 0 0 0 0.24 0"/>
        </filter>
    </defs>
    <g fill="none" fill-rule="evenodd" transform="translate(12 2.243)">
        <use fill="#000" filter="url(#prefix__a)" xlink:href="#prefix__b"/>
        <use fill="#3C5069" xlink:href="#prefix__b"/>
        <g transform="translate(8.842 7.158)">
            <use fill="#DFC308" xlink:href="#prefix__c"/>
            <mask id="prefix__e" fill="#fff">
                <use xlink:href="#prefix__d"/>
            </mask>
            <use fill="#E8C300" xlink:href="#prefix__d"/>
            <path fill="#F9DB19" d="M8 2.644c-.123-.219-.284-.68-.456-.912C6.882.837 6.008-.14 3.76 0 2.435.083 1.223.522.35 1.47-.483 2.375-.94 3.586-.94 4.881c0 1.41.575 2.721 1.81 4.127 1.103 1.256 2.69 2.55 4.528 4.05.685.559 1.393 1.136 2.147 1.768.12.1.242.142.364.142S8.123 2.425 8 2.644z" mask="url(#prefix__e)"/>
        </g>
        <g fill-rule="nonzero" transform="translate(26.526)">
            <circle cx="6.737" cy="6.737" r="6.737" fill="#A3BECC"/>
            <rect width="1.225" height="6.124" x="6.124" y="3.675" fill="#FFF" rx=".612"/>
            <path fill="#FFF" d="M9.799 6.737c0 .338-.274.612-.612.612h-4.9c-.338 0-.612-.274-.612-.612 0-.338.274-.613.612-.613h4.9c.338 0 .612.275.612.613z"/>
        </g>
    </g>
</svg>
