<svg xmlns="http://www.w3.org/2000/svg" xmlns:xlink="http://www.w3.org/1999/xlink" width="60" height="48" viewBox="0 0 60 48">
    <defs>
        <path id="prefix__b" d="M7.111 0h21.333c3.928 0 7.112 3.184 7.112 7.111v12.445c0 3.927-3.184 7.11-7.112 7.11H7.111C3.184 26.667 0 23.484 0 19.557V7.11C0 3.184 3.184 0 7.111 0z"/>
        <path id="prefix__c" d="M4.483 0h16.821c.545 0 .987.442.987.987V7.97c0 .545-.442.987-.987.987H4.484c-.262 0-.513-.104-.698-.289L.289 5.177c-.385-.385-.386-1.01 0-1.395V3.78L3.786.289C3.97.104 4.222 0 4.483 0z"/>
        <filter id="prefix__a" width="223.7%" height="265%" x="-61.9%" y="-52.5%" filterUnits="objectBoundingBox">
            <feOffset dy="8" in="SourceAlpha" result="shadowOffsetOuter1"/>
            <feGaussianBlur in="shadowOffsetOuter1" result="shadowBlurOuter1" stdDeviation="6"/>
            <feColorMatrix in="shadowBlurOuter1" values="0 0 0 0 0.0117647059 0 0 0 0 0.121568627 0 0 0 0 0.360784314 0 0 0 0.16 0"/>
        </filter>
    </defs>
    <g fill="none" fill-rule="evenodd">
        <g transform="translate(8 4) translate(4.444)">
            <use fill="#000" filter="url(#prefix__a)" xlink:href="#prefix__b"/>
            <use fill="#84A3D2" xlink:href="#prefix__b"/>
            <path fill="#F9F9F9" fill-rule="nonzero" d="M28.041 2.227l-.11.431c-.553-.141-1.126-.214-1.709-.214V2c.62 0 1.23.077 1.82.227zm3.19 1.75l-.304.325c-.42-.394-.89-.734-1.394-1.011l.214-.39c.537.295 1.036.657 1.484 1.076zm1.96 3.065l-.423.139c-.18-.548-.428-1.07-.739-1.555l.375-.24c.33.516.595 1.072.786 1.656zm.365 3.636h-.445V9.326c0-.14-.004-.28-.013-.42l.444-.027c.009.148.013.297.014.447v1.352zm0 3.555h-.445v-1.777h.445v1.777zm-.015 3.57l-.444-.028c.01-.147.014-.294.014-.442v-1.322h.445v1.322c0 .158-.005.314-.015.47zm-1.128 3.463l-.375-.238c.31-.486.556-1.009.735-1.558l.423.138c-.19.584-.454 1.141-.783 1.658zM29.74 23.77l-.213-.39c.505-.277.974-.617 1.395-1.01l.304.325c-.449.418-.948.78-1.486 1.075zm-3.541.898v-.445h.046c.575-.002 1.14-.074 1.687-.214l.11.43c-.582.15-1.184.227-1.796.229H26.2zm-3.556 0v-.445h1.778v.445h-1.778zm-3.555 0v-.445h1.777v.445H19.09zm-3.556 0v-.445h1.778v.445h-1.778zm-3.556 0v-.445h1.778v.445h-1.778zm-3.581-.06l.056-.44c.29.036.585.055.881.055h.867v.445h-.867c-.315 0-.628-.02-.937-.06zm-3.39-1.352l.263-.359c.465.34.97.621 1.506.835l-.165.413c-.57-.228-1.109-.527-1.604-.89zm-2.325-2.831l.403-.188c.243.523.551 1.013.916 1.458l-.343.282c-.389-.474-.717-.996-.976-1.552zM2 16.855h.444v.498c.002.424.041.843.118 1.254l-.437.082c-.082-.437-.124-.883-.125-1.335v-.499zM2 13.3h.444v1.777H2V13.3zm0-3.556h.444v1.778H2V9.744zm.707-3.556l.401.191c-.247.52-.428 1.068-.538 1.636l-.436-.085c.117-.605.31-1.189.573-1.742zm2.338-2.804l.26.36c-.467.337-.89.732-1.26 1.174l-.341-.285c.393-.47.844-.89 1.341-1.25zM8.43 2.055l.055.441c-.576.071-1.136.214-1.67.423l-.162-.413c.568-.224 1.165-.375 1.777-.45zM12.045 2v.444h-1.778V2h1.778zm3.556 0v.444h-1.778V2H15.6zm3.555 0v.444h-1.778V2h1.778zm3.556 0v.444h-1.778V2h1.778zm3.51 0v.444H24.49V2h1.732z"/>
        </g>
        <g>
            <g transform="translate(8 4) translate(0 7.556) rotate(-180 11.333 4.867)">
                <mask id="prefix__d" fill="#fff">
                    <use xlink:href="#prefix__c"/>
                </mask>
                <use fill="#E8C300" fill-rule="nonzero" xlink:href="#prefix__c"/>
                <path fill="#F9DB19" fill-rule="nonzero" d="M3.868 9.074L-0.617 4.595 22.291 4.459 22.291 9.074z" mask="url(#prefix__d)"/>
            </g>
            <path fill="#FFF" fill-rule="nonzero" d="M3.765 5.456L5.26 6.95c.174.173.174.455 0 .628l-.037.038c-.174.173-.455.173-.628 0L2.786 5.81c-.097-.097-.14-.227-.128-.354-.011-.126.031-.257.128-.353l1.81-1.807c.173-.173.454-.173.628 0l.037.037c.174.174.174.455 0 .629L3.765 5.456zm13.514 0l-1.591-1.588c-.122-.122-.122-.319 0-.44l.226-.226c.122-.121.319-.121.44 0l1.999 1.995c.07.07.1.167.088.26.012.091-.018.188-.088.258L16.354 7.71c-.121.121-.318.121-.44 0l-.226-.226c-.122-.121-.122-.318 0-.44l1.591-1.588zm-9.924.712c-.516 0-.934-.418-.934-.933 0-.514.418-.932.934-.932.515 0 .933.418.933.932 0 .515-.418.933-.933.933zm3.249 0c-.516 0-.934-.418-.934-.933 0-.514.418-.932.934-.932s.934.418.934.932c0 .515-.418.933-.934.933zm3.25 0c-.517 0-.935-.418-.935-.933 0-.514.418-.932.934-.932s.934.418.934.932c0 .515-.418.933-.934.933z" transform="translate(8 4) translate(0 7.556)"/>
        </g>
    </g>
</svg>
