<svg xmlns="http://www.w3.org/2000/svg" width="10" height="10" viewBox="0 0 10 10">
    <path fill="#A0AAB4" fill-rule="evenodd" d="M2.304 0c.398 0 .72.323.72.721 0 .398-.322.721-.72.721h-.862v7.116h7.116v-.862c0-.398.323-.72.72-.72.4 0 .722.322.722.72V9.28c0 .398-.323.721-.721.721H.721C.323 10 0 9.677 0 9.279V.721C0 .323.323 0 .721 0zm6.952.094c.371 0 .673.302.673.674v3.155c0 .372-.302.673-.673.673-.372 0-.673-.301-.673-.673v-1.53L5.12 5.854c-.131.131-.303.197-.475.197-.173 0-.345-.066-.476-.197-.263-.263-.263-.69 0-.952L7.63 1.44H6.1c-.372 0-.674-.302-.674-.673 0-.372.302-.674.673-.674z" opacity=".5"/>
</svg>
