<svg xmlns="http://www.w3.org/2000/svg" xmlns:xlink="http://www.w3.org/1999/xlink" width="32" height="32" viewBox="0 0 32 32">
    <defs>
        <circle id="prefix__a" cx="16" cy="16" r="16"/>
    </defs>
    <g fill="none" fill-rule="evenodd">
        <mask id="prefix__b" fill="#fff">
            <use xlink:href="#prefix__a"/>
        </mask>
        <use fill="#F6F8FA" xlink:href="#prefix__a"/>
        <g fill="#CDD2D7" mask="url(#prefix__b)" opacity=".4">
            <g>
                <path d="M14.154 16c4.077 0 7.384-3.588 7.384-8.012S18.231 0 14.154 0c-4.078 0-7.385 3.588-7.385 7.988S10.076 16 14.154 16zm0-13.91c2.99 0 5.436 2.653 5.436 5.898 0 3.244-2.446 5.898-5.436 5.898-2.99 0-5.437-2.654-5.437-5.898 0-3.245 2.447-5.899 5.437-5.899zM1 28.308h26.308c.558 0 1-.466 1-1.054 0-5.514-4.253-10.023-9.506-10.023H9.506C4.276 17.23 0 21.715 0 27.254c0 .588.442 1.054 1 1.054zm8.506-8.97h9.296c3.812 0 6.95 2.99 7.437 6.862H2.07c.487-3.847 3.625-6.862 7.437-6.862z" transform="translate(1.846 6.154)"/>
            </g>
        </g>
    </g>
</svg>
