<svg xmlns="http://www.w3.org/2000/svg" width="18" height="18" viewBox="0 0 18 18">
    <g fill="none" fill-rule="evenodd">
        <g fill="#A0AAB4" stroke="#A0AAB4" stroke-width=".3">
            <g>
                <g>
                    <path d="M260.715 12c.412 0 .77.307.83.713.045.3.088.61.128.918.005.038.03.068.065.077.516.143 1.015.35 1.481.614.031.018.07.015.1-.008.248-.19.497-.378.741-.56.33-.244.8-.208 1.091.083h0l1.012 1.012c.291.291.327.76.082 1.091-.181.245-.369.494-.559.74-.023.03-.026.07-.008.101.265.466.471.965.614 1.48.009.035.04.06.077.065.308.04.617.084.918.129.406.06.713.418.713.83h0v1.43c0 .412-.307.77-.713.83-.301.045-.61.088-.918.128-.038.005-.068.03-.078.065-.142.516-.348 1.015-.613 1.48-.018.032-.015.072.008.102.19.246.378.495.559.74.245.33.21.8-.082 1.091h0l-1.012 1.012c-.291.291-.76.327-1.091.082-.244-.18-.493-.369-.74-.559-.03-.023-.07-.026-.101-.008-.466.265-.965.471-1.481.613-.034.01-.06.04-.065.078-.04.308-.083.617-.128.918-.06.406-.418.713-.83.713h0-1.43c-.413 0-.77-.307-.83-.713-.045-.3-.088-.61-.129-.918-.004-.038-.03-.068-.064-.077-.517-.143-1.015-.35-1.481-.614-.031-.018-.07-.014-.1.009-.248.19-.497.377-.741.558-.33.245-.8.21-1.091-.082h0l-1.012-1.012c-.291-.291-.327-.76-.082-1.091.18-.245.369-.494.559-.74.023-.03.026-.07.008-.101-.265-.466-.471-.965-.614-1.48-.009-.035-.04-.06-.077-.065-.308-.04-.617-.084-.918-.129-.406-.06-.713-.417-.713-.83h0v-1.43c0-.412.307-.77.713-.83.301-.045.61-.088.918-.129.038-.004.068-.03.077-.064.143-.516.35-1.015.614-1.481.018-.031.015-.07-.008-.1-.19-.247-.378-.496-.559-.74-.245-.331-.21-.8.082-1.092h0l1.012-1.012c.291-.291.76-.327 1.091-.082.244.18.493.369.74.559.03.022.07.026.101.008.466-.265.965-.471 1.481-.614.034-.009.06-.04.065-.077.04-.308.083-.617.128-.918.06-.406.417-.713.83-.713h0zm0 .747h-1.43c-.045 0-.085.033-.091.077-.044.296-.087.6-.127.904-.043.336-.282.611-.607.7-.456.127-.897.31-1.31.544-.293.166-.657.14-.925-.066-.244-.187-.489-.372-.73-.55-.035-.027-.086-.022-.118.01h0l-1.011 1.011c-.032.032-.037.083-.01.119.178.241.363.486.55.729.206.269.232.632.066.925-.235.413-.417.854-.543 1.31-.09.325-.365.564-.701.607-.304.04-.608.083-.904.127-.044.007-.077.046-.077.09h0v1.431c0 .046.033.085.077.091.296.045.6.087.904.127.336.044.611.282.7.607.127.457.31.897.544 1.31.166.294.14.657-.066.925-.187.243-.372.489-.55.73-.027.035-.022.086.01.118h0l1.011 1.012c.032.032.083.036.119.01.24-.178.486-.363.729-.55.15-.117.331-.176.513-.176.141 0 .283.036.412.11.413.234.854.416 1.31.542.325.09.564.365.607.701.04.304.083.609.127.904.006.044.045.077.09.077h1.431c.046 0 .085-.033.091-.077.044-.296.087-.6.127-.904.044-.336.282-.611.607-.7.456-.127.897-.31 1.31-.544.293-.166.657-.14.925.066.243.188.489.373.73.55.035.027.086.023.118-.01h0l1.011-1.011c.032-.032.037-.083.01-.119-.178-.24-.363-.486-.55-.729-.206-.268-.232-.632-.066-.925.235-.413.417-.854.543-1.31.09-.325.365-.563.701-.607.304-.04.608-.082.904-.127.044-.006.077-.045.077-.09h0v-1.431c0-.045-.033-.085-.077-.091-.296-.044-.6-.087-.904-.127-.336-.043-.611-.282-.7-.606-.127-.457-.31-.898-.544-1.31-.166-.294-.14-.657.066-.926.187-.243.372-.488.55-.73.027-.035.022-.086-.01-.118h0l-1.011-1.011c-.032-.032-.083-.037-.119-.01-.24.178-.485.363-.729.55-.268.207-.632.232-.925.066-.413-.235-.854-.417-1.31-.543-.325-.09-.563-.365-.607-.701-.04-.304-.083-.608-.127-.904-.006-.044-.045-.077-.09-.077h0zm-.746 3.763c1.908 0 3.46 1.552 3.46 3.46 0 1.907-1.552 3.459-3.46 3.459-1.907 0-3.46-1.552-3.46-3.46 0-1.907 1.553-3.46 3.46-3.46zm0 .744c-1.497 0-2.715 1.218-2.715 2.715 0 1.497 1.218 2.715 2.715 2.715 1.497 0 2.715-1.218 2.715-2.715 0-1.497-1.218-2.715-2.715-2.715z" transform="translate(-294 -527) translate(43 516)"/>
                </g>
            </g>
        </g>
    </g>
</svg>
