<?xml version="1.0" encoding="UTF-8"?>
<svg width="12px" height="17px" viewBox="0 0 12 17" version="1.1" xmlns="http://www.w3.org/2000/svg" xmlns:xlink="http://www.w3.org/1999/xlink">
    <!-- Generator: Sketch 64 (93537) - https://sketch.com -->
    <title>rating_green</title>
    <desc>Created with Sketch.</desc>
    <g id="Прототип" stroke="none" stroke-width="1" fill="none" fill-rule="evenodd">
        <g id="rating_green" fill-rule="nonzero">
            <g id="Group-Copy">
                <g id="shield-(1)">
                    <path d="M11.9818598,2.5867101 L11.9818598,11.3306476 C11.9818598,12.383135 11.445757,13.3323217 10.5821776,13.8109875 L7.17384112,15.9825804 C6.79811215,16.1880268 6.39914019,16.2877108 5.99985981,16.2877108 C5.60085981,16.2877108 5.20188785,16.1880268 4.83793458,15.9889626 L1.41782243,13.8110179 C0.553962617,13.3323217 0.0181401869,12.3831654 0.0181401869,11.330678 L0.0181401869,2.5867101 C0.0181401869,2.15603242 0.285056075,1.7779624 0.668074766,1.66521001 L5.86051402,0.0200583773 C5.90985981,0.00607829614 5.955,0 5.99985981,0 C6.045,0 6.09014019,0.00607829614 6.1338785,0.0185388032 L11.3316449,1.66521001 C11.7149439,1.7779624 11.9818598,2.15606282 11.9818598,2.5867101 Z" id="Shape" fill="#89BF1D"></path>
                    <path d="M11.9818598,2.5867101 L11.9818598,11.3306476 C11.9818598,12.383135 11.445757,13.3323217 10.5821776,13.8109875 L7.17384112,15.9825804 C6.79811215,16.1880268 6.39914019,16.2877108 5.99985981,16.2877108 L5.99985981,0 C6.045,0 6.09014019,0.00607829614 6.1338785,0.0185388032 L11.3316449,1.66521001 C11.7149439,1.7779624 11.9818598,2.15606282 11.9818598,2.5867101 Z" id="Shape" fill="#6C9B0F"></path>
                </g>
            </g>
        </g>
    </g>
</svg>