<svg xmlns="http://www.w3.org/2000/svg" width="13" height="13" viewBox="0 0 13 13">
    <g fill="#DB0202">
        <path d="M11.096 1.904C9.868.676 8.236 0 6.5 0 4.764 0 3.132.676 1.904 1.904.676 3.13 0 4.764 0 6.5c0 1.736.676 3.368 1.904 4.596C3.13 12.324 4.764 13 6.5 13c1.736 0 3.368-.676 4.596-1.904C12.324 9.868 13 8.236 13 6.5c0-1.736-.676-3.369-1.904-4.596zM6.5 11.95c-3.005 0-5.45-2.445-5.45-5.45 0-3.005 2.445-5.45 5.45-5.45 3.005 0 5.45 2.445 5.45 5.45 0 3.005-2.445 5.45-5.45 5.45z"/>
        <g>
            <path d="M4.726 4.007L.868.149C.67-.05.348-.05.15.149c-.199.199-.199.52 0 .72l3.858 3.857c.1.1.23.149.36.149.13 0 .26-.05.36-.149.198-.199.198-.52-.001-.72z" transform="translate(4.063 4.063)"/>
            <path d="M4.726.149c-.199-.199-.52-.199-.72 0L.15 4.007c-.199.198-.199.52 0 .719.1.1.23.149.36.149.13 0 .26-.05.36-.149L4.725.868c.199-.198.199-.52 0-.72z" transform="translate(4.063 4.063)"/>
        </g>
    </g>
</svg>
