<svg xmlns="http://www.w3.org/2000/svg" width="13" height="13" viewBox="0 0 13 13">
    <g fill="#CCC">
        <path d="M11.718 5.083c-.285 0-.516.232-.516.517v.52c-.001 1.359-.53 2.635-1.492 3.595-.96.959-2.235 1.487-3.592 1.487C3.31 11.2 1.032 8.918 1.034 6.115c0-1.358.53-2.635 1.49-3.594.96-.96 2.237-1.487 3.594-1.487.72 0 1.414.148 2.069.44.26.116.566-.001.682-.262.116-.26 0-.566-.261-.682C7.82.179 6.983 0 6.12 0 4.485 0 2.95.635 1.794 1.79.638 2.943.001 4.48 0 6.113c0 1.634.634 3.17 1.79 4.327 1.154 1.156 2.69 1.793 4.324 1.794 1.636 0 3.172-.635 4.327-1.79 1.156-1.154 1.793-2.69 1.794-4.324V5.6c0-.285-.231-.517-.517-.517z"/>
        <path d="M12.857.91c-.192-.194-.502-.194-.693 0L6.67 6.453 5.425 5.196c-.192-.193-.502-.193-.693 0-.192.193-.192.506 0 .699l1.592 1.607c.096.097.221.145.347.145.125 0 .25-.048.346-.145l5.84-5.893c.19-.193.19-.506 0-.7z"/>
    </g>
</svg>
