<?xml version="1.0" encoding="utf-8"?>
<!-- Generator: Adobe Illustrator 16.0.0, SVG Export Plug-In . SVG Version: 6.00 Build 0)  -->
<!DOCTYPE svg PUBLIC "-//W3C//DTD SVG 1.1//EN" "http://www.w3.org/Graphics/SVG/1.1/DTD/svg11.dtd">
<svg xmlns="http://www.w3.org/2000/svg" xmlns:xlink="http://www.w3.org/1999/xlink" width="190px" height="41px" viewBox="0 0 190 41" version="1.1">
    <!-- Generator: Sketch 43.2 (39069) - http://www.bohemiancoding.com/sketch -->
    <title>FM logo </title>
    <desc>Created with Sketch.</desc>
    <defs/>
    <g id="Page-1" stroke="none" stroke-width="1" fill="none" fill-rule="evenodd">
        <g id="Group-2-Copy">
            <g id="Group" transform="translate(44.000000, 13.000000)" fill="#576276">
                <path d="M3.0390625,18 L0.26171875,18 L0.26171875,0.8671875 L9.9296875,0.8671875 L9.9296875,3.234375 L3.0390625,3.234375 L3.0390625,8.58984375 L9.49609375,8.58984375 L9.49609375,10.96875 L3.0390625,10.96875 L3.0390625,18 Z M24.2844351,11.4960938 C24.2844351,13.6132918 23.7414718,15.2656191 22.6555288,16.453125 C21.5695859,17.6406309 20.0578823,18.234375 18.1203726,18.234375 C16.909429,18.234375 15.8391272,17.9609402 14.9094351,17.4140625 C13.9797429,16.8671848 13.2649063,16.0820364 12.7649038,15.0585938 C12.2649013,14.0351511 12.0149038,12.847663 12.0149038,11.4960938 C12.0149038,9.39452074 12.553961,7.75391215 13.6320913,6.57421875 C14.7102217,5.39452535 16.2297378,4.8046875 18.1906851,4.8046875 C20.0656945,4.8046875 21.5500546,5.40819709 22.6438101,6.61523438 C23.7375656,7.82227166 24.2844351,9.44920852 24.2844351,11.4960938 Z M14.8508413,11.4960938 C14.8508413,14.4882962 15.956299,15.984375 18.1672476,15.984375 C20.3547585,15.984375 21.4484976,14.4882962 21.4484976,11.4960938 C21.4484976,8.53514145 20.3469461,7.0546875 18.1438101,7.0546875 C16.9875543,7.0546875 16.1496721,7.43749617 15.6301382,8.203125 C15.1106044,8.96875383 14.8508413,10.0663991 14.8508413,11.4960938 Z M34.0688702,4.8046875 C34.6235605,4.8046875 35.0805871,4.84374961 35.4399639,4.921875 L35.1704327,7.48828125 C34.7798057,7.39453078 34.3735598,7.34765625 33.9516827,7.34765625 C32.8501147,7.34765625 31.9575455,7.70702766 31.2739483,8.42578125 C30.5903512,9.14453484 30.2485577,10.0781193 30.2485577,11.2265625 L30.2485577,18 L27.4946514,18 L27.4946514,5.0390625 L29.6509014,5.0390625 L30.0141827,7.32421875 L30.1548077,7.32421875 C30.5844973,6.55077738 31.1450386,5.93750227 31.8364483,5.484375 C32.527858,5.03124773 33.2719912,4.8046875 34.0688702,4.8046875 Z M48.8103365,18 L46.0447115,18 L46.0447115,10.0078125 C46.0447115,9.01562004 45.8572134,8.27539307 45.4822115,7.78710938 C45.1072097,7.29882568 44.521278,7.0546875 43.724399,7.0546875 C42.6618937,7.0546875 41.8826046,7.40038717 41.3865084,8.09179688 C40.8904122,8.78320658 40.6423678,9.9335857 40.6423678,11.5429688 L40.6423678,18 L37.8884615,18 L37.8884615,5.0390625 L40.0447115,5.0390625 L40.4314303,6.73828125 L40.5720553,6.73828125 C40.9314321,6.12109066 41.4529112,5.64453293 42.1365084,5.30859375 C42.8201056,4.97265457 43.5720512,4.8046875 44.3923678,4.8046875 C46.3845653,4.8046875 47.7048645,5.4843682 48.3533053,6.84375 L48.5408053,6.84375 C48.9236197,6.2031218 49.4626768,5.7031268 50.1579928,5.34375 C50.8533088,4.9843732 51.6501758,4.8046875 52.5486178,4.8046875 C54.0955005,4.8046875 55.2224424,5.19530859 55.9294772,5.9765625 C56.636512,6.75781641 56.990024,7.94921074 56.990024,9.55078125 L56.990024,18 L54.2361178,18 L54.2361178,10.0078125 C54.2361178,9.01562004 54.0466666,8.27539307 53.6677584,7.78710938 C53.2888503,7.29882568 52.7009655,7.0546875 51.9040865,7.0546875 C50.8337687,7.0546875 50.0505734,7.38866854 49.5544772,8.05664062 C49.0583809,8.72461271 48.8103365,9.74999309 48.8103365,11.1328125 L48.8103365,18 Z M69.5869591,14.3085938 C69.5869591,15.5742251 69.1260262,16.5449185 68.2041466,17.2207031 C67.282267,17.8964878 65.9619677,18.234375 64.2432091,18.234375 C62.516638,18.234375 61.1299331,17.9726589 60.0830529,17.4492188 L60.0830529,15.0703125 C61.606498,15.773441 63.0244526,16.125 64.3369591,16.125 C66.0322801,16.125 66.8799279,15.6132864 66.8799279,14.5898438 C66.8799279,14.2617171 66.7861788,13.9882823 66.5986779,13.7695312 C66.411177,13.5507802 66.1025863,13.3242199 65.6728966,13.0898438 C65.243207,12.8554676 64.6455567,12.5898452 63.8799279,12.2929688 C62.3877329,11.7148409 61.3779774,11.1367216 60.850631,10.5585938 C60.3232846,9.98046586 60.0596154,9.23047336 60.0596154,8.30859375 C60.0596154,7.1992132 60.5068765,6.33789369 61.4014123,5.72460938 C62.295948,5.11132506 63.5127327,4.8046875 65.0518029,4.8046875 C66.575248,4.8046875 68.0166398,5.11327816 69.3760216,5.73046875 L68.4853966,7.8046875 C67.0869521,7.22655961 65.9111827,6.9375 64.9580529,6.9375 C63.5049206,6.9375 62.7783654,7.35155836 62.7783654,8.1796875 C62.7783654,8.58593953 62.9678166,8.92968609 63.3467248,9.2109375 C63.7256329,9.49218891 64.5517965,9.87890379 65.8252404,10.3710938 C66.8955582,10.7851583 67.6728942,11.1640608 68.1572716,11.5078125 C68.6416491,11.8515642 69.0010205,12.2480446 69.2353966,12.6972656 C69.4697728,13.1464866 69.5869591,13.6835906 69.5869591,14.3085938 Z M80.3088942,18 L75.3401442,3.69140625 L75.2463942,3.69140625 C75.3792074,5.81641687 75.445613,7.80858445 75.445613,9.66796875 L75.445613,18 L72.9026442,18 L72.9026442,0.8671875 L76.851863,0.8671875 L81.6096755,14.4960938 L81.679988,14.4960938 L86.5784255,0.8671875 L90.539363,0.8671875 L90.539363,18 L87.8440505,18 L87.8440505,9.52734375 C87.8440505,8.67577699 87.8655346,7.56641309 87.9085036,6.19921875 C87.9514726,4.83202441 87.9885816,4.0039077 88.0198317,3.71484375 L87.9260817,3.71484375 L82.7815505,18 L80.3088942,18 Z M102.913642,18 L102.362861,16.1953125 L102.269111,16.1953125 C101.644107,16.9843789 101.015207,17.5214829 100.382392,17.8066406 C99.7495762,18.0917983 98.9370843,18.234375 97.9448918,18.234375 C96.671448,18.234375 95.6773173,17.8906284 94.96247,17.203125 C94.2476226,16.5156216 93.8902043,15.542975 93.8902043,14.2851562 C93.8902043,12.9492121 94.3862931,11.9414096 95.3784856,11.2617188 C96.370678,10.5820279 97.8823817,10.2109378 99.9136418,10.1484375 L102.151923,10.078125 L102.151923,9.38671875 C102.151923,8.55858961 101.958566,7.93945518 101.571845,7.52929688 C101.185124,7.11913857 100.585521,6.9140625 99.7730168,6.9140625 C99.108951,6.9140625 98.4722386,7.01171777 97.8628606,7.20703125 C97.2534825,7.40234473 96.6675509,7.63281117 96.1050481,7.8984375 L95.2144231,5.9296875 C95.9175516,5.56249816 96.6870752,5.28320408 97.5230168,5.09179688 C98.3589585,4.90038967 99.1480131,4.8046875 99.8902043,4.8046875 C101.53865,4.8046875 102.782778,5.16405891 103.622626,5.8828125 C104.462474,6.60156609 104.882392,7.73046105 104.882392,9.26953125 L104.882392,18 L102.913642,18 Z M98.8120793,16.125 C99.8120843,16.125 100.614811,15.8457059 101.220282,15.2871094 C101.825754,14.7285128 102.128486,13.9453175 102.128486,12.9375 L102.128486,11.8125 L100.464423,11.8828125 C99.1675416,11.9296877 98.2241917,12.1464824 97.634345,12.5332031 C97.0444983,12.9199238 96.7495793,13.5117148 96.7495793,14.3085938 C96.7495793,14.8867216 96.9214526,15.3339828 97.2652043,15.6503906 C97.6089561,15.9667985 98.1245759,16.125 98.8120793,16.125 Z M113.600421,16.0078125 C114.272299,16.0078125 114.944167,15.9023448 115.616046,15.6914062 L115.616046,17.765625 C115.311357,17.8984382 114.918782,18.0097652 114.438311,18.0996094 C113.95784,18.1894536 113.459798,18.234375 112.944171,18.234375 C110.334783,18.234375 109.030108,16.8593888 109.030108,14.109375 L109.030108,7.125 L107.260577,7.125 L107.260577,5.90625 L109.159014,4.8984375 L110.096514,2.15625 L111.795733,2.15625 L111.795733,5.0390625 L115.487139,5.0390625 L115.487139,7.125 L111.795733,7.125 L111.795733,14.0625 C111.795733,14.7265658 111.961747,15.2167953 112.29378,15.5332031 C112.625813,15.849611 113.061355,16.0078125 113.600421,16.0078125 Z M124.826262,4.8046875 C125.380952,4.8046875 125.837979,4.84374961 126.197356,4.921875 L125.927825,7.48828125 C125.537198,7.39453078 125.130952,7.34765625 124.709075,7.34765625 C123.607507,7.34765625 122.714937,7.70702766 122.03134,8.42578125 C121.347743,9.14453484 121.00595,10.0781193 121.00595,11.2265625 L121.00595,18 L118.252043,18 L118.252043,5.0390625 L120.408293,5.0390625 L120.771575,7.32421875 L120.9122,7.32421875 C121.341889,6.55077738 121.90243,5.93750227 122.59384,5.484375 C123.28525,5.03124773 124.029383,4.8046875 124.826262,4.8046875 Z M131.39976,18 L128.645853,18 L128.645853,5.0390625 L131.39976,5.0390625 L131.39976,18 Z M128.481791,1.60546875 C128.481791,1.11327879 128.616555,0.734376328 128.886088,0.46875 C129.15562,0.203123672 129.540382,0.0703125 130.040385,0.0703125 C130.524762,0.0703125 130.901711,0.203123672 131.171244,0.46875 C131.440777,0.734376328 131.575541,1.11327879 131.575541,1.60546875 C131.575541,2.07422109 131.440777,2.44335803 131.171244,2.71289062 C130.901711,2.98242322 130.524762,3.1171875 130.040385,3.1171875 C129.540382,3.1171875 129.15562,2.98242322 128.886088,2.71289062 C128.616555,2.44335803 128.481791,2.07422109 128.481791,1.60546875 Z M138.266226,11.3789062 L133.91857,5.0390625 L137.059195,5.0390625 L140.01232,9.57421875 L142.988882,5.0390625 L146.10607,5.0390625 L141.746695,11.3789062 L146.328726,18 L143.211538,18 L140.01232,13.1484375 L136.82482,18 L133.707632,18 L138.266226,11.3789062 Z" id="FormsMatrix-Copy"/>
            </g>
            <g id="contract" fill-rule="nonzero">
                <path d="M27.4921875,36.0351562 L1.1953125,36.0351562 C0.53518125,36.0351562 0,35.4973516 0,34.8339844 L0,1.20117188 C0,0.537804687 0.53518125,0 1.1953125,0 L27.4921875,0 C28.1523187,0 28.6875,0.537804687 28.6875,1.20117188 L28.6875,34.8339844 C28.6875,35.4973516 28.1523187,36.0351562 27.4921875,36.0351562 Z" id="Shape" fill="#949FB3"/>
                <path d="M27.4921875,0 L14.34375,0 L14.34375,36.0351562 L27.4921875,36.0351562 C28.1523187,36.0351562 28.6875,35.4973516 28.6875,34.8339844 L28.6875,1.20117188 C28.6875,0.537804687 28.1523187,0 27.4921875,0 Z" id="Shape" fill="#8A94A8"/>
                <path d="M33.46875,14.4140625 L33.46875,39.7988281 C33.46875,40.4715645 32.9428922,41 32.2734375,41 L5.9765625,41 C5.30710781,41 4.78125,40.4715645 4.78125,39.7988281 L4.78125,6.00585938 C4.78125,5.33312305 5.30710781,4.8046875 5.9765625,4.8046875 L23.90625,4.8046875 L33.46875,14.4140625 Z" id="Shape" fill="#E0E4EC"/>
                <path d="M33.46875,14.4140625 L33.46875,39.7988281 C33.46875,40.4715645 32.9428922,41 32.2734375,41 L19.125,41 L19.125,4.8046875 L23.90625,4.8046875 L33.46875,14.4140625 Z" id="Shape" fill="#D1D7E3"/>
                <path d="M33.46875,11.7954277 L33.46875,14.4140625 L25.1015625,14.4140625 C24.4321078,14.4140625 23.90625,13.885627 23.90625,13.2128906 L23.90625,4.8046875 L26.5121109,4.8046875 C27.4682813,4.8046875 28.3528125,5.18898242 29.0461734,5.86171875 L32.416875,9.24894336 C33.0863297,9.94570313 33.46875,10.8345703 33.46875,11.7954277 Z" id="Shape" fill="#ADB5C5"/>
                <path d="M28.6875,24.8512944 C28.6875,25.5238706 28.1616422,26.0524663 27.4921875,26.0524663 L10.7578125,26.0524663 C10.0883578,26.0524663 9.5625,25.5238706 9.5625,24.8512944 C9.5625,24.1785581 10.0883578,23.6501225 10.7578125,23.6501225 L27.4921875,23.6501225 C28.1616422,23.6501225 28.6875,24.1785581 28.6875,24.8512944 Z" id="Shape" fill="#949FB3"/>
                <path d="M28.6875,24.8512944 C28.6875,25.5238706 28.1616422,26.0524663 27.4921875,26.0524663 L19.125,26.0524663 L19.125,23.6501225 L27.4921875,23.6501225 C28.1616422,23.6501225 28.6875,24.1785581 28.6875,24.8512944 Z" id="Shape" fill="#8A94A8"/>
                <path d="M21.515625,17.8309206 C21.515625,18.5034968 20.9897672,19.0320925 20.3203125,19.0320925 L10.7578125,19.0320925 C10.0883578,19.0320925 9.5625,18.5034968 9.5625,17.8309206 C9.5625,17.1581843 10.0883578,16.6297488 10.7578125,16.6297488 L20.3203125,16.6297488 C20.9897672,16.6297488 21.515625,17.1581843 21.515625,17.8309206 Z" id="Shape" fill="#949FB3"/>
                <path d="M21.515625,17.8309206 C21.515625,18.5034968 20.9897672,19.0320925 20.3203125,19.0320925 L19.125,19.0320925 L19.125,16.6297488 L20.3203125,16.6297488 C20.9897672,16.6297488 21.515625,17.1581843 21.515625,17.8309206 Z" id="Shape" fill="#8A94A8"/>
                <path d="M21.515625,10.8105469 C21.515625,11.483123 20.9897672,12.0117188 20.3203125,12.0117188 L10.7578125,12.0117188 C10.0883578,12.0117188 9.5625,11.483123 9.5625,10.8105469 C9.5625,10.1378105 10.0883578,9.609375 10.7578125,9.609375 L20.3203125,9.609375 C20.9897672,9.609375 21.515625,10.1378105 21.515625,10.8105469 Z" id="Shape" fill="#949FB3"/>
                <path d="M21.515625,10.8105469 C21.515625,11.483123 20.9897672,12.0117188 20.3203125,12.0117188 L19.125,12.0117188 L19.125,9.609375 L20.3203125,9.609375 C20.9897672,9.609375 21.515625,10.1378105 21.515625,10.8105469 Z" id="Shape" fill="#8A94A8"/>
                <g id="Group-4" transform="translate(20.751343, 26.797485)">
                    <path d="M15.2085558,3.24078556 L12.7076923,5.65414369 L6.38163269,11.7581861 C6.11692308,12.0421941 5.73442308,12.1841508 5.35192308,12.1841508 C4.96942308,12.1841508 4.58692308,12.0421941 4.32221346,11.7581861 L1.37990577,8.9190526 C0.791444231,8.37961723 0.791444231,7.47109451 1.37990577,6.93165914 C1.93894423,6.36392707 2.88028654,6.36392707 3.43942308,6.93165914 L5.35202115,8.74870459 L12.7077904,1.67926212 L13.1492346,1.25329745 C13.7082731,0.685565386 14.6496154,0.685565386 15.2087519,1.25329745 C15.7971154,1.79282746 15.7971154,2.70135019 15.2085558,3.24078556 Z" id="Shape" fill="#6D7B95"/>
                    <path d="M15.2085558,3.24078556 L12.7076923,5.65414369 L12.7076923,1.67935676 L13.1491365,1.25339209 C13.708175,0.685660024 14.6495173,0.685660024 15.2086538,1.25339209 C15.7971154,1.79282746 15.7971154,2.70135019 15.2085558,3.24078556 Z" id="Shape" fill="#576276"/>
                </g>
            </g>
        </g>
    </g>
</svg>
