<svg xmlns="http://www.w3.org/2000/svg" width="16" height="16" viewBox="0 0 16 16">
    <path d="M15.66 6.482c.509 2.885-.608 5.946-3.13 7.784-1.708 1.244-3.799 1.748-5.886 1.42-1.797-.283-3.405-1.154-4.612-2.481l.044 1.808-1.206.029-.067-2.792-.03-1.24 1.205-.03v.002l2.793-.068.029 1.24-1.408.033c.003.004.008.007.01.011l-.37.01c.995 1.116 2.334 1.848 3.83 2.083 1.716.27 3.433-.144 4.836-1.166 2.13-1.55 3.038-4.162 2.534-6.588l1.428-.055zM4.082 2.66c-2.129 1.55-3.037 4.162-2.534 6.587L.12 9.301c-.509-2.885.608-5.946 3.13-7.784C4.96.274 7.05-.23 9.138.098c1.797.283 3.405 1.154 4.612 2.481L13.705.771l1.206-.029.067 2.792.03 1.24-1.206.029v-.001l-2.792.068-.029-1.24 1.408-.034-.011-.01.371-.01c-.995-1.116-2.334-1.848-3.831-2.083-1.715-.27-3.432.144-4.836 1.166z"/>
</svg>
