<?xml version="1.0" encoding="UTF-8"?>
<svg width="22px" height="22px" viewBox="0 0 22 22" version="1.1" xmlns="http://www.w3.org/2000/svg" xmlns:xlink="http://www.w3.org/1999/xlink">
    <!-- Generator: Sketch 52.4 (67378) - http://www.bohemiancoding.com/sketch -->
    <title>icon-telegram-hover</title>
    <desc>Created with Sketch.</desc>
    <g id="页面-1" stroke="none" stroke-width="1" fill="none" fill-rule="evenodd">
        <g id="钱包主页" transform="translate(-204.000000, -10.000000)" fill="#FFFFFF" fill-rule="nonzero">
            <g id="分组" transform="translate(204.000000, 10.000000)">
                <path d="M11.519033,14.975844 C10.9017612,15.6016577 10.2964882,16.2078711 9.70188087,16.8224846 C9.4925684,17.0380893 9.25792514,17.1640921 8.95528863,17.1486917 C8.73931017,17.1388915 8.62065535,17.0408894 8.55532852,16.8280847 C8.09537438,15.3258517 7.62342145,13.8278188 7.16213413,12.3283859 C7.11947173,12.1925829 7.04747891,12.1421818 6.92882406,12.104381 C5.83559973,11.7515733 4.74504182,11.3973655 3.65448392,11.0361575 C3.50343535,10.9920108 3.35895806,10.9260457 3.22519338,10.8401533 C2.95588689,10.6623493 2.9185573,10.3795432 3.16519936,10.1681385 C3.35984661,10.0001348 3.59315669,9.86013173 3.83046637,9.7621296 C5.09034073,9.24271821 6.35688109,8.73870715 7.62075506,8.22909595 L17.9317268,4.08080488 C18.5636638,3.82739931 19.0516152,4.18860724 18.9956208,4.90402295 C18.9609576,5.3072318 18.8649671,5.70204046 18.7823087,6.09544912 C18.0357165,9.78173002 17.2851246,13.4638109 16.5345328,17.1486917 C16.355884,18.0237109 15.7812746,18.2449158 15.09201,17.7157042 L11.7016815,15.1046469 C11.6443538,15.066846 11.585693,15.0290452 11.519033,14.974444 L11.519033,14.975844 Z M9.0308282,16.0987654 C9.04814628,16.0155091 9.06146786,15.9766561 9.06679651,15.9391908 C9.14006529,15.1316044 9.21599839,14.3254057 9.27994205,13.5178193 C9.28747927,13.3427123 9.36471568,13.1787932 9.49308759,13.0654599 C11.2342201,11.4447367 12.9726883,9.82123834 14.7124887,8.19773995 C15.182741,7.75786903 15.6556577,7.32077332 16.1205814,6.87812716 C16.1725356,6.82817337 16.1898537,6.73659141 16.2244898,6.66443594 C16.1445602,6.63945905 16.0566377,6.579792 15.9873654,6.59505565 C15.8428916,6.63404662 15.704663,6.69481818 15.5770603,6.77544437 C13.0059923,8.44889655 10.4415852,10.1251239 7.87051725,11.7958009 C7.73730128,11.8846077 7.70666162,11.9567631 7.75861585,12.1163378 C8.1649245,13.3790588 8.56057589,14.6445549 8.95755945,15.9072759 C8.97221319,15.9613925 8.99352775,16.0085711 9.0308282,16.0987654 Z" id="形状"></path>
            </g>
        </g>
    </g>
</svg>