<?xml version="1.0" encoding="UTF-8"?>
<svg width="16px" height="16px" viewBox="0 0 16 16" version="1.1" xmlns="http://www.w3.org/2000/svg" xmlns:xlink="http://www.w3.org/1999/xlink">
    <!-- Generator: Sketch 52.4 (67378) - http://www.bohemiancoding.com/sketch -->
    <title>daoru-2</title>
    <desc>Created with Sketch.</desc>
    <g id="页面-1" stroke="none" stroke-width="1" fill="none" fill-rule="evenodd">
        <g id="切换账户" transform="translate(-174.000000, -490.000000)" fill="#FFFFFF">
            <g id="daoru-2" transform="translate(174.000000, 490.000000)">
                <g id="分组">
                    <path d="M8.21040838,15.9999592 C7.18921466,15.9999592 6.16802094,15.8012331 5.22848168,15.4434446 C3.71710995,14.8471032 2.41001047,13.853228 1.47055497,12.5412892 C0.49017801,11.2294318 0,9.63921529 0,8.00927389 C0,6.93586752 0.204272251,5.86246115 0.653549738,4.90841274 C1.06201047,3.95426242 1.67474346,3.07966369 2.41001047,2.36406624 C3.18611518,1.60872357 4.04393717,1.05212739 5.02429319,0.654593631 C6.04548691,0.21731465 7.10749738,0.0185273885 8.21040838,0.0185273885 C9.88515183,0.0185273885 11.5190576,0.495592357 12.9078953,1.44972229 C14.2558115,2.36406624 15.2770052,3.63619873 15.8897173,5.10713885 C16.0122723,5.42520255 15.8489005,5.82273631 15.5220942,5.94201274 C15.1953508,6.06126879 14.7868901,5.90226752 14.664356,5.58420382 C14.1741571,4.35179618 13.2755183,3.27838981 12.1726073,2.52304713 C11.0288796,1.728 9.64004188,1.33046624 8.25122513,1.33046624 C6.41313089,1.33046624 4.65664921,2.04598217 3.34948691,3.31819618 C2.04236649,4.59032866 1.30709948,6.29980127 1.30709948,8.08874395 C1.30709948,9.48021401 1.71564398,10.7920917 2.53256545,11.9450293 C3.30864921,13.0581605 4.41156021,13.8929529 5.71865969,14.3700382 C6.53566492,14.6881019 7.35258639,14.8471032 8.25122513,14.8471032 C9.10904712,14.8471032 9.96686911,14.6881019 10.7429738,14.4098446 C12.5810681,13.733972 14.0107225,12.3027567 14.7051728,10.513814 C14.8277068,10.1957503 15.1953508,9.9970242 15.5629948,10.1560255 C15.8897173,10.2752815 16.0939895,10.6330904 15.9306387,10.9908994 C15.1136335,13.0979057 13.3980733,14.8073783 11.1922513,15.6422522 C10.2527749,15.8409783 9.27241885,15.9999592 8.21040838,15.9999592 Z" id="Fill-1"></path>
                </g>
                <path d="M5.75949738,8.00927389 C5.75949738,7.65148535 6.04548691,7.37320764 6.41313089,7.37320764 L11.3556021,7.37320764 C11.7232461,7.37320764 12.0092356,7.65148535 12.0092356,8.00927389 C12.0092356,8.3670828 11.7232461,8.64534013 11.3556021,8.64534013 L6.41313089,8.64534013 C6.04548691,8.64534013 5.75949738,8.32727643 5.75949738,8.00927389 Z" id="Fill-3"></path>
                <path d="M8.74140314,10.8318981 C8.45549738,11.1101554 8.04695288,11.1101554 7.80186387,10.8318981 L5.35103665,8.44655287 C5.10594764,8.208 5.10594764,7.7707414 5.35103665,7.53220892 C5.63694241,7.25395159 6.04548691,7.25395159 6.29057592,7.53220892 L8.74140314,9.91749299 C9.02732984,10.1560255 8.98649215,10.5535592 8.74140314,10.8318981 Z" id="Fill-4"></path>
                <path d="M8.74140314,5.14694522 C9.02732984,5.42520255 9.02732984,5.82273631 8.74140314,6.06126879 L6.29057592,8.44655287 C6.04548691,8.68508535 5.59612565,8.68508535 5.35103665,8.44655287 C5.06510995,8.16827516 5.06510995,7.7707414 5.35103665,7.53220892 L7.80186387,5.14694522 C8.04695288,4.90841274 8.49631414,4.90841274 8.74140314,5.14694522 Z" id="Fill-5"></path>
            </g>
        </g>
    </g>
</svg>