<?xml version="1.0" encoding="UTF-8"?>
<svg width="28px" height="28px" viewBox="0 0 28 28" version="1.1" xmlns="http://www.w3.org/2000/svg" xmlns:xlink="http://www.w3.org/1999/xlink">
    <!-- Generator: Sketch 52.4 (67378) - http://www.bohemiancoding.com/sketch -->
    <title>画板</title>
    <desc>Created with Sketch.</desc>
    <defs>
        <circle id="path-1" cx="14" cy="14" r="10"></circle>
        <filter x="-32.5%" y="-27.5%" width="165.0%" height="165.0%" filterUnits="objectBoundingBox" id="filter-2">
            <feOffset dx="0" dy="1" in="SourceAlpha" result="shadowOffsetOuter1"></feOffset>
            <feGaussianBlur stdDeviation="2" in="shadowOffsetOuter1" result="shadowBlurOuter1"></feGaussianBlur>
            <feColorMatrix values="0 0 0 0 0.031372549   0 0 0 0 0.0549019608   0 0 0 0 0.329411765  0 0 0 0.3 0" type="matrix" in="shadowBlurOuter1"></feColorMatrix>
        </filter>
    </defs>
    <g id="页面-1" stroke="none" stroke-width="1" fill="none" fill-rule="evenodd">
        <g id="钱包主页-复制成功状态" transform="translate(-204.000000, -146.000000)">
            <g id="分组-13" transform="translate(128.000000, 146.000000)">
                <g id="分组-11-copy-5" transform="translate(76.000000, 0.000000)">
                    <g id="椭圆形" opacity="0.9" fill-rule="nonzero">
                        <use fill="black" fill-opacity="1" filter="url(#filter-2)" xlink:href="#path-1"></use>
                        <use fill="#FFFFFF" xlink:href="#path-1"></use>
                    </g>
                    <path d="M12.746372,9.63416159 L12.746372,12.1317226 C12.746372,12.475122 12.4653659,12.756128 12.1219665,12.756128 L9.62440549,12.756128 C9.2810061,12.756128 9,12.475122 9,12.1317226 L9,9.63416159 C9,9.2907622 9.2810061,9.0097561 9.62440549,9.0097561 L12.1219665,9.0097561 C12.4653659,9.0097561 12.746372,9.2907622 12.746372,9.63416159 Z M10,11.7823705 L11.8628823,11.7823705 L11.8628823,10.0097561 L10,10.0097561 L10,11.7823705 Z M19.246372,9.62440549 L19.246372,12.1219665 C19.246372,12.4653659 18.9653659,12.746372 18.6219665,12.746372 L16.1244055,12.746372 C15.7810061,12.746372 15.5,12.4653659 15.5,12.1219665 L15.5,9.62440549 C15.5,9.2810061 15.7810061,9 16.1244055,9 L18.6219665,9 C18.9653659,9 19.246372,9.2810061 19.246372,9.62440549 Z M16.5,11.7726144 L18.3628823,11.7726144 L18.3628823,10 L16.5,10 L16.5,11.7726144 Z M9.6248628,14.6292835 C9.28026575,14.6292835 9.00091463,14.3499324 9.00091463,14.0053354 L9.00091463,14.0044207 C9.00091463,13.6598237 9.28026575,13.3804726 9.6248628,13.3804726 C9.96945986,13.3804726 10.248811,13.6598237 10.248811,14.0044207 L10.248811,14.0053354 C10.248811,14.3499324 9.96945986,14.6292835 9.6248628,14.6292835 Z M16.1804726,14.6292835 C15.8356229,14.6292835 15.5560671,14.3497277 15.5560671,14.004878 C15.5560671,13.6600284 15.8356229,13.3804726 16.1804726,13.3804726 L18.6244055,13.3804726 C18.9692551,13.3804726 19.248811,13.6600284 19.248811,14.004878 C19.248811,14.3497277 18.9692551,14.6292835 18.6244055,14.6292835 L16.1804726,14.6292835 Z M11.7105853,13.3804726 L12.5063802,13.3804726 C13.0586649,13.3804726 13.5063802,12.9327573 13.5063802,12.3804726 L13.5063802,9.56632972 C13.5063802,9.2589426 13.7555667,9.0097561 14.0629538,9.0097561 C14.3703409,9.0097561 14.6195274,9.2589426 14.6195274,9.56632972 L14.6195274,13.6292835 C14.6195274,14.1815683 14.1718122,14.6292835 13.6195274,14.6292835 L11.7105853,14.6292835 C11.3657356,14.6292835 11.0861798,14.3497277 11.0861798,14.004878 C11.0861798,13.6600284 11.3657356,13.3804726 11.7105853,13.3804726 Z M19.1344046,15.8129198 L19.1344046,17.1268293 C19.1344046,18.494731 18.4518051,18.9999848 17.1170732,18.9999848 L16.0614207,18.9999848 C15.7823216,18.9999848 15.5560671,18.7737302 15.5560671,18.4946311 C15.5560671,18.215532 15.7823216,17.9892774 16.0614207,17.9892774 L17.1170732,17.9892774 C17.7063839,17.9892774 18.0159583,17.6658681 18.0159583,17.1268369 L18.0159583,15.8129198 C18.0159583,15.5040694 18.266331,15.2536966 18.5751814,15.2536966 C18.8840319,15.2536966 19.1344046,15.5040694 19.1344046,15.8129198 Z M13.3707165,17.7511738 L13.3707165,16.9707012 C13.3707165,16.1948085 13.9997018,15.5658232 14.7755945,15.5658232 L16.4926677,15.5658232 C16.8375173,15.5658232 17.1170732,15.845379 17.1170732,16.1902287 C17.1170732,16.5350783 16.8375173,16.8146341 16.4926677,16.8146341 L15.4,16.8146341 C14.9689569,16.8146341 14.6195274,17.1640636 14.6195274,17.5951067 L14.6195274,17.7511738 C14.6195274,18.0960234 14.3399716,18.3755793 13.995122,18.3755793 C13.6502723,18.3755793 13.3707165,18.0960234 13.3707165,17.7511738 Z M9,15.253689 L12.746372,15.253689 L12.746372,18.9999848 L10.8731555,18.9999848 C9.84294207,18.9999848 9,18.1570579 9,17.1268293 L9,15.253689 Z M11.8628823,17.9904516 L11.8628823,16.2160035 L10,16.2160035 L10,17.1268293 C10,17.1268293 9.93096924,17.9904516 10.8731555,17.9904516 L11.8628823,17.9904516 Z" id="合并形状" fill="#171642"></path>
                </g>
            </g>
        </g>
    </g>
</svg>