<?xml version="1.0" encoding="UTF-8"?>
<svg width="22px" height="22px" viewBox="0 0 22 22" version="1.1" xmlns="http://www.w3.org/2000/svg" xmlns:xlink="http://www.w3.org/1999/xlink">
    <!-- Generator: Sketch 52.4 (67378) - http://www.bohemiancoding.com/sketch -->
    <title>icon-home-hover</title>
    <desc>Created with Sketch.</desc>
    <g id="页面-1" stroke="none" stroke-width="1" fill="none" fill-rule="evenodd">
        <g id="钱包主页" transform="translate(-140.000000, -10.000000)" fill="#FFFFFF" fill-rule="nonzero">
            <g id="分组-8" transform="translate(140.000000, 10.000000)">
                <g id="分组-7" transform="translate(4.000000, 4.000000)">
                    <g id="分组-3">
                        <path d="M10.7824843,13.9999993 L10.7824843,10.6103427 C10.7824843,9.92996189 10.2309267,9.37840427 9.5505459,9.37840427 C8.8701651,9.37840427 8.31860747,9.92996189 8.31860747,10.6103427 L8.31860747,13.9999993 L3.12254309,13.9999993 C2.87238733,14.0003079 2.63284143,13.9003523 2.4588658,13.7230658 C2.2760357,13.5387221 2.18409597,13.2965795 2.18409597,13.0544766 L2.18409597,8.15669413 L0.546568294,8.15669413 L0.546568294,8.15665434 C0.327253648,8.15623958 0.12932451,8.02686347 0.0434828046,7.82781321 C-0.0454299403,7.62161579 0.00711857682,7.39241023 0.154593468,7.24198165 L6.88237792,0.427116853 C7.42985923,-0.128820067 8.31882519,-0.14374749 8.86638721,0.392286205 L15.8345953,7.21813758 C15.9901421,7.36956133 16.0467266,7.60469805 15.9578139,7.81690626 C15.8689011,8.02915427 15.6628238,8.15669415 15.4426608,8.15669413 L13.8859489,8.15669413 L13.8859489,13.0654632 C13.8859489,13.3055757 13.7950585,13.5436979 13.6142464,13.7270066 C13.4333939,13.90936 13.1959973,13.9999993 12.9596501,13.9999993 L11.4777172,13.9999993 L10.7824843,13.9999993 Z" id="合并形状"></path>
                    </g>
                </g>
            </g>
        </g>
    </g>
</svg>