<?xml version="1.0" encoding="UTF-8"?>
<svg width="22px" height="22px" viewBox="0 0 22 22" version="1.1" xmlns="http://www.w3.org/2000/svg" xmlns:xlink="http://www.w3.org/1999/xlink">
    <!-- Generator: Sketch 52.4 (67378) - http://www.bohemiancoding.com/sketch -->
    <title>icon-wechat-hover</title>
    <desc>Created with Sketch.</desc>
    <defs>
        <linearGradient x1="50%" y1="0%" x2="50%" y2="100%" id="linearGradient-1">
            <stop stop-color="#25228D" offset="0%"></stop>
            <stop stop-color="#0B0C5C" offset="100%"></stop>
        </linearGradient>
    </defs>
    <g id="页面-1" stroke="none" stroke-width="1" fill="none" fill-rule="evenodd">
        <g id="钱包主页" transform="translate(-236.000000, -10.000000)" fill="#FFFFFF" fill-rule="nonzero">
            <g id="分组-2" transform="translate(236.000000, 10.000000)">
                <g id="weixin" transform="translate(2.000000, 4.000000)">
                    <path d="M11.5135453,4.2467344 C8.65017669,4.2467344 6.38751473,6.40058055 6.38751473,9.04208998 C6.38751472,9.48911465 6.44758539,9.91582003 6.56772673,10.3222061 C6.38751472,10.3425254 6.18727915,10.3425254 6.00706714,10.3425254 C5.26619552,10.3425254 4.66548881,10.179971 3.90459364,10.0377359 L1.80212014,11.1146589 L2.40282686,9.28592163 C0.901060075,8.22931786 5.32907052e-15,6.84760524 5.32907052e-15,5.18142236 C5.32907052e-15,2.27576198 2.70318021,1.07469589e-13 6.00706714,1.07469589e-13 C8.9705536,1.07469589e-13 11.573616,1.8287373 12.0942285,4.28737301 C11.8939929,4.2670537 11.7137809,4.2467344 11.5135453,4.2467344 Z M8.2697291,2.58055152 C7.82921083,2.58055152 7.36866902,2.88534108 7.36866902,3.33236574 C7.36866902,3.77939041 7.80918729,4.08417997 8.2697291,4.08417997 C8.7302709,4.08417997 9.03062427,3.79970972 9.03062427,3.33236574 C9.03062427,2.88534108 8.7302709,2.58055152 8.2697291,2.58055152 Z M4.0647821,4.10449927 C4.50530035,4.10449927 4.80565371,3.79970972 4.82567727,3.35268505 C4.82567727,2.90566038 4.52532391,2.60087082 4.0647821,2.60087082 C3.62426383,2.60087082 3.16372202,2.88534108 3.16372202,3.35268505 C3.16372202,3.79970972 3.60424029,4.10449927 4.0647821,4.10449927 Z M17,8.98113207 C17,10.3425254 16.0989399,11.5616836 14.8975265,12.4760522 L15.3580683,14 L13.6961131,13.0856313 C13.0954064,13.2278665 12.4946997,13.3904209 11.8939929,13.3904209 C9.03062427,13.3904209 6.76796231,11.4194485 6.76796231,8.98113207 C6.76796231,6.54281567 9.03062427,4.57184324 11.8939929,4.57184324 C14.5971731,4.57184324 17,6.54281567 17,8.98113207 Z M10.2320377,8.20899854 C10.6725559,8.20899854 10.9729093,7.904209 10.9929329,7.59941945 C10.9929329,7.2946299 10.6925795,6.98984035 10.2320377,6.98984035 C9.93168434,6.98984035 9.63133098,7.2946299 9.63133098,7.59941945 C9.63133098,7.90420899 9.93168433,8.20899854 10.2320377,8.20899854 Z M13.5359246,8.20899854 C13.9964664,8.20899854 14.2968198,7.90420899 14.2968198,7.59941945 C14.2968198,7.2946299 13.9964664,6.98984035 13.5359246,6.98984035 C13.2355713,6.98984035 12.9352179,7.2946299 12.9352179,7.59941945 C12.9352179,7.90420899 13.2355713,8.20899854 13.5359246,8.20899854 Z" id="合并形状"></path>
                </g>
            </g>
        </g>
    </g>
</svg>