<?xml version="1.0" encoding="UTF-8"?>
<svg width="22px" height="22px" viewBox="0 0 22 22" version="1.1" xmlns="http://www.w3.org/2000/svg" xmlns:xlink="http://www.w3.org/1999/xlink">
    <!-- Generator: Sketch 52.4 (67378) - http://www.bohemiancoding.com/sketch -->
    <title>icon-refresh</title>
    <desc>Created with Sketch.</desc>
    <g id="页面-1" stroke="none" stroke-width="1" fill="none" fill-rule="evenodd">
        <g id="钱包主页-复制成功状态" transform="translate(-268.000000, -10.000000)" fill="#BEDBED" fill-rule="nonzero">
            <g id="分组-5" transform="translate(268.000000, 10.000000)">
                <g id="shuaxin-2-copy" transform="translate(2.825000, 4.475000)">
                    <path d="M1.41455199,7.01284041 L0.0892621355,7.01284041 C0.0114218943,7.01284041 -0.0284961782,6.9219698 0.023397316,6.86665726 L2.17697732,4.51784958 C2.21290359,4.48031607 2.2727807,4.48031607 2.30870696,4.51784958 L4.46228697,6.86665726 C4.51418047,6.9219698 4.47426239,7.01284041 4.39642215,7.01284041 L3.01127701,7.01284041 C3.01776223,9.9942957 5.47022193,12.4196416 8.48602867,12.4196416 C9.61571012,12.4196416 10.7014817,12.08184 11.6235892,11.4417948 C11.8870484,11.2580782 12.1365364,11.0506561 12.3640694,10.8254551 L13.4957468,11.9415832 C13.2023489,12.2339495 12.8810085,12.500635 12.5397089,12.7357133 C11.3481545,13.5614505 9.94703013,14 8.48602867,14 C7.53198674,14 6.60588746,13.8143079 5.73367758,13.44885 C4.89140625,13.0972203 4.13495878,12.5915056 3.4862901,11.949485 C2.83762142,11.3074644 2.3266701,10.5587696 1.97139925,9.72513052 C1.60370222,8.8654722 1.41611551,7.95292224 1.414552,7.01284041 Z M15.5575152,7.00098772 L13.9607923,7.00098772 C13.9607923,4.01411034 11.5058309,1.58233385 8.48602867,1.58233385 C7.02303132,1.58233385 5.64984963,2.14533653 4.61597155,3.1686186 L3.4862901,2.05051503 C4.13495878,1.40849443 4.89140625,0.902779738 5.73367758,0.551149993 C6.60588746,0.185692112 7.53198674,8.8817842e-15 8.48602867,8.8817842e-15 C9.44007061,8.8817842e-15 10.3661699,0.185692112 11.2383798,0.551149993 C12.0806511,0.902779738 12.8370986,1.40849443 13.4857672,2.05051503 C14.1344359,2.69253563 14.6453873,3.44123042 15.0006581,4.27486948 C15.3699003,5.1401157 15.5575152,6.05672358 15.5575152,7.00098772 Z M12.537713,7.14914632 C12.4858195,7.09185833 12.5277335,7.00296317 12.6035778,7.00296317 L16.9107379,7.00296317 C16.9885781,7.00296317 17.0284962,7.09383378 16.9766027,7.14914632 L14.8230227,9.497954 C14.7870964,9.53548751 14.7272193,9.53548751 14.691293,9.497954 L12.537713,7.14914632 Z" id="合并形状"></path>
                </g>
            </g>
        </g>
    </g>
</svg>