<?xml version="1.0" encoding="UTF-8"?>
<svg width="22px" height="22px" viewBox="0 0 22 22" version="1.1" xmlns="http://www.w3.org/2000/svg" xmlns:xlink="http://www.w3.org/1999/xlink">
    <!-- Generator: Sketch 52.4 (67378) - http://www.bohemiancoding.com/sketch -->
    <title>icon-setting-hover</title>
    <desc>Created with Sketch.</desc>
    <g id="页面-1" stroke="none" stroke-width="1" fill="none" fill-rule="evenodd">
        <g id="钱包主页" transform="translate(-300.000000, -10.000000)" fill="#FFFFFF" fill-rule="nonzero">
            <g id="分组-6" transform="translate(300.000000, 10.000000)">
                <g id="shezhi-7" transform="translate(3.650000, 3.925000)">
                    <path d="M13.8547656,5.59270853 C13.9509,6.05530122 13.9995274,6.52708977 14,7.00019717 C14,7.45426248 13.9515827,7.9032511 13.8549057,8.40727028 C13.8066284,8.55702349 13.7099514,8.65675056 13.6132569,8.70663216 C12.8832691,8.90621277 12.2498184,9.36035035 11.9115626,10.0138517 C11.5248369,10.717307 11.4765597,11.4707342 11.6698612,12.2241794 C11.718191,12.3737881 11.6698612,12.5235413 11.5732367,12.5733687 C10.8915262,13.1770427 10.1132612,13.631108 9.28657897,13.9804238 C9.14148465,14.0303234 9.04487764,13.9804238 8.9481831,13.8806425 C8.41156694,13.3267959 7.72999649,12.9776066 6.99999125,12.9776066 C6.27000351,12.9776066 5.54001578,13.276824 5.0518169,13.8806425 C5.00353965,13.9306144 4.90684511,13.9804238 4.81016808,13.9804238 L4.71335101,13.9804238 C3.88673876,13.6810619 3.10847378,13.2269966 2.42676329,12.5733687 C2.33006875,12.4735694 2.2817915,12.3239607 2.33006875,12.2241794 C2.57404566,11.4871928 2.48535066,10.6762418 2.08843744,10.0138517 C1.7016943,9.31030615 1.11673087,8.8563131 0.386743136,8.70663216 C0.241648818,8.65667829 0.144954282,8.55687895 0.144954282,8.40727028 C0.0489599236,7.94460532 0.000350088835,7.47288904 1.95399252e-14,6.99978164 C1.95399252e-14,6.54571633 0.0482772504,6.09672771 0.144954282,5.59270853 C0.193371568,5.44351538 0.2900486,5.34373411 0.386603101,5.29347311 C1.11659083,5.09391057 1.74997156,4.63984526 2.08829741,3.98619934 C2.47504054,3.28274408 2.52330029,2.52929882 2.32992872,1.77587163 C2.28166897,1.62626296 2.32992872,1.47650975 2.42662326,1.42661008 C3.10833374,0.822936097 3.88673876,0.368870787 4.713281,0.01953697 C4.85830529,-0.0298568372 4.95498233,0.01953697 5.05167686,0.119751838 C5.58829303,0.673616486 6.26988098,1.02280577 6.99986872,1.02280577 C7.72985645,1.02280577 8.45984419,0.723570354 8.94806057,0.119336308 C9.0447376,0.01953697 9.18983192,-0.0302723667 9.28650895,0.01953697 C10.1130512,0.319332448 10.8913862,0.773397757 11.5730967,1.42646555 C11.6697912,1.52640942 11.7180685,1.67601809 11.6697912,1.77579937 C11.4258143,2.51271378 11.5145093,3.32373697 11.9114225,3.98605481 C12.2981657,4.68952813 12.8831291,5.1437199 13.6131168,5.29334665 C13.7580886,5.34330051 13.8547656,5.44295532 13.8547656,5.59270853 Z M6.99986872,10.4374208 C8.85136603,10.4374208 10.2967778,8.88617702 10.2967778,6.9752112 C10.2967778,5.06426344 8.79332131,3.51258608 6.99986872,3.51258608 C5.14835389,3.51258608 3.7028721,5.06382985 3.7028721,6.97479567 C3.7028721,8.88574343 5.20641613,10.4374208 6.99986872,10.4374208 Z M6.99986872,4.8642673 C8.11659959,4.8642673 9.0447376,5.81769063 9.0447376,6.9752112 C9.0447376,8.13274983 8.1213783,9.08575763 6.99986872,9.08575763 C5.87834163,9.08575763 4.95498233,8.13231624 4.95498233,6.97479567 C4.95498233,5.81727511 5.87834163,4.8642673 6.99986872,4.8642673 Z" id="合并形状"></path>
                </g>
            </g>
        </g>
    </g>
</svg>