<?xml version="1.0" encoding="UTF-8"?>
<svg width="22px" height="22px" viewBox="0 0 22 22" version="1.1" xmlns="http://www.w3.org/2000/svg" xmlns:xlink="http://www.w3.org/1999/xlink">
    <!-- Generator: Sketch 52.4 (67378) - http://www.bohemiancoding.com/sketch -->
    <title>icon-twiter</title>
    <desc>Created with Sketch.</desc>
    <g id="页面-1" stroke="none" stroke-width="1" fill="none" fill-rule="evenodd">
        <g id="钱包主页-复制成功状态" transform="translate(-172.000000, -10.000000)" fill="#BEDBED" fill-rule="nonzero">
            <g id="分组-4" transform="translate(172.000000, 10.000000)">
                <path d="M19,5.64180623 C18.3544304,5.93430787 17.7088608,6.08055868 16.9915612,6.2268095 C17.7088608,5.78805705 18.2827004,5.05680299 18.4978903,4.25242351 C17.8523207,4.61805054 17.0632911,4.91055218 16.2742616,5.12992839 C15.1983122,3.95992188 13.4767933,3.66742025 12.113924,4.39867433 C10.7510548,5.12992841 10.0337553,6.73868735 10.3924051,8.3474463 C7.52320675,8.20119549 4.94092827,6.81181277 3.21940927,4.69117596 C2.93248943,5.20305381 2.71729957,5.86118247 2.71729957,6.44618571 C2.71729957,7.68931764 3.36286919,8.78619873 4.22362867,9.371202 C3.649789,9.371202 3.1476793,9.22495118 2.64556962,8.93244955 L2.64556962,9.00557497 C2.64556962,10.6874593 3.79324894,12.1499675 5.44303797,12.4424691 C4.94092827,12.5887199 4.36708859,12.5887199 3.86497889,12.5155945 C4.29535865,13.9781026 5.65822783,14.9287329 7.09282699,15.0018583 C5.8734177,15.9524886 4.36708859,16.5374919 2.78902954,16.5374919 C2.5021097,16.5374919 2.21518987,16.5374919 2,16.4643665 C3.721519,17.4149968 5.58649789,18 7.45147678,18 C13.835443,18 17.278481,12.5887199 17.278481,7.98181928 L17.278481,7.54306683 C17.9957806,7.03118898 18.5696202,6.37306032 19,5.64180623 Z" id="路径"></path>
            </g>
        </g>
    </g>
</svg>