<?xml version="1.0" encoding="UTF-8"?>
<svg width="16px" height="16px" viewBox="0 0 16 16" version="1.1" xmlns="http://www.w3.org/2000/svg" xmlns:xlink="http://www.w3.org/1999/xlink">
    <!-- Generator: Sketch 52.4 (67378) - http://www.bohemiancoding.com/sketch -->
    <title>chuangjian-2</title>
    <desc>Created with Sketch.</desc>
    <defs>
        <polygon id="path-1" points="0.00117073171 0.0156097561 15.9843707 0.0156097561 15.9843707 15.9999805 0.00117073171 15.9999805"></polygon>
    </defs>
    <g id="页面-1" stroke="none" stroke-width="1" fill="none" fill-rule="evenodd">
        <g id="切换账户" transform="translate(-36.000000, -490.000000)">
            <g id="chuangjian-2" transform="translate(36.000000, 490.000000)">
                <g id="分组">
                    <mask id="mask-2" fill="white">
                        <use xlink:href="#path-1"></use>
                    </mask>
                    <g id="Clip-2"></g>
                    <path d="M7.99223415,14.8582829 C10.4396293,14.8582829 12.7011512,13.5525854 13.924839,11.4330732 C15.1485463,9.31348293 15.1485463,6.70212683 13.924839,4.58261463 C12.7011512,2.46302439 10.4396293,1.15738537 7.99223415,1.15738537 C4.20876098,1.15738537 1.14177561,4.22437073 1.14177561,8.0078439 C1.14177561,11.7912195 4.20876098,14.8582829 7.99223415,14.8582829 Z M7.99223415,15.9999805 C3.57820488,15.9999805 0,12.4217756 0,8.0078439 C0,3.59381463 3.57820488,0.0156097561 7.99223415,0.0156097561 C12.4061659,0.0156097561 15.9843707,3.59381463 15.9843707,8.0078439 C15.9843707,12.4217756 12.4061659,15.9999805 7.99223415,15.9999805 Z" id="Fill-1" fill="#FFFFFF" mask="url(#mask-2)"></path>
                </g>
                <path d="M3.4857561,8.58435122 L12.5591415,8.58435122 C12.7631024,8.58442927 12.9516098,8.47559024 13.0536585,8.29898537 C13.1556488,8.12232195 13.1556488,7.90470244 13.0536585,7.72803902 C12.9516098,7.55143415 12.7631024,7.44259512 12.5591415,7.44267317 L3.4857561,7.44267317 C3.28177561,7.44259512 3.0932878,7.55143415 2.99123902,7.72803902 C2.88924878,7.90470244 2.88924878,8.12232195 2.99123902,8.29898537 C3.0932878,8.47559024 3.28177561,8.58442927 3.4857561,8.58435122 Z" id="Fill-3" fill="#FFFFFF"></path>
                <path d="M8.59276098,12.5508293 L8.59276098,3.47734634 C8.59268293,3.16210732 8.3371122,2.90661463 8.02187317,2.90661463 C7.70663415,2.90661463 7.45106341,3.16210732 7.45098537,3.47734634 L7.45098537,12.5508293 C7.45098537,12.7547902 7.55976585,12.943278 7.73642927,13.0452683 C7.91303415,13.147239 8.1307122,13.147239 8.30731707,13.0452683 C8.484,12.943278 8.59276098,12.7547902 8.59276098,12.5508293 Z" id="Fill-4" fill="#FFFFFF"></path>
            </g>
        </g>
    </g>
</svg>