<?xml version="1.0" encoding="UTF-8"?>
<svg width="28px" height="28px" viewBox="0 0 28 28" version="1.1" xmlns="http://www.w3.org/2000/svg" xmlns:xlink="http://www.w3.org/1999/xlink">
    <!-- Generator: Sketch 52.4 (67378) - http://www.bohemiancoding.com/sketch -->
    <title>画板</title>
    <desc>Created with Sketch.</desc>
    <defs>
        <circle id="path-1" cx="14" cy="14" r="10"></circle>
        <filter x="-32.5%" y="-27.5%" width="165.0%" height="165.0%" filterUnits="objectBoundingBox" id="filter-2">
            <feOffset dx="0" dy="1" in="SourceAlpha" result="shadowOffsetOuter1"></feOffset>
            <feGaussianBlur stdDeviation="2" in="shadowOffsetOuter1" result="shadowBlurOuter1"></feGaussianBlur>
            <feColorMatrix values="0 0 0 0 0.031372549   0 0 0 0 0.0549019608   0 0 0 0 0.329411765  0 0 0 0.3 0" type="matrix" in="shadowBlurOuter1"></feColorMatrix>
        </filter>
    </defs>
    <g id="页面-1" stroke="none" stroke-width="1" fill="none" fill-rule="evenodd">
        <g id="钱包主页" transform="translate(-166.000000, -146.000000)" fill-rule="nonzero">
            <g id="分组-13" transform="translate(128.000000, 146.000000)">
                <g id="分组-11-copy-3" transform="translate(38.000000, 0.000000)">
                    <g id="椭圆形" opacity="0.9">
                        <use fill="black" fill-opacity="1" filter="url(#filter-2)" xlink:href="#path-1"></use>
                        <use fill="#FFFFFF" xlink:href="#path-1"></use>
                    </g>
                    <g id="分组-9" transform="translate(9.000000, 9.000000)">
                        <rect id="矩形" stroke="#171642" fill="#E8E9F4" x="2.5" y="0.5" width="7" height="7" rx="2"></rect>
                        <rect id="矩形" stroke="#171642" fill="#E8E9F4" x="0.5" y="2.5" width="7" height="7" rx="2"></rect>
                        <path d="M2.5,5 L5.37598589,5 C5.65212826,5 5.87598589,5.22385763 5.87598589,5.5 L5.87598589,5.5 C5.87598589,5.77614237 5.65212826,6 5.37598589,6 L2.5,6 C2.22385763,6 2,5.77614237 2,5.5 L2,5.5 C2,5.22385763 2.22385763,5 2.5,5 Z" id="矩形" fill="#171642"></path>
                    </g>
                </g>
            </g>
        </g>
    </g>
</svg>