<?xml version="1.0" encoding="UTF-8"?>
<svg width="22px" height="22px" viewBox="0 0 22 22" version="1.1" xmlns="http://www.w3.org/2000/svg" xmlns:xlink="http://www.w3.org/1999/xlink">
    <!-- Generator: Sketch 52.4 (67378) - http://www.bohemiancoding.com/sketch -->
    <title>icon-lock-hover</title>
    <desc>Created with Sketch.</desc>
    <g id="页面-1" stroke="none" stroke-width="1" fill="none" fill-rule="evenodd">
        <g id="钱包主页" transform="translate(-332.000000, -10.000000)" fill="#FFFFFF">
            <g id="分组-6" transform="translate(332.000000, 10.000000)">
                <g id="shezhi-7" transform="translate(4.650000, 3.925000)">
                    <g id="suo-3">
                        <path d="M2.24998881,5.60000696 L2.24998881,3.50003481 C2.24998881,1.56725069 3.92867182,-5.02708986e-13 6.00003581,-5.02708986e-13 C8.07132818,-5.02708986e-13 9.75001119,1.56725069 9.75001119,3.50003481 L9.75001119,5.60000696 L10.4000036,5.60000696 C10.824374,5.60000696 11.2313242,5.76387038 11.5313538,6.05563568 C11.8314549,6.34733136 12,6.74297778 12,7.15556058 L12,12.4444464 C12,13.303537 11.2836387,14 10.4000036,14 L1.59999642,14 C1.17562596,14 0.768675756,13.8361366 0.468646215,13.5443713 C0.168545059,13.252693 -2.66453526e-14,12.8570292 -2.66453526e-14,12.4444464 L-2.66453526e-14,7.15556058 C-2.66453526e-14,6.74297778 0.168545059,6.34733136 0.468646215,6.05563568 C0.768675756,5.76387038 1.17562596,5.60000696 1.59999642,5.60000696 L2.24998881,5.60000696 Z M3.84998523,5.60000696 L8.15001477,5.60000696 L8.15001477,3.50003481 C8.15001477,2.440893 7.20203386,1.55555362 6.00003581,1.55555362 C4.79796614,1.55555362 3.84998523,2.440893 3.84998523,3.50003481 L3.84998523,5.60000696 Z M5.6253122,9.40724651 L5.6253122,11.2000313 L6.3746878,11.2000313 L6.3746878,9.46428714 C6.79143131,9.32265163 7.04908288,8.91652659 6.99229247,8.49088902 C6.93543045,8.06525145 6.57966681,7.73656727 6.13955903,7.70304263 C5.69945125,7.6695354 5.29536564,7.94041308 5.17107843,8.35224741 C5.04680912,8.76409915 5.23633727,9.20428843 5.6253122,9.40724651 Z" id="合并形状"></path>
                    </g>
                </g>
            </g>
        </g>
    </g>
</svg>