<?xml version="1.0" encoding="UTF-8"?>
<svg width="28px" height="28px" viewBox="0 0 28 28" version="1.1" xmlns="http://www.w3.org/2000/svg" xmlns:xlink="http://www.w3.org/1999/xlink">
    <!-- Generator: Sketch 52.4 (67378) - http://www.bohemiancoding.com/sketch -->
    <title>画板</title>
    <desc>Created with Sketch.</desc>
    <defs>
        <circle id="path-1" cx="14" cy="14" r="10"></circle>
        <filter x="-32.5%" y="-27.5%" width="165.0%" height="165.0%" filterUnits="objectBoundingBox" id="filter-2">
            <feOffset dx="0" dy="1" in="SourceAlpha" result="shadowOffsetOuter1"></feOffset>
            <feGaussianBlur stdDeviation="2" in="shadowOffsetOuter1" result="shadowBlurOuter1"></feGaussianBlur>
            <feColorMatrix values="0 0 0 0 0.031372549   0 0 0 0 0.0549019608   0 0 0 0 0.329411765  0 0 0 0.3 0" type="matrix" in="shadowBlurOuter1"></feColorMatrix>
        </filter>
    </defs>
    <g id="页面-1" stroke="none" stroke-width="1" fill="none" fill-rule="evenodd">
        <g id="钱包主页-复制成功状态" transform="translate(-128.000000, -146.000000)">
            <g id="分组-13" transform="translate(128.000000, 146.000000)">
                <g id="分组-11-copy-4">
                    <g id="椭圆形" opacity="0.9" fill-rule="nonzero">
                        <use fill="black" fill-opacity="1" filter="url(#filter-2)" xlink:href="#path-1"></use>
                        <use fill="#FFFFFF" xlink:href="#path-1"></use>
                    </g>
                    <g id="chakan" transform="translate(9.000000, 9.000000)" fill="#171642">
                        <path d="M6.94012195,2.7387439 C6.9405,2.85531707 6.89443902,2.9672561 6.81207317,3.04976829 C6.7297561,3.13226829 6.61790244,3.17852439 6.50132927,3.17834146 L3.92692683,3.178342 L3.92692683,2.29919512 L6.50052439,2.29919512 C6.74332927,2.29919512 6.94012195,2.4959878 6.94012195,2.7387439 Z M1.01052439,8.08196341 L1.01052439,8.08120732 L4.2335122,8.08120732 C4.36657317,8.4514878 4.57159756,8.79181707 4.83679268,9.08253659 L0.557170732,9.08253659 C0.249,9.08253659 -1.10134124e-13,8.83430488 -1.10134124e-13,8.53228049 L-1.10134124e-13,2.3222561 L2.35308537,0.0114146341 L8.21117073,0.0114146341 C8.5164878,0.00970731707 8.76543902,0.255609756 8.76753659,0.560865854 L8.76753659,4.6415122 C8.4615122,4.43091463 8.11914634,4.2787561 7.75776829,4.19273171 L7.75776829,1.01123171 L2.78343902,1.01123171 L2.77114634,1.02352439 L2.77114634,2.84864634 L1.01052439,2.84864634 L1.01052439,8.08196341 Z M1.87971951,6.48354878 L1.88047561,6.48354878 C1.8802439,6.36717073 1.92630488,6.25546341 2.00842683,6.17304878 C2.09060976,6.09059756 2.20212195,6.04419512 2.3185,6.04395122 L4.24585366,6.04395122 C4.14209756,6.32063415 4.08136585,6.61569512 4.06526829,6.92386585 L2.3185,6.92386585 C2.07564634,6.92386585 1.87971951,6.72717073 1.87971951,6.48354878 Z M6.40986585,4.17195122 L6.40910976,4.17195122 C5.81712195,4.30191463 5.2784878,4.60845122 4.86447561,5.05109756 L2.3185,5.05109756 C2.0757439,5.05109756 1.87890244,4.85431707 1.87890244,4.61154878 C1.87890244,4.3687439 2.0757439,4.17195122 2.3185,4.17195122 L6.40986585,4.17195122 Z M9.68618363,8.81532148 C9.93234195,9.04084182 9.90114196,9.46017558 9.68618363,9.6879949 C9.47122529,9.91581423 9.00480456,9.93810513 8.76753659,9.6879949 L8.14276829,9.09407317 C7.24862195,9.57820732 6.14304878,9.421 5.41930488,8.70673171 C4.98608537,8.27790244 4.74232927,7.69368293 4.74232927,7.08410976 C4.74232927,6.47454878 4.98608537,5.89028049 5.41930488,5.46145122 C6.3237439,4.56581707 7.78086585,4.56581707 8.68530488,5.46145122 C9.4042439,6.17514634 9.5635,7.27865854 9.07569512,8.16652439 L9.68618363,8.81532148 Z M7.98447561,8.01203659 L7.98523171,8.01203659 C8.23256098,7.7667561 8.37167073,7.43281707 8.37167073,7.0845 C8.37167073,6.73617073 8.23256098,6.40223171 7.98523171,6.15695122 C7.46823171,5.6445122 6.63486585,5.6445122 6.11785366,6.15695122 C5.87109756,6.40252439 5.73237805,6.73636585 5.73237805,7.0845 C5.73237805,7.43262195 5.87109756,7.76641463 6.11785366,8.01203659 C6.63542683,8.52228049 7.46689024,8.52228049 7.98447561,8.01203659 Z" id="合并形状"></path>
                    </g>
                </g>
            </g>
        </g>
    </g>
</svg>