<?xml version="1.0" encoding="UTF-8"?>
<svg width="34px" height="34px" viewBox="0 0 34 34" version="1.1" xmlns="http://www.w3.org/2000/svg" xmlns:xlink="http://www.w3.org/1999/xlink">
    <!-- Generator: Sketch 53.2 (72643) - https://sketchapp.com -->
    <title>分组 2</title>
    <desc>Created with Sketch.</desc>
    <g id="页面-1" stroke="none" stroke-width="1" fill="none" fill-rule="evenodd">
        <g id="1-2.-其它Token详情" transform="translate(-16.000000, -398.000000)">
            <g id="分组-11-copy-2" transform="translate(16.000000, 398.000000)">
                <g id="Group-12">
                    <g id="分组-2">
                        <circle id="Oval-4" fill="#F4F8FF" cx="17" cy="17" r="17"></circle>
                        <g id="zhichu" transform="translate(11.000000, 10.000000)" fill="#000000">
                            <path d="M10.9914896,3.95617365 L8.74359551,3.95617365 L8.74359551,4.55716766 L10.8889502,4.55716766 C11.7094318,4.55716766 12.3846806,5.23526647 12.3846806,6.05944311 L12.3846806,11.8796497 C12.3846806,12.7037216 11.7094318,13.3819042 10.8889502,13.3819042 L2.10257785,13.3819042 C1.28207544,13.3819042 0.606847512,12.7037216 0.606847512,11.8796497 L0.606847512,6.0679521 C0.606847512,5.24385928 1.28207544,4.56567665 2.10257785,4.56567665 L4.24784912,4.56567665 L4.24784912,3.96476647 L2.00003852,3.96476647 C0.897438202,3.95617365 0,4.86613174 0,5.96496407 L0,11.9912305 C0,13.0986557 0.897438202,14 2.00003852,14 L10.9914896,14 C12.0940899,14 12.9915281,13.0986557 12.9915281,11.9912305 L12.9915281,5.96496407 C12.9915281,4.86613174 12.0940899,3.95617365 10.9914896,3.95617365 Z" id="Fill-1"></path>
                            <path d="M8.22223917,2.60846407 L6.49576404,0.00737724551 L4.76928892,2.60846407 L6.0769679,2.60846407 L6.0769679,9.4846018 C6.0769679,9.71637725 6.26499839,9.89663772 6.48720867,9.89663772 C6.70939807,9.89663772 6.89744944,9.70778443 6.89744944,9.4846018 L6.89744944,2.60846407 L8.22223917,2.60846407 Z" id="Fill-2"></path>
                        </g>
                    </g>
                </g>
            </g>
        </g>
    </g>
</svg>