<?xml version="1.0" encoding="UTF-8"?>
<svg width="128px" height="128px" viewBox="0 0 128 128" version="1.1" xmlns="http://www.w3.org/2000/svg" xmlns:xlink="http://www.w3.org/1999/xlink">
    <!-- Generator: Sketch 53.2 (72643) - https://sketchapp.com -->
    <title>分组 2</title>
    <desc>Created with Sketch.</desc>
    <g id="页面-1" stroke="none" stroke-width="1" fill="none" fill-rule="evenodd">
        <g id="画板-copy-2">
            <g id="分组-2">
                <rect id="矩形" fill="#4E50F6" x="0" y="0" width="128" height="128"></rect>
                <path d="M72.7766475,20.1153374 L64.0502581,35.132999 L64,35.0461538 L37.828568,80.2699215 L20.2948843,80.2699215 L64,5 L72.7766475,20.1153374 Z M74.1617753,22.5008353 L118,98 L100.494114,98 L87.1325389,75.0054257 L87.1267418,75.0087512 L65.4330727,37.5224779 L74.1617753,22.5008353 Z M18.9102689,82.6545368 L36.448568,82.6545368 L36.4,82.7384615 L88.8547322,82.7384615 L97.7228323,98 L10,98 L18.9102689,82.6545368 Z" id="合并形状" fill="#FFFFFF"></path>
                <g id="分组" transform="translate(22.000000, 109.000000)" fill="#FFFFFF">
                    <path d="M2.42589038,6.09825721 L1.96818931,7.21574109 L0.790704388,9.91586538 L0,9.91586538 L4.20061706,0 L4.99132145,0 L9.29077656,9.91586538 L8.45065315,9.91586538 L7.11633949,6.74278846 L7.10938809,6.74278846 L6.54193408,5.42662032 L4.64538828,0.842848558 L4.59596926,0.842848558 L2.42153219,6.09825721 L2.42589038,6.09825721 Z M29.66639,0.694110577 L26.4541534,0.694110577 L26.4541534,5.25540865 L29.66639,5.25540865 C31.5113761,5.25540865 32.4338554,4.46214736 32.4338554,2.87560096 C32.3350168,1.48737287 31.4125376,0.760216677 29.66639,0.694110577 Z M29.8640661,5.94951923 L26.4541534,5.94951923 L26.4541534,9.91586538 L25.7128681,9.91586538 L25.7128681,0.0495793269 L29.9629042,0.0495793269 C31.9726212,0.181791526 33.0763017,1.14031559 33.2739788,2.92518029 C33.2080864,4.87531023 32.0714602,5.88341313 29.8640661,5.94951923 Z M82.9700491,9.91586538 L82.0310876,9.91586538 L78.4729179,5.25540865 L74.8653291,9.91586538 L73.9263676,9.91586538 L78.0281467,4.85877404 L74.3711389,0.0495793269 L75.2606813,0.0495793269 L78.4729179,4.46213942 L81.7345735,0.0495793269 L82.6735349,0.0495793269 L78.9176891,4.85877404 L82.9700491,9.91586538 Z" id="合并形状" fill-rule="nonzero"></path>
                    <polygon id="矩形" points="50.3519955 0.0465745192 57.2526884 0.0465745192 57.2526884 0.693616375 50.3519955 0.693616375"></polygon>
                    <polygon id="矩形-copy-2" points="50.3519955 9.27734375 57.2526884 9.27734375 57.2526884 9.92438561 50.3519955 9.92438561"></polygon>
                    <polygon id="矩形-copy" points="50.7353673 4.46965144 56.8693165 4.46965144 56.8693165 5.1166933 50.7353673 5.1166933"></polygon>
                </g>
            </g>
        </g>
    </g>
</svg>