<?xml version="1.0" encoding="UTF-8"?>
<svg width="128px" height="128px" viewBox="0 0 128 128" version="1.1" xmlns="http://www.w3.org/2000/svg" xmlns:xlink="http://www.w3.org/1999/xlink">
    <!-- Generator: Sketch 53.2 (72643) - https://sketchapp.com -->
    <title>分组 2</title>
    <desc>Created with Sketch.</desc>
    <g id="页面-1" stroke="none" stroke-width="1" fill="none" fill-rule="evenodd">
        <g id="画板-copy-3">
            <g id="分组-2">
                <rect id="矩形" fill="#4E50F6" x="0" y="0" width="128" height="128" rx="64"></rect>
                <path d="M72.7766475,18.1153374 L64.0502581,33.132999 L64,33.0461538 L37.828568,78.2699215 L20.2948843,78.2699215 L64,3 L72.7766475,18.1153374 Z M74.1617753,20.5008353 L118,96 L100.494114,96 L87.1325389,73.0054257 L87.1267418,73.0087512 L65.4330727,35.5224779 L74.1617753,20.5008353 Z M18.9102689,80.6545368 L36.448568,80.6545368 L36.4,80.7384615 L88.8547322,80.7384615 L97.7228323,96 L10,96 L18.9102689,80.6545368 Z" id="合并形状" fill="#FFFFFF"></path>
                <g id="分组" transform="translate(39.000000, 111.000000)" fill="#FFFFFF">
                    <path d="M1.46137975,3.65895433 L1.18565621,4.32944465 L0.476327945,5.94951923 L0,5.94951923 L2.53049221,0 L3.00682015,0 L5.59685335,5.94951923 L5.09075491,5.94951923 L4.2869515,4.04567308 L4.28276391,4.04567308 L3.94092415,3.25597219 L2.79842667,0.505709135 L2.76865618,0.505709135 L1.45875433,3.65895433 L1.46137975,3.65895433 Z M17.8713193,0.416466346 L15.936237,0.416466346 L15.936237,3.15324519 L17.8713193,3.15324519 C18.9827567,3.15324519 19.5384671,2.67728841 19.5384671,1.72536058 C19.4789258,0.89242372 18.9232154,0.456130006 17.8713193,0.416466346 Z M17.9904013,3.56971154 L15.936237,3.56971154 L15.936237,5.94951923 L15.4896796,5.94951923 L15.4896796,0.0297475962 L18.0499423,0.0297475962 C19.2606152,0.109074916 19.9254829,0.684189357 20.0445655,1.75510817 C20.0048713,2.92518614 19.3201568,3.53004788 17.9904013,3.56971154 Z M49.9819573,5.94951923 L49.4163178,5.94951923 L47.2728421,3.15324519 L45.0995958,5.94951923 L44.5339564,5.94951923 L47.0049076,2.91526442 L44.8018909,0.0297475962 L45.3377598,0.0297475962 L47.2728421,2.67728365 L49.2376949,0.0297475962 L49.8033343,0.0297475962 L47.5407766,2.91526442 L49.9819573,5.94951923 Z" id="合并形状" fill-rule="nonzero"></path>
                    <polygon id="矩形" points="30.3325274 0.0279447115 34.4895713 0.0279447115 34.4895713 0.416169825 30.3325274 0.416169825"></polygon>
                    <polygon id="矩形-copy-2" points="30.3325274 5.56640625 34.4895713 5.56640625 34.4895713 5.95463136 30.3325274 5.95463136"></polygon>
                    <polygon id="矩形-copy" points="30.5634743 2.68179087 34.2586244 2.68179087 34.2586244 3.07001598 30.5634743 3.07001598"></polygon>
                </g>
            </g>
        </g>
    </g>
</svg>