<?xml version="1.0" encoding="UTF-8"?>
<svg width="16px" height="16px" viewBox="0 0 16 16" version="1.1" xmlns="http://www.w3.org/2000/svg" xmlns:xlink="http://www.w3.org/1999/xlink">
    <!-- Generator: Sketch 52.4 (67378) - http://www.bohemiancoding.com/sketch -->
    <title>send</title>
    <desc>Created with Sketch.</desc>
    <g id="页面-1" stroke="none" stroke-width="1" fill="none" fill-rule="evenodd">
        <g id="1-1.-GSC详情" transform="translate(-225.000000, -485.000000)">
            <g id="send" transform="translate(16.000000, 476.000000)">
                <g id="分组-12" transform="translate(209.000000, 9.000000)">
                    <g id="Group-15">
                        <g id="Group-9">
                            <rect id="Rectangle-7" stroke="#FFFFFF" stroke-width="0.8" x="0.4" y="0.4" width="15.2" height="15.2" rx="7.6"></rect>
                            <path d="M7.14792899,7.21684469 L5.7622685,8.60250519 C5.42951407,8.93525961 4.89001255,8.93525961 4.55725813,8.60250519 C4.2245037,8.26975076 4.2245037,7.73024924 4.55725813,7.39749481 L7.39749481,4.55725813 C7.73024924,4.2245037 8.26975076,4.2245037 8.60250519,4.55725813 L11.4427419,7.39749481 C11.7754963,7.73024924 11.7754963,8.26975076 11.4427419,8.60250519 C11.1099874,8.93525961 10.5704859,8.93525961 10.2377315,8.60250519 L8.85207101,7.21684469 L8.85207101,10.8402367 C8.85207101,11.3108225 8.47058582,11.6923077 8,11.6923077 C7.52941418,11.6923077 7.14792899,11.3108225 7.14792899,10.8402367 L7.14792899,7.21684469 Z" id="Combined-Shape" fill="#FFFFFF" fill-rule="nonzero" transform="translate(8.000000, 8.000000) scale(1, -1) translate(-8.000000, -8.000000) "></path>
                        </g>
                    </g>
                </g>
            </g>
        </g>
    </g>
</svg>