<?xml version="1.0" encoding="UTF-8"?>
<svg width="30px" height="30px" viewBox="0 0 30 30" version="1.1" xmlns="http://www.w3.org/2000/svg" xmlns:xlink="http://www.w3.org/1999/xlink">
    <!-- Generator: Sketch 52.4 (67378) - http://www.bohemiancoding.com/sketch -->
    <title>Group 12</title>
    <desc>Created with Sketch.</desc>
    <g id="页面-1" stroke="none" stroke-width="1" fill="none" fill-rule="evenodd">
        <g id="设置-" transform="translate(-16.000000, -240.000000)" fill="#171642" stroke="#171642" stroke-width="0.2">
            <g id="分组-copy-3" transform="translate(16.000000, 240.000000)">
                <g id="Group-12">
                    <g id="分组-3">
                        <g id="分组-2">
                            <g id="分组-5">
                                <g id="ziyuan" transform="translate(5.000000, 5.000000)">
                                    <path d="M19.3961346,17.4557887 C19.0715228,17.4557887 18.8083729,17.1918679 18.8083729,16.8663051 L18.8083729,2.49705258 C18.8083735,2.14706569 18.6695872,1.81144769 18.4226115,1.56419084 C18.1756359,1.316934 17.8407508,1.17834113 17.4917868,1.17896723 L3.17391293,1.17896723 C2.84930114,1.17896722 2.58615128,0.91504642 2.58615128,0.589483613 C2.58615128,0.263920807 2.84930114,4.85126457e-09 3.17391293,6.57062939e-16 L17.4917868,6.57062939e-16 C18.1524236,-0.000312754708 18.7861263,0.262593129 19.2534875,0.730881342 C19.7208486,1.19916956 19.9835845,1.83448035 19.9838962,2.49705258 L19.9838962,16.8663051 C19.9838962,17.1918679 19.7207464,17.4557887 19.3961346,17.4557887 Z" id="路径"></path>
                                    <path d="M15.281803,20 L2.11594195,20 C0.947339478,20 1.43112527e-16,19.0498851 0,17.877859 L0,4.66281537 C-1.43112527e-16,3.49078926 0.947339478,2.54067437 2.11594195,2.54067437 L15.281803,2.54067437 C16.4504055,2.54067437 17.397745,3.49078926 17.397745,4.66281537 L17.397745,17.8813959 C17.3957996,19.0520405 16.4490297,20.0000016 15.281803,20 Z M2.11594195,3.7231785 C1.59656307,3.72317851 1.17552331,4.14545179 1.17552331,4.66635229 L1.17552331,17.8813959 C1.17552332,18.4022964 1.59656308,18.8245697 2.11594195,18.8245697 L15.281803,18.8245697 C15.8011819,18.8245697 16.2222216,18.4022964 16.2222217,17.8813959 L16.2222217,4.66281537 C16.2222216,4.14191489 15.8011819,3.71964161 15.281803,3.7196416 L2.11594195,3.7231785 Z" id="形状" fill-rule="nonzero"></path>
                                    <path d="M12.911948,14.2348503 C12.9138241,14.3566712 12.8606771,14.4728106 12.7673587,14.5508135 C12.6698157,14.6358609 12.5438916,14.6809054 12.4147017,14.676963 C12.2170836,14.6849763 12.0377371,14.5617041 11.9738804,14.3739684 L11.0851848,12.3272813 L6.33724615,12.3272813 L5.43091768,14.3739684 C5.36706103,14.5617041 5.18771451,14.6849763 4.99009644,14.676963 C4.86000223,14.6787286 4.73404393,14.6311453 4.63743945,14.5437397 C4.54083842,14.4650706 4.4850593,14.3466806 4.48579694,14.2218816 C4.48633921,14.1515947 4.50367264,14.0824621 4.53634444,14.0202782 L8.13814787,5.9856166 C8.18259174,5.87455463 8.2623419,5.78130926 8.36502386,5.72034896 C8.46616397,5.66084291 8.58162538,5.63026201 8.69887248,5.63192643 C8.81873028,5.63050368 8.93653182,5.66320864 9.03859871,5.72624381 C9.13832474,5.78807231 9.21733528,5.8784 9.26547472,5.9856166 L12.8672781,14.0202782 C12.8990658,14.0871894 12.9143845,14.1607725 12.911948,14.2348503 Z M10.7078418,11.4678142 L8.70945219,6.93350625 L6.71576465,11.4678142 L10.7078418,11.4678142 Z" id="形状" fill-rule="nonzero"></path>
                                    <path d="M12.4205793,14.7948597 C12.175878,14.8022591 11.9544487,14.6502358 11.8727854,14.4187692 L11.0099513,12.445178 L6.41365517,12.445178 L5.5378903,14.4211271 C5.45604095,14.6521432 5.23440084,14.8033573 4.99009644,14.7948597 C4.83138836,14.7968031 4.67777464,14.7387135 4.55985492,14.6321622 C4.43750206,14.5314267 4.36708144,14.3806404 4.36824462,14.2218816 C4.36919133,14.133318 4.39051258,14.0461692 4.43054734,13.9672247 L8.03117525,5.93727895 C8.08604675,5.80407827 8.18258346,5.69236343 8.30624769,5.61895779 C8.55092165,5.4769392 8.85335728,5.48010352 9.09502384,5.62721057 C9.21408001,5.70088637 9.30860137,5.80840651 9.36656972,5.93609998 L12.9683731,13.9707616 C13.0089301,14.0528325 13.0298593,14.1432532 13.0295004,14.2348503 C13.032027,14.3909381 12.9636923,14.5397196 12.8437677,14.639236 C12.7267217,14.7417685 12.5759686,14.7972065 12.4205793,14.7948597 Z M6.26083714,12.2093846 L11.1674714,12.2093846 L12.0926083,14.3315256 C12.136225,14.4775083 12.2735146,14.574817 12.4252814,14.567319 C12.5241146,14.5699663 12.6202859,14.5350073 12.6944762,14.4694647 C12.7625728,14.4144508 12.8012471,14.3307743 12.7990978,14.243103 C12.7990796,14.1867048 12.7862133,14.1310562 12.761481,14.0804056 L9.15262448,6.03395426 C9.11315717,5.94858307 9.0498698,5.87651074 8.97041836,5.82645602 C8.88893546,5.77570463 8.79478739,5.74913514 8.69887248,5.74982316 C8.60466954,5.74886827 8.51199549,5.77373529 8.43085316,5.82174016 C8.34974061,5.87042439 8.28692854,5.94461058 8.25217363,6.03277529 L4.64331708,14.0686159 C4.61821398,14.1158616 4.60452391,14.1683594 4.60334927,14.2218816 C4.60148428,14.3134652 4.64235198,14.4006725 4.71384847,14.4576751 C4.78955952,14.5260115 4.88825305,14.5630774 4.99009644,14.5614242 C5.14156062,14.5687971 5.2784459,14.4714309 5.32159402,14.3256307 L6.26083714,12.2093846 Z M10.8888724,11.5857109 L6.53943616,11.5857109 L8.70475011,6.64112238 L10.8888724,11.5857109 Z M6.89209316,11.3499175 L10.5268112,11.3499175 L8.70592563,7.22353219 L6.89209316,11.3499175 Z M12.6956517,17.4027352 L4.9371979,17.4027352 C4.61262788,17.4026759 4.34954323,17.1387725 4.34954323,16.8132516 C4.34954323,16.4877307 4.61262788,16.2238272 4.9371979,16.223768 L12.6956517,16.223768 C13.0202218,16.2238272 13.2833064,16.4877307 13.2833064,16.8132516 C13.2833064,17.1387725 13.0202218,17.4026759 12.6956517,17.4027352 Z" id="形状" fill-rule="nonzero"></path>
                                </g>
                            </g>
                        </g>
                    </g>
                </g>
            </g>
        </g>
    </g>
</svg>