<?xml version="1.0" encoding="UTF-8"?>
<svg width="30px" height="30px" viewBox="0 0 30 30" version="1.1" xmlns="http://www.w3.org/2000/svg" xmlns:xlink="http://www.w3.org/1999/xlink">
    <!-- Generator: Sketch 52.4 (67378) - http://www.bohemiancoding.com/sketch -->
    <title>script-language</title>
    <desc>Created with Sketch.</desc>
    <g id="页面-1" stroke="none" stroke-width="1" fill="none" fill-rule="evenodd">
        <g id="设置-" transform="translate(-16.000000, -179.000000)" fill="#171642" fill-rule="nonzero" stroke="#171642" stroke-width="0.2">
            <g id="分组-copy-2" transform="translate(16.000000, 179.000000)">
                <g id="Group-12">
                    <g id="script-language">
                        <path d="M25,9.03465347 C25,6.80693069 23.2701422,5 21.1374408,5 L9.79383886,5 C8.21800948,5 6.97867299,6.40346535 7.1042654,8.04207921 L8.10663507,19.7524752 L5.02369668,19.7524752 L5,21.0891089 C5,23.1831683 6.57345972,24.8910891 8.55450237,24.9950495 L8.55450237,25 L18.6090047,25 C20.936019,25 22.8199052,23.029703 22.8199052,20.6014851 L21.7251185,10.4455446 L25,10.4455446 L25,9.03465347 Z M6.93364929,22.980198 C6.45260664,22.4777228 6.18720379,21.8094059 6.18483412,21.0990099 L6.18720379,20.990099 L8.21090047,20.990099 L8.44549763,23.7450495 C7.87677725,23.6757426 7.34834123,23.4108911 6.93364929,22.980198 Z M21.6350711,20.6658416 C21.6184834,21.4876238 21.3056872,22.2549505 20.7488152,22.8366337 C20.1777251,23.4331683 19.4170616,23.7623762 18.6090047,23.7623762 L9.63744076,23.7623762 L8.28436019,7.93811881 C8.25118483,7.4950495 8.39336493,7.07178218 8.68246445,6.7450495 C8.97156398,6.41831683 9.36729858,6.23762376 9.79383886,6.23762376 L10.2440758,6.23762376 C10.7985782,6.88861386 11.1374408,7.74752475 11.1374408,8.68811881 C11.1374408,9.32425743 10.9834123,9.92326733 10.7109005,10.4455446 L20.5308057,10.4455446 L21.6350711,20.6658416 Z M23.8151659,9.20792079 L12.2962085,9.20792079 C12.3127962,9.03465347 12.3222749,8.86138614 12.3222749,8.68811881 C12.3222749,7.7970297 12.0995261,6.96039604 11.7061611,6.23762376 L21.1374408,6.23762376 C21.8530806,6.23762376 22.5260664,6.52970297 23.0308057,7.05693069 C23.535545,7.58415842 23.8151659,8.28712871 23.8151659,9.03465347 L23.8151659,9.20792079 Z M18.6137441,15.0742574 L11.5758294,15.0742574 L11.5758294,13.8366337 L18.6137441,13.8366337 L18.6137441,15.0742574 Z M18.6137441,18.1237624 L11.5758294,18.1237624 L11.5758294,16.8861386 L18.6137441,16.8861386 L18.6137441,18.1237624 Z" id="形状"></path>
                    </g>
                </g>
            </g>
        </g>
    </g>
</svg>