<?xml version="1.0" encoding="UTF-8"?>
<svg width="30px" height="30px" viewBox="0 0 30 30" version="1.1" xmlns="http://www.w3.org/2000/svg" xmlns:xlink="http://www.w3.org/1999/xlink">
    <!-- Generator: Sketch 52.4 (67378) - http://www.bohemiancoding.com/sketch -->
    <title>Group 12</title>
    <desc>Created with Sketch.</desc>
    <g id="页面-1" stroke="none" stroke-width="1" fill="none" fill-rule="evenodd">
        <g id="设置-" transform="translate(-16.000000, -118.000000)" fill="#171642" fill-rule="nonzero" stroke="#171642" stroke-width="0.3">
            <g id="分组-copy" transform="translate(16.000000, 118.000000)">
                <g id="Group-12">
                    <g id="分组-4">
                        <g id="leixing-wodejiedian" transform="translate(5.000000, 5.000000)">
                            <path d="M5.2225,1.96317457 C5.51873595,1.79430758 5.89560493,1.89410707 6.06951947,2.18747563 C6.24343402,2.48084419 6.15021138,2.85951486 5.86,3.03854443 C3.04092228,4.70375234 1.49726581,7.89960926 1.945,11.1438322 C1.97492099,11.3651897 1.88451692,11.5857006 1.70784213,11.7223006 C1.53116733,11.8589006 1.29506292,11.8908369 1.08846713,11.8060794 C0.881871339,11.7213219 0.736170993,11.5327473 0.70625,11.3113898 C0.191017556,7.56963304 1.97151565,3.88416847 5.2225,1.96317457 Z M5.1075,18.6251553 C4.91703277,18.5085573 4.80321669,18.2991683 4.80892518,18.0758631 C4.81463367,17.8525579 4.93899947,17.6492618 5.13517519,17.5425546 C5.33135091,17.4358474 5.56953278,17.4419404 5.76,17.5585384 C7.03571073,18.341101 8.50353284,18.754068 10,18.7514487 C11.55,18.7514487 13.0325,18.3175495 14.31625,17.5110221 C14.6086157,17.3273243 14.9944903,17.4154985 15.178125,17.7079648 C15.3617597,18.0004312 15.2736157,18.3864385 14.98125,18.5701364 C13.4892667,19.508276 11.7622449,20.0046675 10,20.0018788 C8.25,20.0018788 6.5675,19.5204632 5.1075,18.6251553 Z M19.375,11.3726609 C19.3301269,11.7151952 19.0161665,11.9564848 18.67375,11.9115962 C18.3313335,11.8667077 18.0901269,11.5526393 18.135,11.210105 C18.5757661,7.90792144 16.9564936,4.6712361 14.05,3.04479658 C13.7627224,2.86942054 13.6658479,2.49798117 13.8308599,2.20456295 C13.9958719,1.91114473 14.3635124,1.80111831 14.6625,1.95567198 C18.0144357,3.83225992 19.882173,7.565055 19.375,11.3739113 L19.375,11.3726609 Z M9.38125,4.92544341 C8.16168168,4.61304451 7.36457833,3.44222134 7.52070956,2.19259344 C7.67684079,0.942965546 8.73749398,0.00441427022 9.99640879,0.00189557432 C11.2553236,-0.000623121593 12.3197212,0.933676591 12.480848,2.18266975 C12.6419747,3.43166291 11.8495594,4.60566621 10.63125,4.92294255 L10.63125,7.55634828 C11.6724453,7.7339852 12.5904747,8.34263017 13.159677,9.23267188 C13.7288794,10.1227136 13.8964688,11.2116127 13.62125,12.2317063 L15.60375,13.3758498 C16.4240288,12.4209602 17.8260323,12.2249524 18.8765838,12.9182897 C19.9271353,13.611627 20.2986448,14.9781084 19.7438348,16.1082007 C19.1890248,17.2382931 17.8808998,17.7796034 16.6901507,17.3718344 C15.4994017,16.9640654 14.7973359,15.7343703 15.05125,14.5012369 L13.09625,13.3720986 C12.3974612,14.3949617 11.2384805,15.0062453 10,15.0051602 C8.76310371,15.0062658 7.60538302,14.3965571 6.90625,13.3758498 L4.95,14.5049882 C5.20200658,15.7386236 4.49787617,16.9673044 3.30634223,17.3731085 C2.11480829,17.7789126 0.807490032,17.2352767 0.254657778,16.1040944 C-0.298174477,14.9729121 0.0758982739,13.60698 1.12785907,12.9155871 C2.17981987,12.2241942 3.58158,12.4229743 4.4,13.3796011 L6.38,12.2354576 C6.1044647,11.2131164 6.27306214,10.1219264 6.8442886,9.23050653 C7.41551506,8.33908666 8.33630968,7.73024029 9.38,7.55384742 L9.38,4.92419298 L9.38125,4.92544341 Z M10,3.75128957 C10.6903559,3.75128957 11.25,3.19145296 11.25,2.5008595 C11.25,1.81026604 10.6903559,1.25042942 10,1.25042942 C9.30964406,1.25042942 8.75,1.81026604 8.75,2.5008595 C8.75,3.19145296 9.30964406,3.75128957 10,3.75128957 Z M10,13.7547302 C11.3807119,13.7547302 12.5,12.6350569 12.5,11.25387 C12.5,9.87268309 11.3807119,8.75300987 10,8.75300987 C8.61928813,8.75300987 7.5,9.87268309 7.5,11.25387 C7.5,12.6350569 8.61928813,13.7547302 10,13.7547302 Z M2.5,16.2555903 C3.19035594,16.2555903 3.75,15.6957537 3.75,15.0051602 C3.75,14.3145668 3.19035594,13.7547302 2.5,13.7547302 C1.80964406,13.7547302 1.25,14.3145668 1.25,15.0051602 C1.25,15.6957537 1.80964406,16.2555903 2.5,16.2555903 Z M17.5,16.2555903 C18.1903559,16.2555903 18.75,15.6957537 18.75,15.0051602 C18.75,14.3145668 18.1903559,13.7547302 17.5,13.7547302 C16.8096441,13.7547302 16.25,14.3145668 16.25,15.0051602 C16.25,15.6957537 16.8096441,16.2555903 17.5,16.2555903 Z" id="形状"></path>
                        </g>
                    </g>
                </g>
            </g>
        </g>
    </g>
</svg>