<?xml version="1.0" encoding="UTF-8"?>
<svg width="30px" height="30px" viewBox="0 0 30 30" version="1.1" xmlns="http://www.w3.org/2000/svg" xmlns:xlink="http://www.w3.org/1999/xlink">
    <!-- Generator: Sketch 52.4 (67378) - http://www.bohemiancoding.com/sketch -->
    <title>script-language</title>
    <desc>Created with Sketch.</desc>
    <g id="页面-1" stroke="none" stroke-width="1" fill="none" fill-rule="evenodd">
        <g id="设置-" transform="translate(-314.000000, -362.000000)" fill="#70768F">
            <g id="分组-copy-4" transform="translate(16.000000, 362.000000)">
                <g id="Group-12">
                    <g id="分组-8" transform="translate(313.000000, 15.000000) scale(1, -1) translate(-313.000000, -15.000000) translate(298.000000, 0.000000)">
                        <path d="M14.4965741,16.3524381 L18.7190925,12.2230449 C19.0198142,11.9289413 19.511249,11.9252058 19.8167571,12.2147013 C19.9327922,12.3246568 19.9987003,12.4744862 19.999981,12.6312257 C20.0012617,12.7879652 19.93781,12.9387742 19.823586,13.0504734 L14.942968,17.8235972 C14.8287512,17.9353032 14.6731164,17.998751 14.5103048,17.9999818 C14.3474932,18.0012125 14.1908427,17.9401252 14.0748179,17.8301596 C14.0557093,17.8120512 14.0376759,17.7930876 14.0207582,17.7733609 C13.9990506,17.7568002 13.9781812,17.7390572 13.9582591,17.7201745 L13.95832,17.7201745 L9.23171595,13.2408366 C9.08499006,13.1018062 9.00164726,12.9123546 9.00002416,12.7141638 C8.99840106,12.5159729 9.07863063,12.3252798 9.22306123,12.1840395 C9.46089903,11.9514658 9.8495421,11.9485278 10.0911444,12.1774771 L14.4965741,16.3524381 Z" id="合并形状" transform="translate(14.500000, 15.000000) scale(-1, 1) translate(-14.500000, -15.000000) "></path>
                    </g>
                </g>
            </g>
        </g>
    </g>
</svg>