<?xml version="1.0" encoding="UTF-8"?>
<svg width="12px" height="12px" viewBox="0 0 12 12" version="1.1" xmlns="http://www.w3.org/2000/svg" xmlns:xlink="http://www.w3.org/1999/xlink">
    <!-- Generator: Sketch 52.4 (67378) - http://www.bohemiancoding.com/sketch -->
    <title>SVG-</title>
    <desc>Created with Sketch.</desc>
    <g id="页面-1" stroke="none" stroke-width="1" fill="none" fill-rule="evenodd">
        <g id="切换节点——Switch-Node" transform="translate(-325.000000, -108.000000)">
            <g id="分组" transform="translate(16.000000, 62.000000)">
                <g id="分组-7" transform="translate(38.000000, 38.000000)">
                    <g id="SVG-" transform="translate(271.000000, 8.000000)">
                        <path d="M0.00146788991,6.00195719 C0.00146788991,9.31566569 2.68775939,12.0019572 6.00146789,12.0019572 C9.31517639,12.0019572 12.0014679,9.31566569 12.0014679,6.00195719 C12.0014679,2.68824869 9.31517639,0.00195718654 6.00146789,0.00195718654 C2.68775939,0.00195718654 0.00146788991,2.68824869 0.00146788991,6.00195719 Z" id="路径" fill="#4284FF"></path>
                        <path d="M4.81342985,7.46240029 L8.44627204,3.82955812 C8.67692868,3.59890147 8.90758533,3.59890147 9.13824197,3.82955812 C9.36889861,4.06021476 9.36889861,4.2908714 9.13824197,4.52152805 L5.50539979,8.15437023 C5.27474315,8.38502687 5.0440865,8.38502687 4.81342985,8.15437023 C4.5827732,7.92371358 4.5827732,7.69305694 4.81342985,7.46240029 Z" id="路径" fill="#FFFFFF"></path>
                        <path d="M3.5443928,5.5673658 L5.44731013,7.47028313 C5.67796677,7.70093978 5.67796677,7.93159642 5.44731013,8.16225308 C5.21665348,8.39290972 4.98599684,8.39290972 4.75534018,8.16225308 L2.85242286,6.25933574 C2.62176622,6.0286791 2.62176622,5.79802245 2.85242286,5.5673658 C3.08307951,5.33670915 3.31373615,5.33670915 3.5443928,5.5673658 Z" id="路径" fill="#FFFFFF"></path>
                    </g>
                </g>
            </g>
        </g>
    </g>
</svg>