<?xml version="1.0" encoding="UTF-8"?>
<svg width="30px" height="30px" viewBox="0 0 30 30" version="1.1" xmlns="http://www.w3.org/2000/svg" xmlns:xlink="http://www.w3.org/1999/xlink">
    <!-- Generator: Sketch 52.4 (67378) - http://www.bohemiancoding.com/sketch -->
    <title>Group 12</title>
    <desc>Created with Sketch.</desc>
    <g id="页面-1" stroke="none" stroke-width="1" fill="none" fill-rule="evenodd">
        <g id="设置-" transform="translate(-16.000000, -301.000000)" fill="#171642" fill-rule="nonzero" stroke="#171642" stroke-width="0.2">
            <g id="分组-copy-5" transform="translate(16.000000, 301.000000)">
                <g id="Group-12">
                    <g id="分组-4">
                        <g id="qian" transform="translate(5.000000, 5.000000)">
                            <path d="M20.30837,2.68088106 C20.30837,1.88017621 19.5978855,1.16969163 18.3009692,0.684757709 C17.1619383,0.256211454 15.6507489,0.0193832599 14.0606167,0.0193832599 C12.4704846,0.0193832599 10.9592952,0.256211454 9.82026432,0.684757709 C8.51207048,1.16969163 7.8015859,1.88017621 7.8015859,2.68088106 L7.8015859,6.50396476 C7.30537445,6.45885463 6.78660793,6.42502203 6.25656388,6.42502203 C4.66643172,6.42502203 3.15524229,6.66185022 2.01621145,7.09039648 C0.719295154,7.58660793 0.00881057269,8.29709251 0.00881057269,9.09779736 L0.00881057269,17.3191189 C0.00881057269,18.1198238 0.719295154,18.8303084 2.01621145,19.3152423 C3.15524229,19.7437885 4.66643172,19.9806167 6.25656388,19.9806167 C7.84669604,19.9806167 9.35788546,19.7437885 10.4969163,19.3152423 C11.6246696,18.886696 12.3125991,18.3002643 12.4704846,17.6236123 C12.9892511,17.68 13.5192952,17.7025551 14.0493392,17.7025551 C15.6394714,17.7025551 17.1506608,17.4657269 18.2896916,17.0371806 C19.5866079,16.5522467 20.2970925,15.8417621 20.2970925,15.0410573 L20.2970925,15.0072247 L20.2970925,14.9733921 L20.30837,2.68088106 Z M19.3046696,11.9848458 C19.3046696,12.6727753 17.2521586,13.6539207 14.0493392,13.6539207 C13.5192952,13.6539207 13.0005286,13.6313656 12.5043172,13.574978 L12.5043172,11.522467 C13.0118062,11.5788546 13.5192952,11.6014097 14.0493392,11.6014097 C15.6394714,11.6014097 17.1506608,11.3645815 18.2896916,10.9360352 C18.6844053,10.7894273 19.0227313,10.6202643 19.3046696,10.4398238 L19.3046696,11.9848458 Z M11.5118943,11.9622907 C11.5118943,12.6502203 9.45938326,13.6313656 6.25656388,13.6313656 C3.05374449,13.6313656 1.00123348,12.6389427 1.00123348,11.9622907 L1.00123348,10.5977093 C1.28317181,10.7781498 1.6214978,10.9473128 2.01621145,11.0939207 C3.15524229,11.522467 4.66643172,11.7592952 6.25656388,11.7592952 C7.84669604,11.7592952 9.35788546,11.522467 10.4969163,11.0939207 C10.89163,10.9473128 11.2299559,10.7781498 11.5118943,10.5977093 L11.5118943,11.9622907 Z M1.00123348,13.4622026 C1.28317181,13.6426432 1.6214978,13.8118062 2.01621145,13.9584141 C3.15524229,14.3869604 4.66643172,14.6237885 6.25656388,14.6237885 C7.84669604,14.6237885 9.35788546,14.3869604 10.4969163,13.9584141 C10.89163,13.8118062 11.2299559,13.6426432 11.5118943,13.4622026 L11.5118943,14.6463436 C11.5118943,15.3342731 9.45938326,16.3154185 6.25656388,16.3154185 C3.05374449,16.3154185 1.00123348,15.3229956 1.00123348,14.6463436 L1.00123348,13.4622026 Z M19.3046696,8.93991189 C19.3046696,9.62784141 17.2521586,10.6089868 14.0493392,10.6089868 C13.5192952,10.6089868 13.0005286,10.5864317 12.5043172,10.5300441 L12.5043172,9.09779736 C12.5043172,8.88352423 12.4479295,8.6692511 12.3464317,8.46625551 C12.8990308,8.52264317 13.4629075,8.55647577 14.0493392,8.55647577 C15.6394714,8.55647577 17.1506608,8.31964758 18.2896916,7.89110132 C18.6844053,7.74449339 19.0227313,7.5753304 19.3046696,7.39488987 L19.3046696,8.93991189 Z M19.3046696,5.88370044 C19.3046696,6.57162996 17.2521586,7.55277533 14.0493392,7.55277533 C10.8465198,7.55277533 8.79400881,6.56035242 8.79400881,5.88370044 L8.79400881,4.18079295 C9.07594714,4.36123348 9.41427313,4.53039648 9.80898678,4.67700441 C10.9480176,5.10555066 12.459207,5.34237885 14.0493392,5.34237885 C15.6394714,5.34237885 17.1506608,5.10555066 18.2896916,4.67700441 C18.6844053,4.53039648 19.0227313,4.36123348 19.3046696,4.18079295 L19.3046696,5.88370044 Z M14.0493392,1.00052863 C17.2521586,1.00052863 19.3046696,1.99295154 19.3046696,2.66960352 C19.3046696,3.34625551 17.2634361,4.34995595 14.0493392,4.34995595 C10.8465198,4.34995595 8.79400881,3.35753304 8.79400881,2.68088106 C8.79400881,2.00422907 10.8465198,1.00052863 14.0493392,1.00052863 Z M6.25656388,7.41744493 C6.96704846,7.41744493 7.60986784,7.46255507 8.19629956,7.55277533 C8.21885463,7.55277533 8.23013216,7.56405286 8.25268722,7.56405286 C10.2826432,7.85726872 11.5118943,8.5677533 11.5118943,9.09779736 C11.5118943,9.78572687 9.45938326,10.7668722 6.25656388,10.7668722 C3.05374449,10.7668722 1.00123348,9.77444934 1.00123348,9.09779736 C1.00123348,8.42114537 3.04246696,7.41744493 6.25656388,7.41744493 Z M6.25656388,18.9994714 C3.05374449,18.9994714 1.00123348,18.0070485 1.00123348,17.3303965 L1.00123348,17.2965639 L1.00123348,16.1462555 C1.28317181,16.326696 1.6214978,16.495859 2.01621145,16.642467 C3.15524229,17.0710132 4.66643172,17.3078414 6.25656388,17.3078414 C7.84669604,17.3078414 9.35788546,17.0710132 10.4969163,16.642467 C10.89163,16.495859 11.2299559,16.326696 11.5118943,16.1462555 L11.5118943,17.3303965 C11.5118943,18.0070485 9.45938326,18.9994714 6.25656388,18.9994714 Z M14.0493392,16.7101322 C13.5192952,16.7101322 13.0005286,16.6875771 12.5043172,16.6311894 L12.5043172,14.5786784 C13.0118062,14.6350661 13.5192952,14.6576211 14.0493392,14.6576211 C15.6394714,14.6576211 17.1506608,14.420793 18.2896916,13.9922467 C18.6844053,13.8456388 19.0227313,13.6764758 19.3046696,13.4960352 L19.3046696,15.0523348 C19.3046696,15.7177093 17.2634361,16.7101322 14.0493392,16.7101322 Z" id="形状"></path>
                        </g>
                    </g>
                </g>
            </g>
        </g>
    </g>
</svg>