<?xml version="1.0" encoding="UTF-8"?>
<svg width="30px" height="30px" viewBox="0 0 30 30" version="1.1" xmlns="http://www.w3.org/2000/svg" xmlns:xlink="http://www.w3.org/1999/xlink">
    <!-- Generator: Sketch 52.4 (67378) - http://www.bohemiancoding.com/sketch -->
    <title>Group 12</title>
    <desc>Created with Sketch.</desc>
    <g id="页面-1" stroke="none" stroke-width="1" fill="none" fill-rule="evenodd">
        <g id="设置-" transform="translate(-16.000000, -57.000000)">
            <g id="分组" transform="translate(16.000000, 57.000000)">
                <g id="Group-12">
                    <g id="分组-3">
                        <g id="分组-2">
                            <g id="分组-5">
                                <g id="weibiaoti--" transform="translate(5.000000, 5.000000)">
                                    <path d="M4.08668076,2.49894292 C4.08668075,2.80786814 4.25149039,3.09332682 4.51902748,3.24778943 C4.78656456,3.40225204 5.11618385,3.40225204 5.38372094,3.24778943 C5.65125802,3.09332682 5.81606766,2.80786814 5.81606765,2.49894292 C5.81606765,2.02138591 5.42893121,1.63424947 4.95137421,1.63424947 C4.4738172,1.63424947 4.08668076,2.02138591 4.08668076,2.49894292 Z" id="路径" fill="#242424"></path>
                                    <path d="M13.5687104,2.19238901 C13.5687104,2.66994601 13.9558468,3.05708245 14.4334038,3.05708245 C14.9109608,3.05708245 15.2980973,2.66994601 15.2980973,2.19238901 C15.2980973,1.714832 14.9109608,1.32769556 14.4334038,1.32769556 C13.9558468,1.32769556 13.5687104,1.714832 13.5687104,2.19238901 Z" id="路径" fill="#242424"></path>
                                    <path d="M9.93657505,11.0338266 C9.45877378,11.0338266 9.06976744,10.6469345 9.06976744,10.167019 L9.06976744,0.871035941 C9.06976744,0.393234672 9.45665962,0.00422832981 9.93657505,0.00422832981 C10.4143763,0.00422832981 10.8033827,0.391120507 10.8033827,0.871035941 L10.8033827,10.167019 C10.8033827,10.6448203 10.4143763,11.0338266 9.93657505,11.0338266 Z" id="路径" fill="#171642"></path>
                                    <path d="M14.7526427,1.35940803 L13.7906977,2.80761099 C16.3890063,4.18604651 18.1585624,6.91754757 18.1585624,10.0613108 C18.1585624,14.5919662 14.4841438,18.2663848 9.95348837,18.2663848 C5.42283298,18.2663848 1.74841438,14.5919662 1.74841438,10.0613108 C1.74841438,7.22198732 3.19027484,4.72093023 5.38266385,3.24735729 L4.53699789,1.72938689 C1.81606765,3.50105708 0.0169133192,6.57082452 0.0169133192,10.0613108 C0.0169133192,15.5496829 4.46511628,19.9978858 9.95348837,19.9978858 C15.4418605,19.9978858 19.8900634,15.5496829 19.8900634,10.0613108 C19.8900634,6.31501057 17.8160677,3.05285412 14.7526427,1.35940803 Z" id="路径" fill="#171642"></path>
                                </g>
                            </g>
                        </g>
                    </g>
                </g>
            </g>
        </g>
    </g>
</svg>