<?xml version="1.0" encoding="UTF-8"?>
<svg width="30px" height="30px" viewBox="0 0 30 30" version="1.1" xmlns="http://www.w3.org/2000/svg" xmlns:xlink="http://www.w3.org/1999/xlink">
    <!-- Generator: Sketch 52.4 (67378) - http://www.bohemiancoding.com/sketch -->
    <title>script-language</title>
    <desc>Created with Sketch.</desc>
    <g id="页面-1" stroke="none" stroke-width="1" fill="none" fill-rule="evenodd">
        <g id="设置-" transform="translate(-16.000000, -362.000000)" fill="#171642" fill-rule="nonzero">
            <g id="分组-copy-4" transform="translate(16.000000, 362.000000)">
                <g id="Group-12">
                    <g id="script-language">
                        <g id="suo" transform="translate(6.000000, 5.000000)">
                            <path d="M15.7142857,7.12714286 L14.3085714,7.12714286 L14.3085714,4.95 C14.3085714,2.22142857 12.06,0 9.29428571,0 C6.52857143,0 4.28,2.22142857 4.28,4.95 L4.28,7.12714286 L2.85714286,7.12714286 C1.28,7.12714286 0,8.40714286 0,9.98428571 L0,17.1271429 C0,18.7042857 1.28,19.9842857 2.85714286,19.9842857 L15.7142857,19.9842857 C17.2928571,19.9842857 18.5714286,18.7042857 18.5714286,17.1271429 L18.5714286,9.98428571 C18.5714286,8.40714286 17.2942857,7.12714286 15.7142857,7.12714286 Z M5.71142857,4.95 C5.71142857,3.00142857 7.31857143,1.41428571 9.29285714,1.41428571 C11.27,1.41428571 12.8742857,3 12.8742857,4.95 L12.8742857,7.12714286 L5.71142857,7.12714286 L5.71142857,4.95 Z M17.1428571,17.1271429 C17.1428571,17.9171429 16.5042857,18.5557143 15.7142857,18.5557143 L2.85714286,18.5557143 C2.06857143,18.5557143 1.42857143,17.9171429 1.42857143,17.1271429 L1.42857143,9.98428571 C1.42857143,9.19428571 2.06857143,8.55571429 2.85714286,8.55571429 L15.7142857,8.55571429 C16.5042857,8.55571429 17.1428571,9.19428571 17.1428571,9.98428571 L17.1428571,17.1271429 Z M9.28571429,9.98428571 C8.10142857,9.98428571 7.14285714,10.9442857 7.14285714,12.1271429 C7.14285714,13.0585714 7.74142857,13.8428571 8.57142857,14.1385714 L8.57142857,16.4128571 C8.57142857,16.8071429 8.89142857,17.1271429 9.28571429,17.1271429 C9.68,17.1271429 10,16.8071429 10,16.4128571 L10,14.1385714 C10.83,13.8428571 11.4285714,13.0585714 11.4285714,12.1271429 C11.4285714,10.9442857 10.47,9.98428571 9.28571429,9.98428571 Z" id="形状"></path>
                        </g>
                    </g>
                </g>
            </g>
        </g>
    </g>
</svg>